<svg width="2013" height="669" viewBox="0 0 2013 669" fill="none" xmlns="http://www.w3.org/2000/svg">
<path d="M1286.22 252.077V249.869H1297.83V252.077H1293.33V264.414H1290.72V252.077H1286.22ZM1300.17 264.414H1297.36L1302.48 249.869H1305.73L1310.86 264.414H1308.05L1304.16 252.852H1304.05L1300.17 264.414ZM1300.27 258.711H1307.94V260.827H1300.27V258.711ZM1324.73 249.869V264.414H1322.39L1315.53 254.506H1315.41V264.414H1312.78V249.869H1315.14L1321.98 259.783H1322.11V249.869H1324.73ZM1337.35 254.513C1337.23 254.13 1337.06 253.787 1336.86 253.484C1336.65 253.176 1336.41 252.913 1336.12 252.695C1335.83 252.478 1335.51 252.314 1335.14 252.205C1334.77 252.092 1334.37 252.035 1333.93 252.035C1333.15 252.035 1332.45 252.231 1331.84 252.624C1331.23 253.017 1330.75 253.595 1330.4 254.357C1330.05 255.115 1329.88 256.038 1329.88 257.127C1329.88 258.226 1330.05 259.156 1330.4 259.918C1330.75 260.681 1331.23 261.261 1331.84 261.658C1332.46 262.051 1333.17 262.248 1333.99 262.248C1334.73 262.248 1335.36 262.106 1335.9 261.822C1336.45 261.538 1336.87 261.135 1337.16 260.614C1337.46 260.089 1337.6 259.473 1337.6 258.768L1338.2 258.86H1334.25V256.8H1340.15V258.548C1340.15 259.793 1339.89 260.87 1339.36 261.779C1338.83 262.688 1338.1 263.389 1337.17 263.881C1336.24 264.369 1335.18 264.613 1333.97 264.613C1332.63 264.613 1331.46 264.312 1330.44 263.711C1329.43 263.105 1328.65 262.246 1328.08 261.133C1327.51 260.015 1327.23 258.69 1327.23 257.156C1327.23 255.981 1327.4 254.933 1327.73 254.009C1328.07 253.086 1328.53 252.302 1329.14 251.658C1329.74 251.01 1330.44 250.517 1331.25 250.181C1332.06 249.84 1332.94 249.67 1333.89 249.67C1334.7 249.67 1335.45 249.788 1336.15 250.025C1336.84 250.257 1337.46 250.588 1338 251.019C1338.54 251.45 1338.99 251.961 1339.34 252.553C1339.69 253.145 1339.92 253.799 1340.03 254.513H1337.35ZM1352.44 254.513C1352.33 254.13 1352.16 253.787 1351.95 253.484C1351.75 253.176 1351.5 252.913 1351.22 252.695C1350.93 252.478 1350.6 252.314 1350.24 252.205C1349.87 252.092 1349.46 252.035 1349.03 252.035C1348.25 252.035 1347.55 252.231 1346.94 252.624C1346.33 253.017 1345.85 253.595 1345.5 254.357C1345.15 255.115 1344.98 256.038 1344.98 257.127C1344.98 258.226 1345.15 259.156 1345.5 259.918C1345.84 260.681 1346.32 261.261 1346.94 261.658C1347.56 262.051 1348.27 262.248 1349.08 262.248C1349.82 262.248 1350.46 262.106 1351 261.822C1351.55 261.538 1351.97 261.135 1352.26 260.614C1352.55 260.089 1352.7 259.473 1352.7 258.768L1353.3 258.86H1349.35V256.8H1355.25V258.548C1355.25 259.793 1354.98 260.87 1354.45 261.779C1353.92 262.688 1353.19 263.389 1352.27 263.881C1351.34 264.369 1350.27 264.613 1349.07 264.613C1347.73 264.613 1346.55 264.312 1345.54 263.711C1344.53 263.105 1343.74 262.246 1343.18 261.133C1342.61 260.015 1342.33 258.69 1342.33 257.156C1342.33 255.981 1342.5 254.933 1342.83 254.009C1343.16 253.086 1343.63 252.302 1344.23 251.658C1344.84 251.01 1345.54 250.517 1346.35 250.181C1347.16 249.84 1348.04 249.67 1348.99 249.67C1349.8 249.67 1350.55 249.788 1351.24 250.025C1351.94 250.257 1352.56 250.588 1353.1 251.019C1353.64 251.45 1354.09 251.961 1354.44 252.553C1354.79 253.145 1355.02 253.799 1355.13 254.513H1352.44ZM1359.22 264.414H1356.4L1361.52 249.869H1364.78L1369.91 264.414H1367.09L1363.21 252.852H1363.09L1359.22 264.414ZM1359.31 258.711H1366.98V260.827H1359.31V258.711Z" fill="#7B7474"/>
<path d="M249.829 68.6675V54.122H255.284C256.401 54.122 257.339 54.3162 258.096 54.7044C258.859 55.0927 259.434 55.6372 259.822 56.3379C260.215 57.034 260.412 57.846 260.412 58.774C260.412 59.7068 260.213 60.5164 259.815 61.203C259.422 61.8848 258.842 62.4127 258.075 62.7868C257.308 63.1561 256.366 63.3408 255.248 63.3408H251.363V61.1533H254.893C255.547 61.1533 256.082 61.0633 256.498 60.8834C256.915 60.6987 257.223 60.4312 257.422 60.0808C257.625 59.7257 257.727 59.2901 257.727 58.774C257.727 58.2579 257.625 57.8176 257.422 57.453C257.218 57.0837 256.908 56.8043 256.491 56.6149C256.074 56.4208 255.537 56.3237 254.879 56.3237H252.464V68.6675H249.829ZM257.343 62.0766L260.944 68.6675H258.004L254.467 62.0766H257.343ZM264.307 68.8237C263.876 68.8237 263.507 68.6722 263.199 68.3692C262.891 68.0662 262.74 67.6968 262.745 67.2612C262.74 66.8351 262.891 66.4705 263.199 66.1675C263.507 65.8645 263.876 65.7129 264.307 65.7129C264.724 65.7129 265.086 65.8645 265.394 66.1675C265.706 66.4705 265.865 66.8351 265.87 67.2612C265.865 67.5501 265.789 67.8128 265.642 68.0496C265.5 68.2863 265.311 68.4757 265.074 68.6178C264.842 68.7551 264.587 68.8237 264.307 68.8237ZM273.15 68.6675V54.122H275.784V60.8053H275.962L281.637 54.122H284.854L279.229 60.649L284.904 68.6675H281.736L277.397 62.4317L275.784 64.3351V68.6675H273.15ZM288.553 68.6675H285.74L290.861 54.122H294.114L299.241 68.6675H296.429L292.544 57.105H292.43L288.553 68.6675ZM288.645 62.9644H296.315V65.0808H288.645V62.9644ZM301.157 68.6675V54.122H306.612C307.729 54.122 308.667 54.3162 309.424 54.7044C310.187 55.0927 310.762 55.6372 311.15 56.3379C311.543 57.034 311.74 57.846 311.74 58.774C311.74 59.7068 311.541 60.5164 311.143 61.203C310.75 61.8848 310.17 62.4127 309.403 62.7868C308.636 63.1561 307.694 63.3408 306.576 63.3408H302.691V61.1533H306.221C306.875 61.1533 307.41 61.0633 307.826 60.8834C308.243 60.6987 308.551 60.4312 308.75 60.0808C308.953 59.7257 309.055 59.2901 309.055 58.774C309.055 58.2579 308.953 57.8176 308.75 57.453C308.546 57.0837 308.236 56.8043 307.819 56.6149C307.403 56.4208 306.865 56.3237 306.207 56.3237H303.792V68.6675H301.157ZM308.672 62.0766L312.272 68.6675H309.332L305.795 62.0766H308.672ZM314.165 68.6675V54.122H319.62C320.737 54.122 321.675 54.3304 322.432 54.747C323.194 55.1637 323.77 55.7366 324.158 56.4658C324.551 57.1902 324.748 58.0141 324.748 58.9374C324.748 59.8701 324.551 60.6987 324.158 61.4232C323.765 62.1476 323.185 62.7181 322.418 63.1348C321.651 63.5467 320.706 63.7527 319.584 63.7527H315.969V61.5865H319.229C319.882 61.5865 320.417 61.4729 320.834 61.2456C321.251 61.0183 321.559 60.7058 321.757 60.3081C321.961 59.9104 322.063 59.4535 322.063 58.9374C322.063 58.4213 321.961 57.9667 321.757 57.5737C321.559 57.1807 321.248 56.8753 320.827 56.6575C320.41 56.435 319.873 56.3237 319.215 56.3237H316.8V68.6675H314.165ZM340.033 61.3948C340.033 62.962 339.74 64.3043 339.153 65.4217C338.57 66.5344 337.775 67.3867 336.766 67.9786C335.763 68.5704 334.624 68.8663 333.35 68.8663C332.076 68.8663 330.935 68.5704 329.927 67.9786C328.923 67.382 328.128 66.5273 327.54 65.4146C326.958 64.2972 326.667 62.9573 326.667 61.3948C326.667 59.8275 326.958 58.4876 327.54 57.3749C328.128 56.2574 328.923 55.4028 329.927 54.8109C330.935 54.2191 332.076 53.9232 333.35 53.9232C334.624 53.9232 335.763 54.2191 336.766 54.8109C337.775 55.4028 338.57 56.2574 339.153 57.3749C339.74 58.4876 340.033 59.8275 340.033 61.3948ZM337.384 61.3948C337.384 60.2915 337.211 59.3611 336.866 58.6036C336.525 57.8412 336.051 57.266 335.445 56.8777C334.839 56.4847 334.141 56.2882 333.35 56.2882C332.559 56.2882 331.861 56.4847 331.255 56.8777C330.649 57.266 330.173 57.8412 329.827 58.6036C329.487 59.3611 329.316 60.2915 329.316 61.3948C329.316 62.498 329.487 63.4307 329.827 64.193C330.173 64.9506 330.649 65.5259 331.255 65.9189C331.861 66.3072 332.559 66.5013 333.35 66.5013C334.141 66.5013 334.839 66.3072 335.445 65.9189C336.051 65.5259 336.525 64.9506 336.866 64.193C337.211 63.4307 337.384 62.498 337.384 61.3948ZM352.269 58.7669C352.15 58.3834 351.987 58.0401 351.779 57.7371C351.575 57.4293 351.329 57.1665 351.04 56.9487C350.756 56.7309 350.429 56.5676 350.06 56.4587C349.691 56.345 349.288 56.2882 348.853 56.2882C348.071 56.2882 347.375 56.4847 346.765 56.8777C346.154 57.2707 345.673 57.8484 345.323 58.6107C344.977 59.3682 344.804 60.2915 344.804 61.3805C344.804 62.479 344.977 63.4094 345.323 64.1717C345.668 64.9341 346.149 65.5141 346.765 65.9118C347.38 66.3048 348.095 66.5013 348.909 66.5013C349.648 66.5013 350.287 66.3592 350.827 66.0752C351.372 65.7911 351.791 65.3886 352.084 64.8678C352.378 64.3422 352.525 63.7267 352.525 63.0212L353.121 63.1135H349.172V61.0538H355.074V62.801C355.074 64.0463 354.809 65.1234 354.279 66.0325C353.748 66.9416 353.019 67.6424 352.091 68.1348C351.163 68.6225 350.098 68.8663 348.895 68.8663C347.555 68.8663 346.379 68.5657 345.365 67.9644C344.357 67.3583 343.569 66.4989 343 65.3862C342.437 64.2688 342.155 62.943 342.155 61.409C342.155 60.2347 342.321 59.1859 342.652 58.2627C342.989 57.3394 343.457 56.5557 344.059 55.9118C344.66 55.2631 345.365 54.7707 346.175 54.4345C346.985 54.0936 347.865 53.9232 348.817 53.9232C349.622 53.9232 350.373 54.0415 351.069 54.2783C351.765 54.5103 352.382 54.8417 352.922 55.2726C353.467 55.7035 353.914 56.2148 354.265 56.8067C354.615 57.3985 354.845 58.052 354.953 58.7669H352.269Z" fill="#7B7474"/>
<path d="M489.73 68.6675V54.122H495.184C496.302 54.122 497.239 54.3162 497.997 54.7044C498.759 55.0927 499.334 55.6372 499.722 56.3379C500.115 57.034 500.312 57.846 500.312 58.774C500.312 59.7068 500.113 60.5164 499.715 61.203C499.322 61.8848 498.742 62.4127 497.975 62.7868C497.208 63.1561 496.266 63.3408 495.149 63.3408H491.264V61.1533H494.794C495.447 61.1533 495.982 61.0633 496.399 60.8834C496.815 60.6987 497.123 60.4312 497.322 60.0808C497.526 59.7257 497.627 59.2901 497.627 58.774C497.627 58.2579 497.526 57.8176 497.322 57.453C497.118 57.0837 496.808 56.8043 496.392 56.6149C495.975 56.4208 495.437 56.3237 494.779 56.3237H492.365V68.6675H489.73ZM497.244 62.0766L500.845 68.6675H497.904L494.367 62.0766H497.244ZM504.208 68.8237C503.777 68.8237 503.407 68.6722 503.1 68.3692C502.792 68.0662 502.64 67.6968 502.645 67.2612C502.64 66.8351 502.792 66.4705 503.1 66.1675C503.407 65.8645 503.777 65.7129 504.208 65.7129C504.624 65.7129 504.986 65.8645 505.294 66.1675C505.607 66.4705 505.765 66.8351 505.77 67.2612C505.765 67.5501 505.69 67.8128 505.543 68.0496C505.401 68.2863 505.211 68.4757 504.975 68.6178C504.743 68.7551 504.487 68.8237 504.208 68.8237ZM516.111 68.6675L512.006 54.122H514.84L517.46 64.8109H517.595L520.394 54.122H522.972L525.777 64.818H525.905L528.526 54.122H531.36L527.254 68.6675H524.655L521.743 58.4615H521.629L518.71 68.6675H516.111ZM533.687 68.6675H530.875L535.996 54.122H539.248L544.376 68.6675H541.564L537.679 57.105H537.565L533.687 68.6675ZM533.78 62.9644H541.45V65.0808H533.78V62.9644ZM546.292 68.6675V54.122H548.927V60.8053H549.105L554.779 54.122H557.997L552.372 60.649L558.046 68.6675H554.879L550.539 62.4317L548.927 64.3351V68.6675H546.292ZM561.695 68.6675H558.883L564.003 54.122H567.256L572.384 68.6675H569.572L565.687 57.105H565.573L561.695 68.6675ZM561.787 62.9644H569.458V65.0808H561.787V62.9644Z" fill="#7B7474"/>
<path d="M663.77 68.6675V54.122H669.225C670.342 54.122 671.28 54.3162 672.037 54.7044C672.799 55.0927 673.375 55.6372 673.763 56.3379C674.156 57.034 674.352 57.846 674.352 58.774C674.352 59.7068 674.154 60.5164 673.756 61.203C673.363 61.8848 672.783 62.4127 672.016 62.7868C671.249 63.1561 670.307 63.3408 669.189 63.3408H665.304V61.1533H668.834C669.487 61.1533 670.022 61.0633 670.439 60.8834C670.856 60.6987 671.164 60.4312 671.362 60.0808C671.566 59.7257 671.668 59.2901 671.668 58.774C671.668 58.2579 671.566 57.8176 671.362 57.453C671.159 57.0837 670.849 56.8043 670.432 56.6149C670.015 56.4208 669.478 56.3237 668.82 56.3237H666.405V68.6675H663.77ZM671.284 62.0766L674.885 68.6675H671.945L668.408 62.0766H671.284ZM678.248 68.8237C677.817 68.8237 677.448 68.6722 677.14 68.3692C676.832 68.0662 676.681 67.6968 676.686 67.2612C676.681 66.8351 676.832 66.4705 677.14 66.1675C677.448 65.8645 677.817 65.7129 678.248 65.7129C678.665 65.7129 679.027 65.8645 679.335 66.1675C679.647 66.4705 679.806 66.8351 679.811 67.2612C679.806 67.5501 679.73 67.8128 679.583 68.0496C679.441 68.2863 679.252 68.4757 679.015 68.6178C678.783 68.7551 678.527 68.8237 678.248 68.8237ZM687.09 68.6675V54.122H692.659C693.71 54.122 694.583 54.2877 695.279 54.6192C695.98 54.9459 696.503 55.3933 696.849 55.9615C697.199 56.5297 697.375 57.1736 697.375 57.8933C697.375 58.4852 697.261 58.9918 697.034 59.4132C696.806 59.8299 696.501 60.1684 696.117 60.4288C695.734 60.6893 695.305 60.8763 694.832 60.9899V61.132C695.348 61.1604 695.843 61.319 696.316 61.6078C696.794 61.8919 697.185 62.2944 697.488 62.8152C697.791 63.336 697.943 63.9658 697.943 64.7044C697.943 65.4573 697.76 66.1343 697.396 66.7357C697.031 67.3323 696.482 67.8034 695.748 68.149C695.014 68.4947 694.091 68.6675 692.978 68.6675H687.09ZM689.725 66.4658H692.559C693.516 66.4658 694.205 66.2835 694.626 65.9189C695.052 65.5496 695.265 65.0761 695.265 64.4984C695.265 64.0676 695.159 63.6793 694.946 63.3337C694.732 62.9833 694.429 62.7087 694.036 62.5098C693.643 62.3062 693.175 62.2044 692.63 62.2044H689.725V66.4658ZM689.725 60.3081H692.332C692.786 60.3081 693.196 60.2252 693.561 60.0595C693.925 59.8891 694.212 59.65 694.42 59.3422C694.633 59.0297 694.74 58.6604 694.74 58.2342C694.74 57.6708 694.541 57.2068 694.143 56.8422C693.75 56.4776 693.165 56.2953 692.389 56.2953H689.725V60.3081ZM700.235 68.6675V54.122H705.689C706.807 54.122 707.744 54.3304 708.502 54.747C709.264 55.1637 709.84 55.7366 710.228 56.4658C710.621 57.1902 710.817 58.0141 710.817 58.9374C710.817 59.8701 710.621 60.6987 710.228 61.4232C709.835 62.1476 709.255 62.7181 708.488 63.1348C707.721 63.5467 706.776 63.7527 705.654 63.7527H702.039V61.5865H705.299C705.952 61.5865 706.487 61.4729 706.904 61.2456C707.321 61.0183 707.628 60.7058 707.827 60.3081C708.031 59.9104 708.133 59.4535 708.133 58.9374C708.133 58.4213 708.031 57.9667 707.827 57.5737C707.628 57.1807 707.318 56.8753 706.897 56.6575C706.48 56.435 705.943 56.3237 705.285 56.3237H702.87V68.6675H700.235ZM718.93 53.4402L714.242 70.855H711.991L716.678 53.4402H718.93ZM720.684 68.6675V54.122H726.252C727.303 54.122 728.177 54.2877 728.873 54.6192C729.574 54.9459 730.097 55.3933 730.443 55.9615C730.793 56.5297 730.968 57.1736 730.968 57.8933C730.968 58.4852 730.855 58.9918 730.627 59.4132C730.4 59.8299 730.095 60.1684 729.711 60.4288C729.328 60.6893 728.899 60.8763 728.426 60.9899V61.132C728.942 61.1604 729.437 61.319 729.91 61.6078C730.388 61.8919 730.779 62.2944 731.082 62.8152C731.385 63.336 731.536 63.9658 731.536 64.7044C731.536 65.4573 731.354 66.1343 730.99 66.7357C730.625 67.3323 730.076 67.8034 729.342 68.149C728.608 68.4947 727.685 68.6675 726.572 68.6675H720.684ZM723.319 66.4658H726.153C727.109 66.4658 727.798 66.2835 728.22 65.9189C728.646 65.5496 728.859 65.0761 728.859 64.4984C728.859 64.0676 728.752 63.6793 728.539 63.3337C728.326 62.9833 728.023 62.7087 727.63 62.5098C727.237 62.3062 726.768 62.2044 726.224 62.2044H723.319V66.4658ZM723.319 60.3081H725.926C726.38 60.3081 726.79 60.2252 727.154 60.0595C727.519 59.8891 727.805 59.65 728.014 59.3422C728.227 59.0297 728.333 58.6604 728.333 58.2342C728.333 57.6708 728.134 57.2068 727.737 56.8422C727.344 56.4776 726.759 56.2953 725.982 56.2953H723.319V60.3081ZM733.829 68.6675V54.122H736.464V60.8053H736.641L742.316 54.122H745.533L739.908 60.649L745.583 68.6675H742.415L738.076 62.4317L736.464 64.3351V68.6675H733.829Z" fill="#7B7474"/>
<path d="M828.061 68.6675V54.122H833.516C834.633 54.122 835.571 54.3162 836.328 54.7044C837.09 55.0927 837.666 55.6372 838.054 56.3379C838.447 57.034 838.644 57.846 838.644 58.774C838.644 59.7068 838.445 60.5164 838.047 61.203C837.654 61.8848 837.074 62.4127 836.307 62.7868C835.54 63.1561 834.598 63.3408 833.48 63.3408H829.595V61.1533H833.125C833.778 61.1533 834.313 61.0633 834.73 60.8834C835.147 60.6987 835.455 60.4312 835.653 60.0808C835.857 59.7257 835.959 59.2901 835.959 58.774C835.959 58.2579 835.857 57.8176 835.653 57.453C835.45 57.0837 835.14 56.8043 834.723 56.6149C834.306 56.4208 833.769 56.3237 833.111 56.3237H830.696V68.6675H828.061ZM835.575 62.0766L839.176 68.6675H836.236L832.699 62.0766H835.575ZM842.539 68.8237C842.108 68.8237 841.739 68.6722 841.431 68.3692C841.123 68.0662 840.972 67.6968 840.977 67.2612C840.972 66.8351 841.123 66.4705 841.431 66.1675C841.739 65.8645 842.108 65.7129 842.539 65.7129C842.956 65.7129 843.318 65.8645 843.626 66.1675C843.938 66.4705 844.097 66.8351 844.102 67.2612C844.097 67.5501 844.021 67.8128 843.874 68.0496C843.732 68.2863 843.543 68.4757 843.306 68.6178C843.074 68.7551 842.818 68.8237 842.539 68.8237ZM850.742 56.3308V54.122H862.347V56.3308H857.852V68.6675H855.238V56.3308H850.742ZM864.695 68.6675H861.882L867.003 54.122H870.256L875.384 68.6675H872.571L868.686 57.105H868.572L864.695 68.6675ZM864.787 62.9644H872.457V65.0808H864.787V62.9644ZM877.299 54.122H880.524L884.842 64.6618H885.012L889.331 54.122H892.555V68.6675H890.027V58.6746H889.892L885.872 68.6249H883.983L879.963 58.6533H879.828V68.6675H877.299V54.122ZM904.593 54.122H907.228V63.6249C907.228 64.6665 906.982 65.5827 906.49 66.3734C906.002 67.1642 905.316 67.7821 904.43 68.2271C903.545 68.6675 902.51 68.8877 901.326 68.8877C900.138 68.8877 899.101 68.6675 898.216 68.2271C897.33 67.7821 896.644 67.1642 896.156 66.3734C895.668 65.5827 895.424 64.6665 895.424 63.6249V54.122H898.059V63.4047C898.059 64.0108 898.192 64.5505 898.457 65.024C898.727 65.4975 899.106 65.8692 899.593 66.1391C900.081 66.4042 900.659 66.5368 901.326 66.5368C901.994 66.5368 902.572 66.4042 903.059 66.1391C903.552 65.8692 903.931 65.4975 904.196 65.024C904.461 64.5505 904.593 64.0108 904.593 63.4047V54.122Z" fill="#7B7474"/>
<path d="M1015.12 68.6675V54.122H1020.58C1021.7 54.122 1022.63 54.3162 1023.39 54.7044C1024.15 55.0927 1024.73 55.6372 1025.12 56.3379C1025.51 57.034 1025.71 57.846 1025.71 58.774C1025.71 59.7068 1025.51 60.5164 1025.11 61.203C1024.72 61.8848 1024.14 62.4127 1023.37 62.7868C1022.6 63.1561 1021.66 63.3408 1020.54 63.3408H1016.66V61.1533H1020.19C1020.84 61.1533 1021.38 61.0633 1021.79 60.8834C1022.21 60.6987 1022.52 60.4312 1022.72 60.0808C1022.92 59.7257 1023.02 59.2901 1023.02 58.774C1023.02 58.2579 1022.92 57.8176 1022.72 57.453C1022.51 57.0837 1022.2 56.8043 1021.79 56.6149C1021.37 56.4208 1020.83 56.3237 1020.17 56.3237H1017.76V68.6675H1015.12ZM1022.64 62.0766L1026.24 68.6675H1023.3L1019.76 62.0766H1022.64ZM1029.6 68.8237C1029.17 68.8237 1028.8 68.6722 1028.49 68.3692C1028.19 68.0662 1028.03 67.6968 1028.04 67.2612C1028.03 66.8351 1028.19 66.4705 1028.49 66.1675C1028.8 65.8645 1029.17 65.7129 1029.6 65.7129C1030.02 65.7129 1030.38 65.8645 1030.69 66.1675C1031 66.4705 1031.16 66.8351 1031.16 67.2612C1031.16 67.5501 1031.08 67.8128 1030.94 68.0496C1030.8 68.2863 1030.61 68.4757 1030.37 68.6178C1030.14 68.7551 1029.88 68.8237 1029.6 68.8237ZM1038.44 68.6675V54.122H1041.08V60.8053H1041.26L1046.93 54.122H1050.15L1044.52 60.649L1050.2 68.6675H1047.03L1042.69 62.4317L1041.08 64.3351V68.6675H1038.44ZM1051.98 68.6675V54.122H1061.44V56.3308H1054.61V60.2797H1060.95V62.4885H1054.61V66.4587H1061.5V68.6675H1051.98ZM1064.13 68.6675V54.122H1069.58C1070.7 54.122 1071.64 54.3304 1072.4 54.747C1073.16 55.1637 1073.73 55.7366 1074.12 56.4658C1074.51 57.1902 1074.71 58.0141 1074.71 58.9374C1074.71 59.8701 1074.51 60.6987 1074.12 61.4232C1073.73 62.1476 1073.15 62.7181 1072.38 63.1348C1071.61 63.5467 1070.67 63.7527 1069.55 63.7527H1065.93V61.5865H1069.19C1069.85 61.5865 1070.38 61.4729 1070.8 61.2456C1071.21 61.0183 1071.52 60.7058 1071.72 60.3081C1071.92 59.9104 1072.03 59.4535 1072.03 58.9374C1072.03 58.4213 1071.92 57.9667 1071.72 57.5737C1071.52 57.1807 1071.21 56.8753 1070.79 56.6575C1070.37 56.435 1069.84 56.3237 1069.18 56.3237H1066.76V68.6675H1064.13ZM1084.9 58.1206C1084.84 57.5003 1084.56 57.0174 1084.07 56.6717C1083.58 56.3261 1082.94 56.1533 1082.16 56.1533C1081.61 56.1533 1081.14 56.2361 1080.75 56.4019C1080.36 56.5676 1080.06 56.7925 1079.85 57.0766C1079.64 57.3607 1079.53 57.685 1079.53 58.0496C1079.53 58.3526 1079.6 58.6154 1079.73 58.8379C1079.88 59.0605 1080.07 59.2499 1080.31 59.4061C1080.55 59.5576 1080.82 59.6855 1081.11 59.7896C1081.4 59.8938 1081.7 59.9814 1082 60.0524L1083.36 60.3933C1083.91 60.5212 1084.44 60.694 1084.95 60.9118C1085.46 61.1296 1085.91 61.4042 1086.32 61.7357C1086.72 62.0671 1087.05 62.4672 1087.28 62.9359C1087.52 63.4047 1087.64 63.9539 1087.64 64.5837C1087.64 65.4359 1087.42 66.1864 1086.98 66.8351C1086.55 67.479 1085.92 67.9833 1085.1 68.3479C1084.28 68.7077 1083.28 68.8877 1082.12 68.8877C1080.99 68.8877 1080.01 68.7125 1079.17 68.3621C1078.34 68.0117 1077.7 67.5003 1077.23 66.828C1076.76 66.1556 1076.51 65.3365 1076.47 64.3706H1079.07C1079.1 64.8772 1079.26 65.2986 1079.53 65.6348C1079.81 65.971 1080.17 66.2219 1080.61 66.3877C1081.05 66.5534 1081.55 66.6362 1082.1 66.6362C1082.67 66.6362 1083.17 66.551 1083.6 66.3805C1084.04 66.2054 1084.38 65.9639 1084.63 65.6561C1084.87 65.3436 1085 64.979 1085 64.5624C1085 64.1836 1084.89 63.8711 1084.67 63.6249C1084.45 63.3739 1084.15 63.1656 1083.75 62.9999C1083.37 62.8294 1082.91 62.6779 1082.39 62.5453L1080.73 62.1192C1079.54 61.8114 1078.59 61.345 1077.89 60.72C1077.2 60.0903 1076.86 59.2546 1076.86 58.2129C1076.86 57.3559 1077.09 56.6055 1077.55 55.9615C1078.02 55.3176 1078.66 54.818 1079.46 54.4629C1080.27 54.1031 1081.18 53.9232 1082.2 53.9232C1083.23 53.9232 1084.13 54.1031 1084.91 54.4629C1085.69 54.818 1086.31 55.3128 1086.75 55.9473C1087.2 56.577 1087.43 57.3015 1087.44 58.1206H1084.9ZM1089.99 68.6675V54.122H1099.45V56.3308H1092.62V60.2797H1098.96V62.4885H1092.62V66.4587H1099.5V68.6675H1089.99ZM1102.14 68.6675V54.122H1104.77V60.8053H1104.95L1110.62 54.122H1113.84L1108.22 60.649L1113.89 68.6675H1110.72L1106.38 62.4317L1104.77 64.3351V68.6675H1102.14Z" fill="#7B7474"/>
<path d="M1181.9 57.6675V44.5766H1186.81C1187.82 44.5766 1188.66 44.7513 1189.34 45.1007C1190.03 45.4502 1190.55 45.9402 1190.89 46.5709C1191.25 47.1973 1191.43 47.9281 1191.43 48.7634C1191.43 49.6028 1191.25 50.3315 1190.89 50.9494C1190.53 51.5631 1190.01 52.0382 1189.32 52.3749C1188.63 52.7073 1187.78 52.8734 1186.78 52.8734H1183.28V50.9047H1186.46C1187.05 50.9047 1187.53 50.8237 1187.9 50.6618C1188.28 50.4956 1188.56 50.2548 1188.73 49.9395C1188.92 49.6199 1189.01 49.2278 1189.01 48.7634C1189.01 48.2989 1188.92 47.9026 1188.73 47.5744C1188.55 47.2421 1188.27 46.9906 1187.9 46.8202C1187.52 46.6455 1187.04 46.5581 1186.45 46.5581H1184.27V57.6675H1181.9ZM1188.66 51.7357L1191.9 57.6675H1189.26L1186.08 51.7357H1188.66ZM1194.93 57.8081C1194.54 57.8081 1194.21 57.6717 1193.93 57.399C1193.66 57.1263 1193.52 56.7939 1193.52 56.4019C1193.52 56.0183 1193.66 55.6902 1193.93 55.4175C1194.21 55.1448 1194.54 55.0084 1194.93 55.0084C1195.31 55.0084 1195.63 55.1448 1195.91 55.4175C1196.19 55.6902 1196.33 56.0183 1196.34 56.4019C1196.33 56.6618 1196.27 56.8983 1196.13 57.1114C1196.01 57.3244 1195.83 57.4949 1195.62 57.6227C1195.41 57.7463 1195.18 57.8081 1194.93 57.8081ZM1183.58 79.6675H1181.05L1185.66 66.5766H1188.59L1193.2 79.6675H1190.67L1187.17 69.2612H1187.07L1183.58 79.6675ZM1183.67 74.5347H1190.57V76.4395H1183.67V74.5347ZM1194.93 79.6675V66.5766H1199.84C1200.84 66.5766 1201.68 66.7513 1202.37 67.1007C1203.05 67.4502 1203.57 67.9402 1203.92 68.5709C1204.27 69.1973 1204.45 69.9281 1204.45 70.7634C1204.45 71.6028 1204.27 72.3315 1203.91 72.9494C1203.56 73.5631 1203.04 74.0382 1202.35 74.3749C1201.66 74.7073 1200.81 74.8734 1199.8 74.8734H1196.31V72.9047H1199.48C1200.07 72.9047 1200.55 72.8237 1200.93 72.6618C1201.3 72.4956 1201.58 72.2548 1201.76 71.9395C1201.94 71.6199 1202.03 71.2278 1202.03 70.7634C1202.03 70.2989 1201.94 69.9026 1201.76 69.5744C1201.58 69.2421 1201.3 68.9906 1200.92 68.8202C1200.55 68.6455 1200.06 68.5581 1199.47 68.5581H1197.3V79.6675H1194.93ZM1201.69 73.7357L1204.93 79.6675H1202.28L1199.1 73.7357H1201.69ZM1213.75 70.1753C1213.69 69.6171 1213.44 69.1824 1212.99 68.8713C1212.55 68.5602 1211.98 68.4047 1211.28 68.4047C1210.79 68.4047 1210.36 68.4793 1210.01 68.6284C1209.65 68.7776 1209.38 68.98 1209.2 69.2357C1209.01 69.4913 1208.91 69.7832 1208.91 70.1114C1208.91 70.3841 1208.97 70.6206 1209.09 70.8209C1209.22 71.0212 1209.39 71.1916 1209.61 71.3323C1209.83 71.4686 1210.07 71.5837 1210.33 71.6774C1210.6 71.7712 1210.87 71.85 1211.13 71.9139L1212.36 72.2207C1212.86 72.3358 1213.33 72.4913 1213.79 72.6874C1214.25 72.8834 1214.66 73.1305 1215.02 73.4288C1215.39 73.7271 1215.68 74.0872 1215.89 74.5091C1216.1 74.931 1216.21 75.4253 1216.21 75.9921C1216.21 76.7591 1216.01 77.4345 1215.62 78.0183C1215.23 78.5979 1214.66 79.0517 1213.92 79.3798C1213.18 79.7037 1212.29 79.8656 1211.24 79.8656C1210.22 79.8656 1209.34 79.708 1208.59 79.3926C1207.84 79.0773 1207.26 78.6171 1206.84 78.0119C1206.42 77.4068 1206.19 76.6696 1206.16 75.8003H1208.49C1208.53 76.2563 1208.67 76.6355 1208.92 76.9381C1209.16 77.2406 1209.48 77.4665 1209.88 77.6156C1210.28 77.7648 1210.73 77.8394 1211.22 77.8394C1211.74 77.8394 1212.19 77.7627 1212.58 77.6092C1212.97 77.4516 1213.28 77.2342 1213.5 76.9573C1213.72 76.676 1213.83 76.3479 1213.84 75.9729C1213.83 75.632 1213.73 75.3507 1213.54 75.1291C1213.34 74.9033 1213.07 74.7158 1212.71 74.5666C1212.36 74.4132 1211.95 74.2769 1211.49 74.1575L1210 73.774C1208.92 73.497 1208.07 73.0773 1207.44 72.5148C1206.82 71.948 1206.51 71.1959 1206.51 70.2584C1206.51 69.4871 1206.71 68.8117 1207.13 68.2321C1207.55 67.6526 1208.13 67.203 1208.85 66.8834C1209.58 66.5595 1210.4 66.3976 1211.31 66.3976C1212.24 66.3976 1213.06 66.5595 1213.75 66.8834C1214.46 67.203 1215.01 67.6483 1215.41 68.2193C1215.81 68.7861 1216.02 69.4381 1216.03 70.1753H1213.75ZM1220.69 66.5766V79.6675H1218.32V66.5766H1220.69ZM1223.26 79.6675V66.5766H1228.17C1229.18 66.5766 1230.02 66.7641 1230.7 67.1391C1231.39 67.5141 1231.91 68.0297 1232.26 68.6859C1232.61 69.3379 1232.79 70.0794 1232.79 70.9104C1232.79 71.7499 1232.61 72.4956 1232.26 73.1476C1231.9 73.7996 1231.38 74.3131 1230.69 74.6881C1230 75.0588 1229.15 75.2442 1228.14 75.2442H1224.89V73.2946H1227.82C1228.41 73.2946 1228.89 73.1923 1229.26 72.9878C1229.64 72.7832 1229.92 72.502 1230.1 72.144C1230.28 71.7861 1230.37 71.3749 1230.37 70.9104C1230.37 70.4459 1230.28 70.0368 1230.1 69.6831C1229.92 69.3294 1229.64 69.0546 1229.26 68.8585C1228.88 68.6582 1228.4 68.5581 1227.81 68.5581H1225.63V79.6675H1223.26Z" fill="#7B7474"/>
<path d="M544.77 218.342V203.796H550.225C551.342 203.796 552.28 203.99 553.037 204.379C553.799 204.767 554.375 205.311 554.763 206.012C555.156 206.708 555.352 207.52 555.352 208.448C555.352 209.381 555.154 210.191 554.756 210.877C554.363 211.559 553.783 212.087 553.016 212.461C552.249 212.83 551.307 213.015 550.189 213.015H546.304V210.828H549.834C550.487 210.828 551.022 210.738 551.439 210.558C551.856 210.373 552.164 210.106 552.362 209.755C552.566 209.4 552.668 208.964 552.668 208.448C552.668 207.932 552.566 207.492 552.362 207.127C552.159 206.758 551.849 206.479 551.432 206.289C551.015 206.095 550.478 205.998 549.82 205.998H547.405V218.342H544.77ZM552.284 211.751L555.885 218.342H552.945L549.408 211.751H552.284ZM559.248 218.498C558.817 218.498 558.448 218.347 558.14 218.044C557.832 217.74 557.681 217.371 557.686 216.936C557.681 216.509 557.832 216.145 558.14 215.842C558.448 215.539 558.817 215.387 559.248 215.387C559.665 215.387 560.027 215.539 560.335 215.842C560.647 216.145 560.806 216.509 560.811 216.936C560.806 217.224 560.73 217.487 560.583 217.724C560.441 217.961 560.252 218.15 560.015 218.292C559.783 218.429 559.527 218.498 559.248 218.498ZM573.019 218.342H568.09V203.796H573.119C574.563 203.796 575.803 204.088 576.84 204.67C577.882 205.248 578.682 206.079 579.241 207.163C579.8 208.247 580.079 209.544 580.079 211.055C580.079 212.57 579.797 213.872 579.234 214.961C578.675 216.05 577.868 216.886 576.812 217.468C575.761 218.051 574.497 218.342 573.019 218.342ZM570.725 216.062H572.892C573.905 216.062 574.75 215.877 575.427 215.508C576.104 215.134 576.613 214.578 576.954 213.839C577.295 213.096 577.465 212.168 577.465 211.055C577.465 209.942 577.295 209.019 576.954 208.285C576.613 207.546 576.109 206.995 575.441 206.63C574.778 206.261 573.955 206.076 572.97 206.076H570.725V216.062ZM582.583 218.342V203.796H592.043V206.005H585.218V209.954H591.553V212.163H585.218V216.133H592.1V218.342H582.583ZM597.792 218.342L593.687 203.796H596.521L599.142 214.485H599.277L602.075 203.796H604.653L607.458 214.492H607.586L610.207 203.796H613.041L608.936 218.342H606.336L603.424 208.136H603.311L600.392 218.342H597.792ZM615.368 218.342H612.556L617.677 203.796H620.93L626.057 218.342H623.245L619.36 206.779H619.246L615.368 218.342ZM615.461 212.639H623.131V214.755H615.461V212.639ZM639.926 203.796V218.342H637.583L630.729 208.434H630.608V218.342H627.973V203.796H630.331L637.178 213.711H637.306V203.796H639.926ZM657.503 208.441C657.384 208.058 657.221 207.714 657.013 207.411C656.809 207.104 656.563 206.841 656.274 206.623C655.99 206.405 655.663 206.242 655.294 206.133C654.925 206.019 654.522 205.963 654.087 205.963C653.305 205.963 652.609 206.159 651.998 206.552C651.388 206.945 650.907 207.523 650.557 208.285C650.211 209.043 650.038 209.966 650.038 211.055C650.038 212.153 650.211 213.084 650.557 213.846C650.902 214.608 651.383 215.188 651.998 215.586C652.614 215.979 653.329 216.176 654.143 216.176C654.882 216.176 655.521 216.034 656.061 215.749C656.605 215.465 657.024 215.063 657.318 214.542C657.612 214.017 657.758 213.401 657.758 212.695L658.355 212.788H654.406V210.728H660.308V212.475C660.308 213.721 660.043 214.798 659.513 215.707C658.982 216.616 658.253 217.317 657.325 217.809C656.397 218.297 655.332 218.541 654.129 218.541C652.789 218.541 651.613 218.24 650.599 217.639C649.591 217.033 648.802 216.173 648.234 215.061C647.671 213.943 647.389 212.617 647.389 211.083C647.389 209.909 647.555 208.86 647.886 207.937C648.222 207.014 648.691 206.23 649.292 205.586C649.894 204.937 650.599 204.445 651.409 204.109C652.219 203.768 653.099 203.597 654.051 203.597C654.856 203.597 655.606 203.716 656.302 203.953C656.998 204.185 657.616 204.516 658.156 204.947C658.701 205.378 659.148 205.889 659.498 206.481C659.849 207.073 660.078 207.726 660.187 208.441H657.503ZM672.025 203.796H674.66V213.299C674.66 214.341 674.414 215.257 673.921 216.048C673.434 216.838 672.747 217.456 671.862 217.901C670.976 218.342 669.942 218.562 668.758 218.562C667.57 218.562 666.533 218.342 665.647 217.901C664.762 217.456 664.075 216.838 663.588 216.048C663.1 215.257 662.856 214.341 662.856 213.299V203.796H665.491V213.079C665.491 213.685 665.624 214.225 665.889 214.698C666.159 215.172 666.537 215.544 667.025 215.813C667.513 216.079 668.09 216.211 668.758 216.211C669.426 216.211 670.003 216.079 670.491 215.813C670.983 215.544 671.362 215.172 671.627 214.698C671.893 214.225 672.025 213.685 672.025 213.079V203.796ZM677.524 218.342V203.796H682.979C684.096 203.796 685.033 203.99 685.791 204.379C686.553 204.767 687.129 205.311 687.517 206.012C687.91 206.708 688.106 207.52 688.106 208.448C688.106 209.381 687.908 210.191 687.51 210.877C687.117 211.559 686.537 212.087 685.77 212.461C685.003 212.83 684.06 213.015 682.943 213.015H679.058V210.828H682.588C683.241 210.828 683.776 210.738 684.193 210.558C684.61 210.373 684.917 210.106 685.116 209.755C685.32 209.4 685.422 208.964 685.422 208.448C685.422 207.932 685.32 207.492 685.116 207.127C684.913 206.758 684.603 206.479 684.186 206.289C683.769 206.095 683.232 205.998 682.574 205.998H680.159V218.342H677.524ZM685.038 211.751L688.639 218.342H685.699L682.162 211.751H685.038ZM699.701 203.796H702.336V213.299C702.336 214.341 702.09 215.257 701.597 216.048C701.109 216.838 700.423 217.456 699.538 217.901C698.652 218.342 697.618 218.562 696.434 218.562C695.245 218.562 694.208 218.342 693.323 217.901C692.438 217.456 691.751 216.838 691.263 216.048C690.776 215.257 690.532 214.341 690.532 213.299V203.796H693.167V213.079C693.167 213.685 693.299 214.225 693.564 214.698C693.834 215.172 694.213 215.544 694.701 215.813C695.189 216.079 695.766 216.211 696.434 216.211C697.101 216.211 697.679 216.079 698.167 215.813C698.659 215.544 699.038 215.172 699.303 214.698C699.568 214.225 699.701 213.685 699.701 213.079V203.796Z" fill="#7B7474"/>
<path d="M223.925 256.869H226.56V266.371C226.56 267.413 226.314 268.329 225.822 269.12C225.334 269.911 224.648 270.529 223.762 270.974C222.877 271.414 221.842 271.634 220.658 271.634C219.47 271.634 218.433 271.414 217.548 270.974C216.662 270.529 215.976 269.911 215.488 269.12C215 268.329 214.756 267.413 214.756 266.371V256.869H217.391V266.151C217.391 266.757 217.524 267.297 217.789 267.771C218.059 268.244 218.438 268.616 218.925 268.886C219.413 269.151 219.991 269.283 220.658 269.283C221.326 269.283 221.904 269.151 222.391 268.886C222.884 268.616 223.263 268.244 223.528 267.771C223.793 267.297 223.925 266.757 223.925 266.151V256.869ZM229.424 271.414V256.869H232.059V263.552H232.237L237.912 256.869H241.129L235.504 263.396L241.179 271.414H238.011L233.672 265.178L232.059 267.082V271.414H229.424ZM250.786 260.867C250.72 260.247 250.441 259.764 249.948 259.418C249.461 259.073 248.826 258.9 248.045 258.9C247.496 258.9 247.024 258.983 246.631 259.148C246.238 259.314 245.938 259.539 245.729 259.823C245.521 260.107 245.415 260.432 245.41 260.796C245.41 261.099 245.479 261.362 245.616 261.585C245.758 261.807 245.95 261.996 246.191 262.153C246.433 262.304 246.7 262.432 246.994 262.536C247.287 262.64 247.583 262.728 247.881 262.799L249.245 263.14C249.794 263.268 250.322 263.441 250.829 263.658C251.34 263.876 251.797 264.151 252.2 264.482C252.607 264.814 252.929 265.214 253.166 265.683C253.402 266.151 253.521 266.701 253.521 267.33C253.521 268.183 253.303 268.933 252.867 269.582C252.432 270.226 251.802 270.73 250.978 271.094C250.159 271.454 249.167 271.634 248.002 271.634C246.871 271.634 245.888 271.459 245.055 271.109C244.226 270.758 243.577 270.247 243.109 269.575C242.645 268.902 242.394 268.083 242.356 267.117H244.948C244.986 267.624 245.142 268.045 245.417 268.381C245.692 268.718 246.049 268.969 246.489 269.134C246.934 269.3 247.432 269.383 247.981 269.383C248.554 269.383 249.056 269.298 249.487 269.127C249.922 268.952 250.263 268.71 250.509 268.403C250.755 268.09 250.881 267.726 250.886 267.309C250.881 266.93 250.77 266.618 250.552 266.371C250.334 266.121 250.029 265.912 249.636 265.746C249.247 265.576 248.793 265.424 248.272 265.292L246.617 264.866C245.419 264.558 244.472 264.092 243.776 263.467C243.085 262.837 242.739 262.001 242.739 260.96C242.739 260.103 242.971 259.352 243.435 258.708C243.904 258.064 244.541 257.565 245.346 257.21C246.151 256.85 247.062 256.67 248.08 256.67C249.112 256.67 250.017 256.85 250.793 257.21C251.575 257.565 252.188 258.059 252.633 258.694C253.078 259.324 253.308 260.048 253.322 260.867H250.786Z" fill="#7B7474"/>
<path d="M223.925 158.096H226.56V167.599C226.56 168.641 226.314 169.557 225.822 170.348C225.334 171.138 224.648 171.756 223.762 172.201C222.877 172.642 221.842 172.862 220.658 172.862C219.47 172.862 218.433 172.642 217.548 172.201C216.662 171.756 215.976 171.138 215.488 170.348C215 169.557 214.756 168.641 214.756 167.599V158.096H217.391V167.379C217.391 167.985 217.524 168.525 217.789 168.998C218.059 169.472 218.438 169.843 218.925 170.113C219.413 170.378 219.991 170.511 220.658 170.511C221.326 170.511 221.904 170.378 222.391 170.113C222.884 169.843 223.263 169.472 223.528 168.998C223.793 168.525 223.925 167.985 223.925 167.379V158.096ZM229.424 172.642V158.096H232.059V164.779H232.237L237.912 158.096H241.129L235.504 164.623L241.179 172.642H238.011L233.672 166.406L232.059 168.309V172.642H229.424ZM250.786 162.095C250.72 161.474 250.441 160.992 249.948 160.646C249.461 160.3 248.826 160.127 248.045 160.127C247.496 160.127 247.024 160.21 246.631 160.376C246.238 160.542 245.938 160.767 245.729 161.051C245.521 161.335 245.415 161.659 245.41 162.024C245.41 162.327 245.479 162.59 245.616 162.812C245.758 163.035 245.95 163.224 246.191 163.38C246.433 163.532 246.7 163.66 246.994 163.764C247.287 163.868 247.583 163.956 247.881 164.027L249.245 164.367C249.794 164.495 250.322 164.668 250.829 164.886C251.34 165.104 251.797 165.378 252.2 165.71C252.607 166.041 252.929 166.441 253.166 166.91C253.402 167.379 253.521 167.928 253.521 168.558C253.521 169.41 253.303 170.161 252.867 170.809C252.432 171.453 251.802 171.957 250.978 172.322C250.159 172.682 249.167 172.862 248.002 172.862C246.871 172.862 245.888 172.687 245.055 172.336C244.226 171.986 243.577 171.474 243.109 170.802C242.645 170.13 242.394 169.311 242.356 168.345H244.948C244.986 168.851 245.142 169.273 245.417 169.609C245.692 169.945 246.049 170.196 246.489 170.362C246.934 170.527 247.432 170.61 247.981 170.61C248.554 170.61 249.056 170.525 249.487 170.355C249.922 170.179 250.263 169.938 250.509 169.63C250.755 169.318 250.881 168.953 250.886 168.536C250.881 168.158 250.77 167.845 250.552 167.599C250.334 167.348 250.029 167.14 249.636 166.974C249.247 166.804 248.793 166.652 248.272 166.519L246.617 166.093C245.419 165.786 244.472 165.319 243.776 164.694C243.085 164.064 242.739 163.229 242.739 162.187C242.739 161.33 242.971 160.58 243.435 159.936C243.904 159.292 244.541 158.792 245.346 158.437C246.151 158.077 247.062 157.897 248.08 157.897C249.112 157.897 250.017 158.077 250.793 158.437C251.575 158.792 252.188 159.287 252.633 159.921C253.078 160.551 253.308 161.276 253.322 162.095H250.786Z" fill="#7B7474"/>
<path d="M1144.98 195.33V180.784H1150.44C1151.56 180.784 1152.49 180.978 1153.25 181.367C1154.01 181.755 1154.59 182.299 1154.98 183C1155.37 183.696 1155.57 184.508 1155.57 185.436C1155.57 186.369 1155.37 187.179 1154.97 187.865C1154.58 188.547 1154 189.075 1153.23 189.449C1152.46 189.818 1151.52 190.003 1150.4 190.003H1146.52V187.815H1150.05C1150.7 187.815 1151.24 187.725 1151.65 187.545C1152.07 187.361 1152.38 187.093 1152.58 186.743C1152.78 186.388 1152.88 185.952 1152.88 185.436C1152.88 184.92 1152.78 184.48 1152.58 184.115C1152.37 183.746 1152.06 183.466 1151.65 183.277C1151.23 183.083 1150.69 182.986 1150.03 182.986H1147.62V195.33H1144.98ZM1152.5 188.739L1156.1 195.33H1153.16L1149.62 188.739H1152.5ZM1159.46 195.486C1159.03 195.486 1158.66 195.334 1158.35 195.031C1158.05 194.728 1157.89 194.359 1157.9 193.923C1157.89 193.497 1158.05 193.133 1158.35 192.83C1158.66 192.527 1159.03 192.375 1159.46 192.375C1159.88 192.375 1160.24 192.527 1160.55 192.83C1160.86 193.133 1161.02 193.497 1161.02 193.923C1161.02 194.212 1160.94 194.475 1160.8 194.712C1160.66 194.948 1160.47 195.138 1160.23 195.28C1160 195.417 1159.74 195.486 1159.46 195.486ZM1167.67 182.993V180.784H1179.27V182.993H1174.77V195.33H1172.16V182.993H1167.67ZM1190.68 180.784H1193.31V190.287C1193.31 191.329 1193.07 192.245 1192.57 193.036C1192.09 193.826 1191.4 194.444 1190.51 194.889C1189.63 195.33 1188.59 195.55 1187.41 195.55C1186.22 195.55 1185.18 195.33 1184.3 194.889C1183.41 194.444 1182.73 193.826 1182.24 193.036C1181.75 192.245 1181.51 191.329 1181.51 190.287V180.784H1184.14V190.067C1184.14 190.673 1184.27 191.213 1184.54 191.686C1184.81 192.16 1185.19 192.531 1185.68 192.801C1186.16 193.066 1186.74 193.199 1187.41 193.199C1188.08 193.199 1188.65 193.066 1189.14 192.801C1189.63 192.531 1190.01 192.16 1190.28 191.686C1190.54 191.213 1190.68 190.673 1190.68 190.067V180.784Z" fill="#7B7474"/>
<path d="M1145.79 292.786V278.241H1151.25C1152.36 278.241 1153.3 278.435 1154.06 278.823C1154.82 279.211 1155.4 279.756 1155.79 280.457C1156.18 281.153 1156.37 281.965 1156.37 282.893C1156.37 283.825 1156.18 284.635 1155.78 285.322C1155.39 286.003 1154.81 286.531 1154.04 286.905C1153.27 287.275 1152.33 287.459 1151.21 287.459H1147.33V285.272H1150.86C1151.51 285.272 1152.04 285.182 1152.46 285.002C1152.88 284.817 1153.19 284.55 1153.38 284.199C1153.59 283.844 1153.69 283.409 1153.69 282.893C1153.69 282.377 1153.59 281.936 1153.38 281.572C1153.18 281.202 1152.87 280.923 1152.45 280.734C1152.04 280.539 1151.5 280.442 1150.84 280.442H1148.43V292.786H1145.79ZM1153.31 286.195L1156.91 292.786H1153.97L1150.43 286.195H1153.31ZM1160.27 292.942C1159.84 292.942 1159.47 292.791 1159.16 292.488C1158.85 292.185 1158.7 291.815 1158.71 291.38C1158.7 290.954 1158.85 290.589 1159.16 290.286C1159.47 289.983 1159.84 289.832 1160.27 289.832C1160.69 289.832 1161.05 289.983 1161.36 290.286C1161.67 290.589 1161.83 290.954 1161.83 291.38C1161.83 291.669 1161.75 291.931 1161.61 292.168C1161.46 292.405 1161.27 292.594 1161.04 292.736C1160.81 292.874 1160.55 292.942 1160.27 292.942ZM1169.11 292.786V278.241H1171.75V284.924H1171.93L1177.6 278.241H1180.82L1175.19 284.768L1180.87 292.786H1177.7L1173.36 286.55L1171.75 288.454V292.786H1169.11ZM1182.65 292.786V278.241H1192.11V280.449H1185.28V284.398H1191.62V286.607H1185.28V290.577H1192.17V292.786H1182.65ZM1203.97 278.241H1206.6V287.744C1206.6 288.785 1206.35 289.701 1205.86 290.492C1205.37 291.283 1204.69 291.901 1203.8 292.346C1202.92 292.786 1201.88 293.006 1200.7 293.006C1199.51 293.006 1198.47 292.786 1197.59 292.346C1196.7 291.901 1196.02 291.283 1195.53 290.492C1195.04 289.701 1194.8 288.785 1194.8 287.744V278.241H1197.43V287.523C1197.43 288.129 1197.56 288.669 1197.83 289.143C1198.1 289.616 1198.48 289.988 1198.97 290.258C1199.45 290.523 1200.03 290.655 1200.7 290.655C1201.37 290.655 1201.94 290.523 1202.43 290.258C1202.92 289.988 1203.3 289.616 1203.57 289.143C1203.83 288.669 1203.97 288.129 1203.97 287.523V278.241Z" fill="#7B7474"/>
<path d="M73.2155 105.284L69.1104 90.7387H71.9442L74.5649 101.428H74.6998L77.4981 90.7387H80.0763L82.8817 101.435H83.0095L85.6302 90.7387H88.464L84.3589 105.284H81.7595L78.8476 95.0782H78.7339L75.8149 105.284H73.2155ZM101.96 95.6464H99.3039C99.2281 95.2108 99.0885 94.8249 98.8849 94.4887C98.6813 94.1478 98.4279 93.859 98.1249 93.6222C97.8219 93.3855 97.4762 93.2079 97.088 93.0896C96.7045 92.9665 96.2902 92.9049 95.8451 92.9049C95.0544 92.9049 94.3536 93.1038 93.7428 93.5015C93.132 93.8945 92.6538 94.4722 92.3081 95.2345C91.9625 95.992 91.7897 96.9177 91.7897 98.0115C91.7897 99.1241 91.9625 100.062 92.3081 100.824C92.6585 101.582 93.1367 102.154 93.7428 102.543C94.3536 102.926 95.052 103.118 95.838 103.118C96.2736 103.118 96.6808 103.061 97.0596 102.948C97.4431 102.829 97.7864 102.656 98.0894 102.429C98.3972 102.202 98.6552 101.922 98.8635 101.591C99.0766 101.26 99.2234 100.881 99.3039 100.455L101.96 100.469C101.861 101.16 101.645 101.809 101.314 102.415C100.987 103.021 100.559 103.556 100.028 104.02C99.498 104.479 98.8778 104.839 98.1675 105.1C97.4573 105.355 96.6689 105.483 95.8025 105.483C94.5241 105.483 93.383 105.187 92.3792 104.595C91.3754 104.003 90.5847 103.149 90.007 102.031C89.4294 100.914 89.1405 99.574 89.1405 98.0115C89.1405 96.4442 89.4317 95.1043 90.0141 93.9916C90.5965 92.8741 91.3896 92.0195 92.3934 91.4276C93.3972 90.8358 94.5335 90.5399 95.8025 90.5399C96.6121 90.5399 97.365 90.6535 98.061 90.8808C98.757 91.108 99.3773 91.4419 99.9218 91.8822C100.466 92.3178 100.914 92.8528 101.264 93.4873C101.619 94.117 101.851 94.8367 101.96 95.6464Z" fill="#7B7474"/>
<path d="M1589.51 171.33V156.784H1594.96C1596.08 156.784 1597.02 156.978 1597.78 157.367C1598.54 157.755 1599.11 158.299 1599.5 159C1599.89 159.696 1600.09 160.508 1600.09 161.436C1600.09 162.369 1599.89 163.179 1599.49 163.865C1599.1 164.547 1598.52 165.075 1597.75 165.449C1596.99 165.818 1596.05 166.003 1594.93 166.003H1591.04V163.815H1594.57C1595.23 163.815 1595.76 163.725 1596.18 163.545C1596.59 163.361 1596.9 163.093 1597.1 162.743C1597.3 162.388 1597.41 161.952 1597.41 161.436C1597.41 160.92 1597.3 160.48 1597.1 160.115C1596.9 159.746 1596.59 159.466 1596.17 159.277C1595.75 159.083 1595.22 158.986 1594.56 158.986H1592.14V171.33H1589.51ZM1597.02 164.739L1600.62 171.33H1597.68L1594.15 164.739H1597.02ZM1603.99 171.486C1603.56 171.486 1603.19 171.334 1602.88 171.031C1602.57 170.728 1602.42 170.359 1602.42 169.923C1602.42 169.497 1602.57 169.133 1602.88 168.83C1603.19 168.527 1603.56 168.375 1603.99 168.375C1604.4 168.375 1604.77 168.527 1605.07 168.83C1605.39 169.133 1605.54 169.497 1605.55 169.923C1605.54 170.212 1605.47 170.475 1605.32 170.712C1605.18 170.948 1604.99 171.138 1604.75 171.28C1604.52 171.417 1604.27 171.486 1603.99 171.486ZM1622 156.784H1624.63V166.287C1624.63 167.329 1624.39 168.245 1623.89 169.036C1623.41 169.826 1622.72 170.444 1621.83 170.889C1620.95 171.33 1619.91 171.55 1618.73 171.55C1617.54 171.55 1616.51 171.33 1615.62 170.889C1614.73 170.444 1614.05 169.826 1613.56 169.036C1613.07 168.245 1612.83 167.329 1612.83 166.287V156.784H1615.46V166.067C1615.46 166.673 1615.6 167.213 1615.86 167.686C1616.13 168.16 1616.51 168.531 1617 168.801C1617.49 169.066 1618.06 169.199 1618.73 169.199C1619.4 169.199 1619.98 169.066 1620.46 168.801C1620.96 168.531 1621.34 168.16 1621.6 167.686C1621.87 167.213 1622 166.673 1622 166.067V156.784ZM1639.45 156.784V171.33H1637.11L1630.25 161.422H1630.13V171.33H1627.5V156.784H1629.86L1636.7 166.699H1636.83V156.784H1639.45ZM1644.96 156.784V171.33H1642.32V156.784H1644.96ZM1647.17 158.993V156.784H1658.78V158.993H1654.28V171.33H1651.67V158.993H1647.17ZM1665.97 171.33V156.784H1671.43C1672.55 156.784 1673.48 156.992 1674.24 157.409C1675 157.826 1675.58 158.399 1675.97 159.128C1676.36 159.852 1676.56 160.676 1676.56 161.599C1676.56 162.532 1676.36 163.361 1675.97 164.085C1675.57 164.81 1674.99 165.38 1674.23 165.797C1673.46 166.209 1672.51 166.415 1671.39 166.415H1667.78V164.249H1671.04C1671.69 164.249 1672.23 164.135 1672.64 163.908C1673.06 163.68 1673.37 163.368 1673.57 162.97C1673.77 162.572 1673.87 162.116 1673.87 161.599C1673.87 161.083 1673.77 160.629 1673.57 160.236C1673.37 159.843 1673.06 159.537 1672.64 159.32C1672.22 159.097 1671.68 158.986 1671.02 158.986H1668.61V171.33H1665.97ZM1678.84 171.33V156.784H1684.3C1685.42 156.784 1686.35 156.978 1687.11 157.367C1687.87 157.755 1688.45 158.299 1688.84 159C1689.23 159.696 1689.43 160.508 1689.43 161.436C1689.43 162.369 1689.23 163.179 1688.83 163.865C1688.44 164.547 1687.86 165.075 1687.09 165.449C1686.32 165.818 1685.38 166.003 1684.26 166.003H1680.38V163.815H1683.91C1684.56 163.815 1685.1 163.725 1685.51 163.545C1685.93 163.361 1686.24 163.093 1686.44 162.743C1686.64 162.388 1686.74 161.952 1686.74 161.436C1686.74 160.92 1686.64 160.48 1686.44 160.115C1686.23 159.746 1685.92 159.466 1685.51 159.277C1685.09 159.083 1684.55 158.986 1683.89 158.986H1681.48V171.33H1678.84ZM1686.36 164.739L1689.96 171.33H1687.02L1683.48 164.739H1686.36ZM1704.85 164.057C1704.85 165.624 1704.56 166.966 1703.97 168.084C1703.39 169.197 1702.59 170.049 1701.58 170.641C1700.58 171.233 1699.44 171.528 1698.17 171.528C1696.89 171.528 1695.75 171.233 1694.74 170.641C1693.74 170.044 1692.94 169.189 1692.36 168.077C1691.77 166.959 1691.48 165.619 1691.48 164.057C1691.48 162.49 1691.77 161.15 1692.36 160.037C1692.94 158.92 1693.74 158.065 1694.74 157.473C1695.75 156.881 1696.89 156.585 1698.17 156.585C1699.44 156.585 1700.58 156.881 1701.58 157.473C1702.59 158.065 1703.39 158.92 1703.97 160.037C1704.56 161.15 1704.85 162.49 1704.85 164.057ZM1702.2 164.057C1702.2 162.954 1702.03 162.023 1701.68 161.266C1701.34 160.503 1700.87 159.928 1700.26 159.54C1699.66 159.147 1698.96 158.95 1698.17 158.95C1697.38 158.95 1696.68 159.147 1696.07 159.54C1695.47 159.928 1694.99 160.503 1694.64 161.266C1694.3 162.023 1694.13 162.954 1694.13 164.057C1694.13 165.16 1694.3 166.093 1694.64 166.855C1694.99 167.613 1695.47 168.188 1696.07 168.581C1696.68 168.969 1697.38 169.163 1698.17 169.163C1698.96 169.163 1699.66 168.969 1700.26 168.581C1700.87 168.188 1701.34 167.613 1701.68 166.855C1702.03 166.093 1702.2 165.16 1702.2 164.057ZM1712.27 171.33H1707.34V156.784H1712.37C1713.81 156.784 1715.05 157.075 1716.09 157.658C1717.13 158.235 1717.93 159.066 1718.49 160.151C1719.05 161.235 1719.33 162.532 1719.33 164.043C1719.33 165.558 1719.05 166.86 1718.48 167.949C1717.93 169.038 1717.12 169.874 1716.06 170.456C1715.01 171.038 1713.75 171.33 1712.27 171.33ZM1709.98 169.05H1712.14C1713.16 169.05 1714 168.865 1714.68 168.496C1715.35 168.122 1715.86 167.565 1716.2 166.827C1716.55 166.083 1716.72 165.155 1716.72 164.043C1716.72 162.93 1716.55 162.007 1716.2 161.273C1715.86 160.534 1715.36 159.983 1714.69 159.618C1714.03 159.249 1713.21 159.064 1712.22 159.064H1709.98V169.05ZM1731 156.784H1733.64V166.287C1733.64 167.329 1733.39 168.245 1732.9 169.036C1732.41 169.826 1731.72 170.444 1730.84 170.889C1729.95 171.33 1728.92 171.55 1727.74 171.55C1726.55 171.55 1725.51 171.33 1724.62 170.889C1723.74 170.444 1723.05 169.826 1722.56 169.036C1722.08 168.245 1721.83 167.329 1721.83 166.287V156.784H1724.47V166.067C1724.47 166.673 1724.6 167.213 1724.87 167.686C1725.14 168.16 1725.51 168.531 1726 168.801C1726.49 169.066 1727.07 169.199 1727.74 169.199C1728.4 169.199 1728.98 169.066 1729.47 168.801C1729.96 168.531 1730.34 168.16 1730.6 167.686C1730.87 167.213 1731 166.673 1731 166.067V156.784ZM1736.5 171.33V156.784H1739.14V163.467H1739.31L1744.99 156.784H1748.21L1742.58 163.311L1748.26 171.33H1745.09L1740.75 165.094L1739.14 166.997V171.33H1736.5ZM1751.9 171.33H1749.09L1754.21 156.784H1757.47L1762.59 171.33H1759.78L1755.9 159.767H1755.78L1751.9 171.33ZM1752 165.626H1759.67V167.743H1752V165.626ZM1772.18 160.783C1772.11 160.162 1771.83 159.679 1771.34 159.334C1770.85 158.988 1770.22 158.815 1769.44 158.815C1768.89 158.815 1768.42 158.898 1768.02 159.064C1767.63 159.23 1767.33 159.455 1767.12 159.739C1766.91 160.023 1766.81 160.347 1766.8 160.712C1766.8 161.015 1766.87 161.278 1767.01 161.5C1767.15 161.723 1767.34 161.912 1767.58 162.068C1767.83 162.22 1768.09 162.348 1768.39 162.452C1768.68 162.556 1768.98 162.644 1769.27 162.715L1770.64 163.055C1771.19 163.183 1771.72 163.356 1772.22 163.574C1772.73 163.792 1773.19 164.066 1773.59 164.398C1774 164.729 1774.32 165.129 1774.56 165.598C1774.8 166.067 1774.91 166.616 1774.91 167.246C1774.91 168.098 1774.7 168.849 1774.26 169.497C1773.82 170.141 1773.19 170.645 1772.37 171.01C1771.55 171.37 1770.56 171.55 1769.4 171.55C1768.26 171.55 1767.28 171.375 1766.45 171.024C1765.62 170.674 1764.97 170.162 1764.5 169.49C1764.04 168.818 1763.79 167.999 1763.75 167.033H1766.34C1766.38 167.539 1766.54 167.961 1766.81 168.297C1767.08 168.633 1767.44 168.884 1767.88 169.05C1768.33 169.215 1768.82 169.298 1769.37 169.298C1769.95 169.298 1770.45 169.213 1770.88 169.043C1771.32 168.867 1771.66 168.626 1771.9 168.318C1772.15 168.006 1772.27 167.641 1772.28 167.224C1772.27 166.846 1772.16 166.533 1771.94 166.287C1771.73 166.036 1771.42 165.828 1771.03 165.662C1770.64 165.492 1770.19 165.34 1769.67 165.207L1768.01 164.781C1766.81 164.474 1765.87 164.007 1765.17 163.382C1764.48 162.752 1764.13 161.917 1764.13 160.875C1764.13 160.018 1764.36 159.268 1764.83 158.624C1765.3 157.98 1765.93 157.48 1766.74 157.125C1767.54 156.765 1768.46 156.585 1769.47 156.585C1770.51 156.585 1771.41 156.765 1772.19 157.125C1772.97 157.48 1773.58 157.975 1774.03 158.609C1774.47 159.239 1774.7 159.964 1774.71 160.783H1772.18ZM1779.9 156.784V171.33H1777.26V156.784H1779.9ZM1795.62 160.783C1795.55 160.162 1795.27 159.679 1794.78 159.334C1794.29 158.988 1793.66 158.815 1792.88 158.815C1792.33 158.815 1791.85 158.898 1791.46 159.064C1791.07 159.23 1790.77 159.455 1790.56 159.739C1790.35 160.023 1790.25 160.347 1790.24 160.712C1790.24 161.015 1790.31 161.278 1790.45 161.5C1790.59 161.723 1790.78 161.912 1791.02 162.068C1791.26 162.22 1791.53 162.348 1791.82 162.452C1792.12 162.556 1792.41 162.644 1792.71 162.715L1794.08 163.055C1794.62 163.183 1795.15 163.356 1795.66 163.574C1796.17 163.792 1796.63 164.066 1797.03 164.398C1797.44 164.729 1797.76 165.129 1798 165.598C1798.23 166.067 1798.35 166.616 1798.35 167.246C1798.35 168.098 1798.13 168.849 1797.7 169.497C1797.26 170.141 1796.63 170.645 1795.81 171.01C1794.99 171.37 1794 171.55 1792.83 171.55C1791.7 171.55 1790.72 171.375 1789.89 171.024C1789.06 170.674 1788.41 170.162 1787.94 169.49C1787.48 168.818 1787.22 167.999 1787.19 167.033H1789.78C1789.82 167.539 1789.97 167.961 1790.25 168.297C1790.52 168.633 1790.88 168.884 1791.32 169.05C1791.77 169.215 1792.26 169.298 1792.81 169.298C1793.38 169.298 1793.89 169.213 1794.32 169.043C1794.75 168.867 1795.09 168.626 1795.34 168.318C1795.59 168.006 1795.71 167.641 1795.72 167.224C1795.71 166.846 1795.6 166.533 1795.38 166.287C1795.16 166.036 1794.86 165.828 1794.47 165.662C1794.08 165.492 1793.62 165.34 1793.1 165.207L1791.45 164.781C1790.25 164.474 1789.3 164.007 1788.61 163.382C1787.92 162.752 1787.57 161.917 1787.57 160.875C1787.57 160.018 1787.8 159.268 1788.27 158.624C1788.73 157.98 1789.37 157.48 1790.18 157.125C1790.98 156.765 1791.89 156.585 1792.91 156.585C1793.94 156.585 1794.85 156.765 1795.62 157.125C1796.41 157.48 1797.02 157.975 1797.46 158.609C1797.91 159.239 1798.14 159.964 1798.15 160.783H1795.62ZM1800.7 156.784H1803.92L1808.24 167.324H1808.41L1812.73 156.784H1815.96V171.33H1813.43V161.337H1813.29L1809.27 171.287H1807.38L1803.36 161.315H1803.23V171.33H1800.7V156.784ZM1818.83 171.33V156.784H1821.46V163.467H1821.64L1827.31 156.784H1830.53L1824.9 163.311L1830.58 171.33H1827.41L1823.07 165.094L1821.46 166.997V171.33H1818.83Z" fill="#7B7474"/>
<path d="M1238.18 528.021V513.475H1240.81V525.812H1247.22V528.021H1238.18ZM1261.94 520.748C1261.94 522.315 1261.64 523.657 1261.06 524.775C1260.48 525.887 1259.68 526.74 1258.67 527.332C1257.67 527.923 1256.53 528.219 1255.25 528.219C1253.98 528.219 1252.84 527.923 1251.83 527.332C1250.83 526.735 1250.03 525.88 1249.45 524.768C1248.86 523.65 1248.57 522.31 1248.57 520.748C1248.57 519.181 1248.86 517.841 1249.45 516.728C1250.03 515.61 1250.83 514.756 1251.83 514.164C1252.84 513.572 1253.98 513.276 1255.25 513.276C1256.53 513.276 1257.67 513.572 1258.67 514.164C1259.68 514.756 1260.48 515.61 1261.06 516.728C1261.64 517.841 1261.94 519.181 1261.94 520.748ZM1259.29 520.748C1259.29 519.645 1259.12 518.714 1258.77 517.957C1258.43 517.194 1257.96 516.619 1257.35 516.231C1256.74 515.838 1256.05 515.641 1255.25 515.641C1254.46 515.641 1253.77 515.838 1253.16 516.231C1252.55 516.619 1252.08 517.194 1251.73 517.957C1251.39 518.714 1251.22 519.645 1251.22 520.748C1251.22 521.851 1251.39 522.784 1251.73 523.546C1252.08 524.304 1252.55 524.879 1253.16 525.272C1253.77 525.66 1254.46 525.854 1255.25 525.854C1256.05 525.854 1256.74 525.66 1257.35 525.272C1257.96 524.879 1258.43 524.304 1258.77 523.546C1259.12 522.784 1259.29 521.851 1259.29 520.748ZM1264.43 528.021V513.475H1270C1271.05 513.475 1271.92 513.641 1272.62 513.972C1273.32 514.299 1273.84 514.746 1274.19 515.315C1274.54 515.883 1274.71 516.527 1274.71 517.246C1274.71 517.838 1274.6 518.345 1274.37 518.766C1274.15 519.183 1273.84 519.521 1273.46 519.782C1273.07 520.042 1272.64 520.229 1272.17 520.343V520.485C1272.69 520.513 1273.18 520.672 1273.66 520.961C1274.13 521.245 1274.52 521.647 1274.83 522.168C1275.13 522.689 1275.28 523.319 1275.28 524.057C1275.28 524.81 1275.1 525.487 1274.73 526.089C1274.37 526.685 1273.82 527.156 1273.09 527.502C1272.35 527.848 1271.43 528.021 1270.32 528.021H1264.43ZM1267.06 525.819H1269.9C1270.85 525.819 1271.54 525.637 1271.96 525.272C1272.39 524.903 1272.6 524.429 1272.6 523.851C1272.6 523.421 1272.5 523.032 1272.28 522.687C1272.07 522.336 1271.77 522.062 1271.38 521.863C1270.98 521.659 1270.51 521.557 1269.97 521.557H1267.06V525.819ZM1267.06 519.661H1269.67C1270.13 519.661 1270.53 519.578 1270.9 519.413C1271.26 519.242 1271.55 519.003 1271.76 518.695C1271.97 518.383 1272.08 518.013 1272.08 517.587C1272.08 517.024 1271.88 516.56 1271.48 516.195C1271.09 515.831 1270.5 515.648 1269.73 515.648H1267.06V519.661ZM1277.57 528.021V513.475H1283.14C1284.19 513.475 1285.07 513.641 1285.76 513.972C1286.46 514.299 1286.99 514.746 1287.33 515.315C1287.68 515.883 1287.86 516.527 1287.86 517.246C1287.86 517.838 1287.74 518.345 1287.52 518.766C1287.29 519.183 1286.98 519.521 1286.6 519.782C1286.22 520.042 1285.79 520.229 1285.32 520.343V520.485C1285.83 520.513 1286.33 520.672 1286.8 520.961C1287.28 521.245 1287.67 521.647 1287.97 522.168C1288.27 522.689 1288.43 523.319 1288.43 524.057C1288.43 524.81 1288.24 525.487 1287.88 526.089C1287.51 526.685 1286.97 527.156 1286.23 527.502C1285.5 527.848 1284.57 528.021 1283.46 528.021H1277.57ZM1280.21 525.819H1283.04C1284 525.819 1284.69 525.637 1285.11 525.272C1285.54 524.903 1285.75 524.429 1285.75 523.851C1285.75 523.421 1285.64 523.032 1285.43 522.687C1285.22 522.336 1284.91 522.062 1284.52 521.863C1284.13 521.659 1283.66 521.557 1283.11 521.557H1280.21V525.819ZM1280.21 519.661H1282.82C1283.27 519.661 1283.68 519.578 1284.04 519.413C1284.41 519.242 1284.7 519.003 1284.9 518.695C1285.12 518.383 1285.22 518.013 1285.22 517.587C1285.22 517.024 1285.02 516.56 1284.63 516.195C1284.23 515.831 1283.65 515.648 1282.87 515.648H1280.21V519.661ZM1289.72 513.475H1292.7L1296.26 519.91H1296.4L1299.96 513.475H1302.93L1297.64 522.594V528.021H1295.02V522.594L1289.72 513.475ZM1309.76 528.021V513.475H1312.4V525.812H1318.8V528.021H1309.76ZM1318.59 515.684V513.475H1330.2V515.684H1325.7V528.021H1323.09V515.684H1318.59ZM1333.22 528.177C1332.79 528.177 1332.42 528.025 1332.12 527.722C1331.81 527.419 1331.66 527.05 1331.66 526.614C1331.66 526.188 1331.81 525.824 1332.12 525.521C1332.42 525.217 1332.79 525.066 1333.22 525.066C1333.64 525.066 1334 525.217 1334.31 525.521C1334.62 525.824 1334.78 526.188 1334.79 526.614C1334.78 526.903 1334.71 527.166 1334.56 527.403C1334.42 527.639 1334.23 527.829 1333.99 527.971C1333.76 528.108 1333.5 528.177 1333.22 528.177ZM1346.99 528.021H1342.07V513.475H1347.09C1348.54 513.475 1349.78 513.766 1350.82 514.349C1351.86 514.926 1352.66 515.757 1353.22 516.842C1353.78 517.926 1354.05 519.223 1354.05 520.734C1354.05 522.249 1353.77 523.551 1353.21 524.64C1352.65 525.729 1351.84 526.565 1350.79 527.147C1349.74 527.729 1348.47 528.021 1346.99 528.021ZM1344.7 525.741H1346.87C1347.88 525.741 1348.73 525.556 1349.4 525.187C1350.08 524.813 1350.59 524.256 1350.93 523.518C1351.27 522.774 1351.44 521.846 1351.44 520.734C1351.44 519.621 1351.27 518.698 1350.93 517.964C1350.59 517.225 1350.08 516.673 1349.42 516.309C1348.75 515.94 1347.93 515.755 1346.95 515.755H1344.7V525.741ZM1357.64 528.021H1354.83L1359.95 513.475H1363.21L1368.33 528.021H1365.52L1361.64 516.458H1361.52L1357.64 528.021ZM1357.74 522.317H1365.41V524.434H1357.74V522.317ZM1377.92 517.474C1377.85 516.853 1377.57 516.37 1377.08 516.025C1376.59 515.679 1375.96 515.506 1375.18 515.506C1374.63 515.506 1374.16 515.589 1373.77 515.755C1373.37 515.921 1373.07 516.146 1372.86 516.43C1372.65 516.714 1372.55 517.038 1372.54 517.403C1372.54 517.706 1372.61 517.968 1372.75 518.191C1372.89 518.414 1373.08 518.603 1373.32 518.759C1373.57 518.911 1373.83 519.038 1374.13 519.143C1374.42 519.247 1374.72 519.334 1375.02 519.405L1376.38 519.746C1376.93 519.874 1377.46 520.047 1377.96 520.265C1378.47 520.483 1378.93 520.757 1379.33 521.089C1379.74 521.42 1380.06 521.82 1380.3 522.289C1380.54 522.758 1380.65 523.307 1380.65 523.937C1380.65 524.789 1380.44 525.539 1380 526.188C1379.57 526.832 1378.94 527.336 1378.11 527.701C1377.29 528.061 1376.3 528.241 1375.14 528.241C1374 528.241 1373.02 528.065 1372.19 527.715C1371.36 527.365 1370.71 526.853 1370.24 526.181C1369.78 525.509 1369.53 524.69 1369.49 523.724H1372.08C1372.12 524.23 1372.28 524.652 1372.55 524.988C1372.83 525.324 1373.18 525.575 1373.62 525.741C1374.07 525.906 1374.57 525.989 1375.11 525.989C1375.69 525.989 1376.19 525.904 1376.62 525.734C1377.06 525.558 1377.4 525.317 1377.64 525.009C1377.89 524.697 1378.01 524.332 1378.02 523.915C1378.01 523.537 1377.9 523.224 1377.69 522.978C1377.47 522.727 1377.16 522.519 1376.77 522.353C1376.38 522.182 1375.93 522.031 1375.41 521.898L1373.75 521.472C1372.55 521.164 1371.61 520.698 1370.91 520.073C1370.22 519.443 1369.87 518.608 1369.87 517.566C1369.87 516.709 1370.11 515.958 1370.57 515.315C1371.04 514.671 1371.67 514.171 1372.48 513.816C1373.28 513.456 1374.2 513.276 1375.21 513.276C1376.25 513.276 1377.15 513.456 1377.93 513.816C1378.71 514.171 1379.32 514.666 1379.77 515.3C1380.21 515.93 1380.44 516.655 1380.46 517.474H1377.92ZM1384.64 528.021H1381.82L1386.95 513.475H1390.2L1395.33 528.021H1392.51L1388.63 516.458H1388.51L1384.64 528.021ZM1384.73 522.317H1392.4V524.434H1384.73V522.317ZM1397.24 528.021V513.475H1402.7C1403.81 513.475 1404.75 513.669 1405.51 514.057C1406.27 514.446 1406.85 514.99 1407.23 515.691C1407.63 516.387 1407.82 517.199 1407.82 518.127C1407.82 519.06 1407.63 519.869 1407.23 520.556C1406.83 521.238 1406.25 521.766 1405.49 522.14C1404.72 522.509 1403.78 522.694 1402.66 522.694H1398.78V520.506H1402.31C1402.96 520.506 1403.49 520.416 1403.91 520.236C1404.33 520.052 1404.64 519.784 1404.83 519.434C1405.04 519.079 1405.14 518.643 1405.14 518.127C1405.14 517.611 1405.04 517.171 1404.83 516.806C1404.63 516.437 1404.32 516.157 1403.9 515.968C1403.49 515.774 1402.95 515.677 1402.29 515.677H1399.88V528.021H1397.24ZM1404.76 521.43L1408.36 528.021H1405.42L1401.88 521.43H1404.76Z" fill="#7B7474"/>
<path d="M1238.82 1.95527L1238.82 227.389M1238.82 1.95527L1325.18 1.95526M1238.82 1.95527L1171.1 1.95527M1411.53 1.95526L1411.53 227.389M1411.53 1.95526L1325.18 1.95526M1411.53 1.95526L1709.9 1.95525L2011.66 1.9553L2011.66 381.603L1709.9 381.603L1709.9 449.795L1709.9 667.132L1411.53 667.132L940.245 667.132L940.245 381.603L1.33446 381.603L1.33446 316.968M1411.53 316.968L1411.53 227.389M1411.53 227.389L1325.18 227.389M1238.82 227.389L1325.18 227.389M1238.82 227.389L1238.82 252.773M1325.18 227.389L1325.18 1.95526M1.33446 316.968L1.33444 1.95526L83.9065 1.95526M1.33446 316.968L64.5576 316.968M102.156 316.968L166.478 316.968M1453.17 316.968L1709.9 316.968L1966.63 316.968M940.245 1.95528L940.245 117.713M940.245 1.95528L792.035 1.95529M940.245 1.95528L1171.1 1.95527M166.478 316.968L302.737 316.968L302.737 287.338M166.478 316.968L166.478 217.34M166.478 1.95525L83.9065 1.95526M166.478 1.95525L166.478 117.713M166.478 1.95525L427.032 1.9553M83.9065 1.95526L83.9065 287.338M83.9065 287.338L64.5576 287.338M83.9065 287.338L102.156 287.338M166.478 117.713L166.478 217.34M166.478 117.713L302.737 117.713M940.245 117.713L897.518 117.713M940.245 117.713L940.245 146.933M350.8 316.968L940.245 316.968L940.245 176.264M166.478 217.34L302.737 217.34L302.737 250.036M302.737 117.713L302.737 188.65L350.8 188.65L350.8 287.338M302.737 117.713L392.025 117.713M527.676 117.713L427.032 117.713L427.032 1.9553M570.34 117.713L628.866 117.713M687.393 117.713L628.866 117.713M729.278 117.713L792.035 117.713M854.792 117.713L792.035 117.713M427.032 1.9553L628.866 1.95529M628.866 117.713L628.866 1.95529M628.866 1.95529L639.516 1.95529L792.035 1.95529M792.035 117.713L792.035 1.95529M975.017 117.713L1171.1 117.713M1207.3 117.713L1171.1 117.713M1171.1 117.713L1171.1 1.95527M1089.65 146.933L1089.65 227.389L1089.65 252.773L1238.82 252.773M1138.22 316.968L1198.28 316.968L1238.82 316.968L1238.82 252.773" stroke="#4C4C4C" stroke-width="2"/>
</svg>
