<svg width="431" height="97" viewBox="0 0 431 97" fill="none" xmlns="http://www.w3.org/2000/svg">
<path d="M129.168 50.6503C126.448 50.6503 123.808 50.3143 121.248 49.6423C118.688 48.9703 116.608 48.0743 115.008 46.9543L118.128 39.9463C119.632 40.9383 121.376 41.7383 123.36 42.3463C125.344 42.9543 127.296 43.2583 129.216 43.2583C132.864 43.2583 134.688 42.3463 134.688 40.5223C134.688 39.5623 134.16 38.8583 133.104 38.4103C132.08 37.9303 130.416 37.4343 128.112 36.9223C125.584 36.3783 123.472 35.8023 121.776 35.1943C120.08 34.5543 118.624 33.5463 117.408 32.1703C116.192 30.7943 115.584 28.9383 115.584 26.6023C115.584 24.5543 116.144 22.7143 117.264 21.0823C118.384 19.4183 120.048 18.1063 122.256 17.1463C124.496 16.1863 127.232 15.7063 130.464 15.7063C132.672 15.7063 134.848 15.9623 136.992 16.4743C139.136 16.9543 141.024 17.6743 142.656 18.6343L139.728 25.6903C136.528 23.9623 133.424 23.0983 130.416 23.0983C128.528 23.0983 127.152 23.3863 126.288 23.9623C125.424 24.5063 124.992 25.2263 124.992 26.1223C124.992 27.0183 125.504 27.6903 126.528 28.1383C127.552 28.5863 129.2 29.0503 131.472 29.5303C134.032 30.0743 136.144 30.6663 137.808 31.3063C139.504 31.9143 140.96 32.9063 142.176 34.2823C143.424 35.6263 144.048 37.4663 144.048 39.8023C144.048 41.8183 143.488 43.6423 142.368 45.2743C141.248 46.9063 139.568 48.2183 137.328 49.2103C135.088 50.1703 132.368 50.6503 129.168 50.6503ZM161.302 50.4103C158.422 50.4103 155.846 49.8343 153.574 48.6823C151.302 47.5303 149.526 45.9303 148.246 43.8823C146.998 41.8343 146.374 39.5143 146.374 36.9223C146.374 34.3303 146.998 32.0263 148.246 30.0103C149.526 27.9623 151.302 26.3783 153.574 25.2583C155.846 24.1063 158.422 23.5303 161.302 23.5303C164.246 23.5303 166.79 24.1703 168.934 25.4503C171.078 26.6983 172.598 28.4423 173.494 30.6823L166.438 34.2823C165.254 31.9463 163.526 30.7783 161.254 30.7783C159.622 30.7783 158.262 31.3223 157.174 32.4103C156.118 33.4983 155.59 35.0023 155.59 36.9223C155.59 38.8743 156.118 40.4103 157.174 41.5303C158.262 42.6183 159.622 43.1623 161.254 43.1623C163.526 43.1623 165.254 41.9943 166.438 39.6583L173.494 43.2583C172.598 45.4983 171.078 47.2583 168.934 48.5383C166.79 49.7863 164.246 50.4103 161.302 50.4103ZM193.778 23.5303C197.01 23.5303 199.602 24.4903 201.554 26.4103C203.538 28.3303 204.53 31.2263 204.53 35.0983V49.9783H195.41V36.5863C195.41 33.0343 193.986 31.2583 191.138 31.2583C189.57 31.2583 188.306 31.7703 187.346 32.7943C186.418 33.8183 185.954 35.3543 185.954 37.4023V49.9783H176.834V14.3623H185.954V26.3623C186.946 25.4343 188.114 24.7303 189.458 24.2503C190.802 23.7703 192.242 23.5303 193.778 23.5303ZM223.687 50.4103C220.903 50.4103 218.391 49.8343 216.151 48.6823C213.911 47.5303 212.151 45.9303 210.871 43.8823C209.623 41.8343 208.999 39.5143 208.999 36.9223C208.999 34.3623 209.623 32.0583 210.871 30.0103C212.151 27.9623 213.895 26.3783 216.103 25.2583C218.343 24.1063 220.871 23.5303 223.687 23.5303C226.503 23.5303 229.031 24.1063 231.271 25.2583C233.511 26.3783 235.255 27.9623 236.503 30.0103C237.751 32.0263 238.375 34.3303 238.375 36.9223C238.375 39.5143 237.751 41.8343 236.503 43.8823C235.255 45.9303 233.511 47.5303 231.271 48.6823C229.031 49.8343 226.503 50.4103 223.687 50.4103ZM223.687 43.1623C225.287 43.1623 226.599 42.6183 227.623 41.5303C228.647 40.4103 229.159 38.8743 229.159 36.9223C229.159 35.0023 228.647 33.4983 227.623 32.4103C226.599 31.3223 225.287 30.7783 223.687 30.7783C222.087 30.7783 220.775 31.3223 219.751 32.4103C218.727 33.4983 218.215 35.0023 218.215 36.9223C218.215 38.8743 218.727 40.4103 219.751 41.5303C220.775 42.6183 222.087 43.1623 223.687 43.1623ZM243.032 16.3783H252.536V49.9783H243.032V16.3783ZM275.81 23.5303C279.042 23.5303 281.634 24.4903 283.586 26.4103C285.57 28.3303 286.562 31.2263 286.562 35.0983V49.9783H277.442V36.5863C277.442 33.0343 276.018 31.2583 273.17 31.2583C271.602 31.2583 270.338 31.7703 269.378 32.7943C268.45 33.8183 267.986 35.3543 267.986 37.4023V49.9783H258.866V23.9623H267.554V26.7943C268.578 25.7383 269.794 24.9383 271.202 24.3943C272.61 23.8183 274.146 23.5303 275.81 23.5303Z" fill="#4C4C4C"/>
<path d="M121.368 85.1223C120.12 85.1223 118.92 84.9223 117.768 84.5223C116.632 84.1223 115.752 83.5943 115.128 82.9383L115.824 81.5703C116.432 82.1783 117.24 82.6743 118.248 83.0583C119.256 83.4263 120.296 83.6103 121.368 83.6103C122.872 83.6103 124 83.3383 124.752 82.7943C125.504 82.2343 125.88 81.5143 125.88 80.6343C125.88 79.9623 125.672 79.4263 125.256 79.0263C124.856 78.6263 124.36 78.3223 123.768 78.1143C123.176 77.8903 122.352 77.6503 121.296 77.3943C120.032 77.0743 119.024 76.7703 118.272 76.4823C117.52 76.1783 116.872 75.7223 116.328 75.1143C115.8 74.5063 115.536 73.6823 115.536 72.6423C115.536 71.7943 115.76 71.0263 116.208 70.3383C116.656 69.6343 117.344 69.0743 118.272 68.6583C119.2 68.2423 120.352 68.0343 121.728 68.0343C122.688 68.0343 123.624 68.1703 124.536 68.4423C125.464 68.6983 126.264 69.0583 126.936 69.5223L126.336 70.9383C125.632 70.4743 124.88 70.1303 124.08 69.9063C123.28 69.6663 122.496 69.5463 121.728 69.5463C120.256 69.5463 119.144 69.8343 118.392 70.4103C117.656 70.9703 117.288 71.6983 117.288 72.5943C117.288 73.2663 117.488 73.8103 117.888 74.2263C118.304 74.6263 118.816 74.9383 119.424 75.1623C120.048 75.3703 120.88 75.6023 121.92 75.8583C123.152 76.1623 124.144 76.4663 124.896 76.7703C125.664 77.0583 126.312 77.5063 126.84 78.1143C127.368 78.7063 127.632 79.5143 127.632 80.5383C127.632 81.3863 127.4 82.1623 126.936 82.8663C126.488 83.5543 125.792 84.1063 124.848 84.5223C123.904 84.9223 122.744 85.1223 121.368 85.1223ZM148.95 68.1783V84.9783H147.246V71.5383L140.646 82.8423H139.806L133.206 71.6103V84.9783H131.502V68.1783H132.966L140.262 80.6343L147.486 68.1783H148.95ZM159.632 77.0823L156.2 80.5623V84.9783H154.424V68.1783H156.2V78.3303L166.064 68.1783H168.104L160.832 75.7863L168.608 84.9783H166.496L159.632 77.0823ZM177.767 68.1783H179.543V84.9783H177.767V68.1783ZM200.393 72.2583C201.977 72.2583 203.217 72.7143 204.113 73.6263C205.025 74.5383 205.481 75.8823 205.481 77.6583V84.9783H203.777V77.8263C203.777 76.5143 203.457 75.5143 202.817 74.8263C202.193 74.1383 201.305 73.7943 200.153 73.7943C198.841 73.7943 197.809 74.2023 197.057 75.0183C196.305 75.8183 195.929 76.9303 195.929 78.3543V84.9783H194.225V77.8263C194.225 76.5143 193.905 75.5143 193.265 74.8263C192.641 74.1383 191.745 73.7943 190.577 73.7943C189.281 73.7943 188.249 74.2023 187.481 75.0183C186.729 75.8183 186.353 76.9303 186.353 78.3543V84.9783H184.649V72.3543H186.281V74.6583C186.729 73.8903 187.353 73.2983 188.153 72.8823C188.953 72.4663 189.873 72.2583 190.913 72.2583C191.969 72.2583 192.881 72.4823 193.649 72.9303C194.433 73.3783 195.017 74.0423 195.401 74.9223C195.865 74.0903 196.529 73.4423 197.393 72.9783C198.273 72.4983 199.273 72.2583 200.393 72.2583ZM225.847 72.2583C227.431 72.2583 228.671 72.7143 229.567 73.6263C230.479 74.5383 230.935 75.8823 230.935 77.6583V84.9783H229.231V77.8263C229.231 76.5143 228.911 75.5143 228.271 74.8263C227.647 74.1383 226.759 73.7943 225.607 73.7943C224.295 73.7943 223.263 74.2023 222.511 75.0183C221.759 75.8183 221.383 76.9303 221.383 78.3543V84.9783H219.679V77.8263C219.679 76.5143 219.359 75.5143 218.719 74.8263C218.095 74.1383 217.199 73.7943 216.031 73.7943C214.735 73.7943 213.703 74.2023 212.935 75.0183C212.183 75.8183 211.807 76.9303 211.807 78.3543V84.9783H210.103V72.3543H211.735V74.6583C212.183 73.8903 212.807 73.2983 213.607 72.8823C214.407 72.4663 215.327 72.2583 216.367 72.2583C217.423 72.2583 218.335 72.4823 219.103 72.9303C219.887 73.3783 220.471 74.0423 220.855 74.9223C221.319 74.0903 221.983 73.4423 222.847 72.9783C223.727 72.4983 224.727 72.2583 225.847 72.2583ZM239.972 72.2583C241.62 72.2583 242.884 72.6743 243.764 73.5063C244.644 74.3223 245.084 75.5383 245.084 77.1543V84.9783H243.452V83.0103C243.068 83.6663 242.5 84.1783 241.748 84.5463C241.012 84.9143 240.132 85.0983 239.108 85.0983C237.7 85.0983 236.58 84.7623 235.748 84.0903C234.916 83.4183 234.5 82.5303 234.5 81.4263C234.5 80.3543 234.884 79.4903 235.652 78.8343C236.436 78.1783 237.676 77.8503 239.372 77.8503H243.38V77.0823C243.38 75.9943 243.076 75.1703 242.468 74.6103C241.86 74.0343 240.972 73.7463 239.804 73.7463C239.004 73.7463 238.236 73.8823 237.5 74.1543C236.764 74.4103 236.132 74.7703 235.604 75.2343L234.836 73.9623C235.476 73.4183 236.244 73.0023 237.14 72.7143C238.036 72.4103 238.98 72.2583 239.972 72.2583ZM239.372 83.7543C240.332 83.7543 241.156 83.5383 241.844 83.1063C242.532 82.6583 243.044 82.0183 243.38 81.1863V79.1223H239.42C237.26 79.1223 236.18 79.8743 236.18 81.3783C236.18 82.1143 236.46 82.6983 237.02 83.1303C237.58 83.5463 238.364 83.7543 239.372 83.7543ZM256.144 72.2583C257.728 72.2583 258.984 72.7223 259.912 73.6503C260.856 74.5623 261.328 75.8983 261.328 77.6583V84.9783H259.624V77.8263C259.624 76.5143 259.296 75.5143 258.64 74.8263C257.984 74.1383 257.048 73.7943 255.832 73.7943C254.472 73.7943 253.392 74.2023 252.592 75.0183C251.808 75.8183 251.416 76.9303 251.416 78.3543V84.9783H249.712V72.3543H251.344V74.6823C251.808 73.9143 252.448 73.3223 253.264 72.9063C254.096 72.4743 255.056 72.2583 256.144 72.2583ZM277.33 72.3543V84.9783H275.698V82.6743C275.25 83.4423 274.634 84.0423 273.85 84.4743C273.066 84.8903 272.17 85.0983 271.162 85.0983C269.514 85.0983 268.21 84.6423 267.25 83.7303C266.306 82.8023 265.834 81.4503 265.834 79.6743V72.3543H267.538V79.5063C267.538 80.8343 267.866 81.8423 268.522 82.5303C269.178 83.2183 270.114 83.5623 271.33 83.5623C272.658 83.5623 273.706 83.1623 274.474 82.3623C275.242 81.5463 275.626 80.4183 275.626 78.9783V72.3543H277.33ZM293.095 79.1943H282.535C282.631 80.5063 283.135 81.5703 284.047 82.3863C284.959 83.1863 286.111 83.5863 287.503 83.5863C288.287 83.5863 289.007 83.4503 289.663 83.1783C290.319 82.8903 290.887 82.4743 291.367 81.9303L292.327 83.0343C291.767 83.7063 291.063 84.2183 290.215 84.5703C289.383 84.9223 288.463 85.0983 287.455 85.0983C286.159 85.0983 285.007 84.8263 283.999 84.2823C283.007 83.7223 282.231 82.9543 281.671 81.9783C281.111 81.0023 280.831 79.8983 280.831 78.6663C280.831 77.4343 281.095 76.3303 281.623 75.3543C282.167 74.3783 282.903 73.6183 283.831 73.0743C284.775 72.5303 285.831 72.2583 286.999 72.2583C288.167 72.2583 289.215 72.5303 290.143 73.0743C291.071 73.6183 291.799 74.3783 292.327 75.3543C292.855 76.3143 293.119 77.4183 293.119 78.6663L293.095 79.1943ZM286.999 73.7223C285.783 73.7223 284.759 74.1143 283.927 74.8983C283.111 75.6663 282.647 76.6743 282.535 77.9223H291.487C291.375 76.6743 290.903 75.6663 290.071 74.8983C289.255 74.1143 288.231 73.7223 286.999 73.7223ZM296.587 67.1703H298.291V84.9783H296.587V67.1703ZM315.962 68.1783C318.106 68.1783 319.786 68.6903 321.002 69.7143C322.218 70.7383 322.826 72.1463 322.826 73.9383C322.826 75.7303 322.218 77.1383 321.002 78.1623C319.786 79.1703 318.106 79.6743 315.962 79.6743H311.45V84.9783H309.674V68.1783H315.962ZM315.914 78.1143C317.578 78.1143 318.85 77.7543 319.73 77.0343C320.61 76.2983 321.049 75.2663 321.049 73.9383C321.049 72.5783 320.61 71.5383 319.73 70.8183C318.85 70.0823 317.578 69.7143 315.914 69.7143H311.45V78.1143H315.914ZM331.395 85.0983C330.179 85.0983 329.083 84.8263 328.107 84.2823C327.131 83.7223 326.363 82.9543 325.803 81.9783C325.243 81.0023 324.963 79.8983 324.963 78.6663C324.963 77.4343 325.243 76.3303 325.803 75.3543C326.363 74.3783 327.131 73.6183 328.107 73.0743C329.083 72.5303 330.179 72.2583 331.395 72.2583C332.611 72.2583 333.707 72.5303 334.683 73.0743C335.659 73.6183 336.419 74.3783 336.963 75.3543C337.523 76.3303 337.803 77.4343 337.803 78.6663C337.803 79.8983 337.523 81.0023 336.963 81.9783C336.419 82.9543 335.659 83.7223 334.683 84.2823C333.707 84.8263 332.611 85.0983 331.395 85.0983ZM331.395 83.5863C332.291 83.5863 333.091 83.3863 333.795 82.9863C334.515 82.5703 335.075 81.9863 335.475 81.2343C335.875 80.4823 336.075 79.6263 336.075 78.6663C336.075 77.7063 335.875 76.8503 335.475 76.0983C335.075 75.3463 334.515 74.7703 333.795 74.3703C333.091 73.9543 332.291 73.7463 331.395 73.7463C330.499 73.7463 329.691 73.9543 328.971 74.3703C328.267 74.7703 327.707 75.3463 327.291 76.0983C326.891 76.8503 326.691 77.7063 326.691 78.6663C326.691 79.6263 326.891 80.4823 327.291 81.2343C327.707 81.9863 328.267 82.5703 328.971 82.9863C329.691 83.3863 330.499 83.5863 331.395 83.5863ZM347.714 72.2583C349.298 72.2583 350.554 72.7223 351.482 73.6503C352.426 74.5623 352.898 75.8983 352.898 77.6583V84.9783H351.194V77.8263C351.194 76.5143 350.866 75.5143 350.21 74.8263C349.554 74.1383 348.618 73.7943 347.402 73.7943C346.042 73.7943 344.962 74.2023 344.162 75.0183C343.378 75.8183 342.986 76.9303 342.986 78.3543V84.9783H341.282V72.3543H342.914V74.6823C343.378 73.9143 344.018 73.3223 344.834 72.9063C345.666 72.4743 346.626 72.2583 347.714 72.2583ZM364.172 84.2103C363.852 84.4983 363.452 84.7223 362.972 84.8823C362.508 85.0263 362.02 85.0983 361.508 85.0983C360.324 85.0983 359.412 84.7783 358.772 84.1383C358.132 83.4983 357.812 82.5943 357.812 81.4263V73.7943H355.556V72.3543H357.812V69.5943H359.516V72.3543H363.356V73.7943H359.516V81.3303C359.516 82.0823 359.7 82.6583 360.068 83.0583C360.452 83.4423 360.996 83.6343 361.7 83.6343C362.052 83.6343 362.388 83.5783 362.708 83.4663C363.044 83.3543 363.332 83.1943 363.572 82.9863L364.172 84.2103ZM367.274 72.3543H368.978V84.9783H367.274V72.3543ZM368.138 69.5943C367.786 69.5943 367.49 69.4743 367.25 69.2343C367.01 68.9943 366.89 68.7063 366.89 68.3703C366.89 68.0503 367.01 67.7703 367.25 67.5303C367.49 67.2903 367.786 67.1703 368.138 67.1703C368.49 67.1703 368.786 67.2903 369.026 67.5303C369.266 67.7543 369.386 68.0263 369.386 68.3463C369.386 68.6983 369.266 68.9943 369.026 69.2343C368.786 69.4743 368.49 69.5943 368.138 69.5943ZM378.136 72.2583C379.784 72.2583 381.048 72.6743 381.928 73.5063C382.808 74.3223 383.248 75.5383 383.248 77.1543V84.9783H381.616V83.0103C381.232 83.6663 380.664 84.1783 379.912 84.5463C379.176 84.9143 378.296 85.0983 377.272 85.0983C375.864 85.0983 374.744 84.7623 373.912 84.0903C373.08 83.4183 372.664 82.5303 372.664 81.4263C372.664 80.3543 373.048 79.4903 373.816 78.8343C374.6 78.1783 375.84 77.8503 377.536 77.8503H381.544V77.0823C381.544 75.9943 381.24 75.1703 380.632 74.6103C380.024 74.0343 379.136 73.7463 377.968 73.7463C377.168 73.7463 376.4 73.8823 375.664 74.1543C374.928 74.4103 374.296 74.7703 373.768 75.2343L373 73.9623C373.64 73.4183 374.408 73.0023 375.304 72.7143C376.2 72.4103 377.144 72.2583 378.136 72.2583ZM377.536 83.7543C378.496 83.7543 379.32 83.5383 380.008 83.1063C380.696 82.6583 381.208 82.0183 381.544 81.1863V79.1223H377.584C375.424 79.1223 374.344 79.8743 374.344 81.3783C374.344 82.1143 374.624 82.6983 375.184 83.1303C375.744 83.5463 376.528 83.7543 377.536 83.7543ZM394.308 72.2583C395.892 72.2583 397.148 72.7223 398.076 73.6503C399.02 74.5623 399.492 75.8983 399.492 77.6583V84.9783H397.788V77.8263C397.788 76.5143 397.46 75.5143 396.804 74.8263C396.148 74.1383 395.212 73.7943 393.996 73.7943C392.636 73.7943 391.556 74.2023 390.756 75.0183C389.972 75.8183 389.58 76.9303 389.58 78.3543V84.9783H387.876V72.3543H389.508V74.6823C389.972 73.9143 390.612 73.3223 391.428 72.9063C392.26 72.4743 393.22 72.2583 394.308 72.2583ZM408.534 72.2583C410.182 72.2583 411.446 72.6743 412.326 73.5063C413.206 74.3223 413.646 75.5383 413.646 77.1543V84.9783H412.014V83.0103C411.63 83.6663 411.062 84.1783 410.31 84.5463C409.574 84.9143 408.694 85.0983 407.67 85.0983C406.262 85.0983 405.142 84.7623 404.31 84.0903C403.478 83.4183 403.062 82.5303 403.062 81.4263C403.062 80.3543 403.446 79.4903 404.214 78.8343C404.998 78.1783 406.238 77.8503 407.934 77.8503H411.942V77.0823C411.942 75.9943 411.638 75.1703 411.03 74.6103C410.422 74.0343 409.534 73.7463 408.366 73.7463C407.566 73.7463 406.798 73.8823 406.062 74.1543C405.326 74.4103 404.694 74.7703 404.166 75.2343L403.398 73.9623C404.038 73.4183 404.806 73.0023 405.702 72.7143C406.598 72.4103 407.542 72.2583 408.534 72.2583ZM407.934 83.7543C408.894 83.7543 409.718 83.5383 410.406 83.1063C411.094 82.6583 411.606 82.0183 411.942 81.1863V79.1223H407.982C405.822 79.1223 404.742 79.8743 404.742 81.3783C404.742 82.1143 405.022 82.6983 405.582 83.1303C406.142 83.5463 406.926 83.7543 407.934 83.7543ZM422.954 78.6423L419.978 81.3783V84.9783H418.274V67.1703H419.978V79.2423L427.514 72.3543H429.626L424.226 77.5143L430.13 84.9783H428.042L422.954 78.6423Z" fill="#888888"/>
<rect y="0.978333" width="96" height="96" rx="10" fill="#65A8F5"/>
<path d="M77 25.6409V31.6806H61.8406L51.3199 46.7799H58.8087V52.8196H54.1396L65.3879 76.9783H58.7177L55.8981 70.9386H29.6419L26.5191 76.9783H19.6973L32.219 52.8196H31.5217C30.1573 52.8196 29.0052 51.9136 28.6111 50.7057L19 22.1379L21.8803 21.1112C23.4569 20.628 25.1851 21.5038 25.7005 23.0741L33.7047 46.7799H46.9843L57.505 31.6806H46.6811V25.6409H77ZM39.1014 52.8196L32.7951 64.8989H53.0784L47.4694 52.8196H39.1014Z" fill="white"/>
</svg>
