<svg width="2013" height="668" viewBox="0 0 2013 668" fill="none" xmlns="http://www.w3.org/2000/svg">
<path d="M1286.22 253.178V250.97H1297.83V253.178H1293.33V265.515H1290.72V253.178H1286.22ZM1300.17 265.515H1297.36L1302.48 250.97H1305.73L1310.86 265.515H1308.05L1304.16 253.953H1304.05L1300.17 265.515ZM1300.27 259.812H1307.94V261.928H1300.27V259.812ZM1324.73 250.97V265.515H1322.39L1315.53 255.607H1315.41V265.515H1312.78V250.97H1315.14L1321.98 260.884H1322.11V250.97H1324.73ZM1337.35 255.615C1337.23 255.231 1337.06 254.888 1336.86 254.585C1336.65 254.277 1336.41 254.014 1336.12 253.796C1335.83 253.579 1335.51 253.415 1335.14 253.306C1334.77 253.193 1334.37 253.136 1333.93 253.136C1333.15 253.136 1332.45 253.332 1331.84 253.725C1331.23 254.118 1330.75 254.696 1330.4 255.458C1330.05 256.216 1329.88 257.139 1329.88 258.228C1329.88 259.327 1330.05 260.257 1330.4 261.019C1330.75 261.782 1331.23 262.362 1331.84 262.759C1332.46 263.152 1333.17 263.349 1333.99 263.349C1334.73 263.349 1335.36 263.207 1335.9 262.923C1336.45 262.639 1336.87 262.236 1337.16 261.715C1337.46 261.19 1337.6 260.574 1337.6 259.869L1338.2 259.961H1334.25V257.901H1340.15V259.649C1340.15 260.894 1339.89 261.971 1339.36 262.88C1338.83 263.789 1338.1 264.49 1337.17 264.982C1336.24 265.47 1335.18 265.714 1333.97 265.714C1332.63 265.714 1331.46 265.413 1330.44 264.812C1329.43 264.206 1328.65 263.347 1328.08 262.234C1327.51 261.116 1327.23 259.791 1327.23 258.257C1327.23 257.082 1327.4 256.034 1327.73 255.11C1328.07 254.187 1328.53 253.403 1329.14 252.759C1329.74 252.111 1330.44 251.618 1331.25 251.282C1332.06 250.941 1332.94 250.771 1333.89 250.771C1334.7 250.771 1335.45 250.889 1336.15 251.126C1336.84 251.358 1337.46 251.689 1338 252.12C1338.54 252.551 1338.99 253.062 1339.34 253.654C1339.69 254.246 1339.92 254.9 1340.03 255.615H1337.35ZM1352.44 255.615C1352.33 255.231 1352.16 254.888 1351.95 254.585C1351.75 254.277 1351.5 254.014 1351.22 253.796C1350.93 253.579 1350.6 253.415 1350.24 253.306C1349.87 253.193 1349.46 253.136 1349.03 253.136C1348.25 253.136 1347.55 253.332 1346.94 253.725C1346.33 254.118 1345.85 254.696 1345.5 255.458C1345.15 256.216 1344.98 257.139 1344.98 258.228C1344.98 259.327 1345.15 260.257 1345.5 261.019C1345.84 261.782 1346.32 262.362 1346.94 262.759C1347.56 263.152 1348.27 263.349 1349.08 263.349C1349.82 263.349 1350.46 263.207 1351 262.923C1351.55 262.639 1351.97 262.236 1352.26 261.715C1352.55 261.19 1352.7 260.574 1352.7 259.869L1353.3 259.961H1349.35V257.901H1355.25V259.649C1355.25 260.894 1354.98 261.971 1354.45 262.88C1353.92 263.789 1353.19 264.49 1352.27 264.982C1351.34 265.47 1350.27 265.714 1349.07 265.714C1347.73 265.714 1346.55 265.413 1345.54 264.812C1344.53 264.206 1343.74 263.347 1343.18 262.234C1342.61 261.116 1342.33 259.791 1342.33 258.257C1342.33 257.082 1342.5 256.034 1342.83 255.11C1343.16 254.187 1343.63 253.403 1344.23 252.759C1344.84 252.111 1345.54 251.618 1346.35 251.282C1347.16 250.941 1348.04 250.771 1348.99 250.771C1349.8 250.771 1350.55 250.889 1351.24 251.126C1351.94 251.358 1352.56 251.689 1353.1 252.12C1353.64 252.551 1354.09 253.062 1354.44 253.654C1354.79 254.246 1355.02 254.9 1355.13 255.615H1352.44ZM1359.22 265.515H1356.4L1361.52 250.97H1364.78L1369.91 265.515H1367.09L1363.21 253.953H1363.09L1359.22 265.515ZM1359.31 259.812H1366.98V261.928H1359.31V259.812Z" fill="#7B7474"/>
<path d="M329.313 167.091V152.545H334.768C335.885 152.545 336.823 152.739 337.58 153.128C338.342 153.516 338.918 154.061 339.306 154.761C339.699 155.457 339.895 156.269 339.895 157.197C339.895 158.13 339.697 158.94 339.299 159.626C338.906 160.308 338.326 160.836 337.559 161.21C336.792 161.579 335.85 161.764 334.732 161.764H330.847V159.577H334.377C335.03 159.577 335.565 159.487 335.982 159.307C336.399 159.122 336.707 158.855 336.905 158.504C337.109 158.149 337.211 157.713 337.211 157.197C337.211 156.681 337.109 156.241 336.905 155.876C336.702 155.507 336.392 155.228 335.975 155.038C335.558 154.844 335.021 154.747 334.363 154.747H331.948V167.091H329.313ZM336.827 160.5L340.428 167.091H337.488L333.951 160.5H336.827ZM343.791 167.247C343.36 167.247 342.991 167.096 342.683 166.793C342.375 166.489 342.224 166.12 342.229 165.685C342.224 165.258 342.375 164.894 342.683 164.591C342.991 164.288 343.36 164.136 343.791 164.136C344.208 164.136 344.57 164.288 344.878 164.591C345.19 164.894 345.349 165.258 345.354 165.685C345.349 165.973 345.273 166.236 345.126 166.473C344.984 166.71 344.795 166.899 344.558 167.041C344.326 167.178 344.07 167.247 343.791 167.247ZM352.633 167.091V152.545H358.202C359.253 152.545 360.126 152.711 360.822 153.043C361.523 153.369 362.046 153.817 362.392 154.385C362.742 154.953 362.917 155.597 362.917 156.317C362.917 156.909 362.804 157.415 362.577 157.837C362.349 158.253 362.044 158.592 361.66 158.852C361.277 159.113 360.848 159.3 360.375 159.413V159.555C360.891 159.584 361.386 159.742 361.859 160.031C362.337 160.315 362.728 160.718 363.031 161.239C363.334 161.759 363.486 162.389 363.486 163.128C363.486 163.881 363.303 164.558 362.939 165.159C362.574 165.756 362.025 166.227 361.291 166.572C360.557 166.918 359.634 167.091 358.521 167.091H352.633ZM355.268 164.889H358.102C359.059 164.889 359.747 164.707 360.169 164.342C360.595 163.973 360.808 163.499 360.808 162.922C360.808 162.491 360.702 162.103 360.489 161.757C360.275 161.407 359.972 161.132 359.579 160.933C359.186 160.73 358.718 160.628 358.173 160.628H355.268V164.889ZM355.268 158.731H357.875C358.329 158.731 358.739 158.649 359.104 158.483C359.468 158.312 359.755 158.073 359.963 157.766C360.176 157.453 360.283 157.084 360.283 156.658C360.283 156.094 360.084 155.63 359.686 155.266C359.293 154.901 358.708 154.719 357.932 154.719H355.268V158.731ZM365.778 167.091V152.545H375.238V154.754H368.413V158.703H374.748V160.912H368.413V164.882H375.295V167.091H365.778ZM389.879 152.545V167.091H387.536L380.682 157.183H380.561V167.091H377.926V152.545H380.284L387.131 162.46H387.259V152.545H389.879ZM402.495 157.19C402.377 156.807 402.213 156.463 402.005 156.16C401.801 155.853 401.555 155.59 401.266 155.372C400.982 155.154 400.655 154.991 400.286 154.882C399.917 154.768 399.514 154.712 399.079 154.712C398.297 154.712 397.601 154.908 396.991 155.301C396.38 155.694 395.899 156.272 395.549 157.034C395.203 157.792 395.03 158.715 395.03 159.804C395.03 160.902 395.203 161.833 395.549 162.595C395.895 163.357 396.375 163.937 396.991 164.335C397.606 164.728 398.321 164.925 399.136 164.925C399.874 164.925 400.513 164.783 401.053 164.498C401.598 164.214 402.017 163.812 402.31 163.291C402.604 162.766 402.751 162.15 402.751 161.445L403.347 161.537H399.398V159.477H405.3V161.224C405.3 162.47 405.035 163.547 404.505 164.456C403.975 165.365 403.245 166.066 402.317 166.558C401.389 167.046 400.324 167.29 399.121 167.29C397.781 167.29 396.605 166.989 395.591 166.388C394.583 165.782 393.795 164.922 393.226 163.81C392.663 162.692 392.381 161.366 392.381 159.832C392.381 158.658 392.547 157.609 392.878 156.686C393.215 155.763 393.683 154.979 394.285 154.335C394.886 153.686 395.591 153.194 396.401 152.858C397.211 152.517 398.091 152.347 399.043 152.347C399.848 152.347 400.599 152.465 401.295 152.702C401.991 152.934 402.609 153.265 403.148 153.696C403.693 154.127 404.14 154.638 404.491 155.23C404.841 155.822 405.071 156.475 405.18 157.19H402.495ZM407.848 167.091V152.545H410.483V159.229H410.661L416.335 152.545H419.553L413.928 159.072L419.602 167.091H416.435L412.095 160.855L410.483 162.758V167.091H407.848ZM421.383 167.091V152.545H430.844V154.754H424.018V158.703H430.354V160.912H424.018V164.882H430.9V167.091H421.383ZM433.532 167.091V152.545H436.167V164.882H442.573V167.091H433.532Z" fill="#7B7474"/>
<path d="M73.2155 92.7603L69.1104 78.2148H71.9442L74.5649 88.9037H74.6998L77.4981 78.2148H80.0763L82.8817 88.9108H83.0095L85.6302 78.2148H88.464L84.3589 92.7603H81.7595L78.8476 82.5543H78.7339L75.8149 92.7603H73.2155ZM101.96 83.1225H99.3039C99.2281 82.6869 99.0885 82.301 98.8849 81.9648C98.6813 81.6239 98.4279 81.3351 98.1249 81.0983C97.8219 80.8616 97.4762 80.684 97.088 80.5657C96.7045 80.4425 96.2902 80.381 95.8451 80.381C95.0544 80.381 94.3536 80.5799 93.7428 80.9776C93.132 81.3706 92.6538 81.9482 92.3081 82.7105C91.9625 83.4681 91.7897 84.3938 91.7897 85.4875C91.7897 86.6002 91.9625 87.5377 92.3081 88.3C92.6585 89.0576 93.1367 89.6305 93.7428 90.0188C94.3536 90.4023 95.052 90.5941 95.838 90.5941C96.2736 90.5941 96.6808 90.5372 97.0596 90.4236C97.4431 90.3052 97.7864 90.1324 98.0894 89.9051C98.3972 89.6779 98.6552 89.3985 98.8635 89.0671C99.0766 88.7356 99.2234 88.3568 99.3039 87.9307L101.96 87.9449C101.861 88.6362 101.645 89.2849 101.314 89.8909C100.987 90.497 100.559 91.032 100.028 91.496C99.498 91.9553 98.8778 92.3152 98.1675 92.5756C97.4573 92.8313 96.6689 92.9591 95.8025 92.9591C94.5241 92.9591 93.383 92.6632 92.3792 92.0713C91.3754 91.4795 90.5847 90.6248 90.007 89.5074C89.4294 88.39 89.1405 87.05 89.1405 85.4875C89.1405 83.9203 89.4317 82.5803 90.0141 81.4676C90.5965 80.3502 91.3896 79.4956 92.3934 78.9037C93.3972 78.3119 94.5335 78.0159 95.8025 78.0159C96.6121 78.0159 97.365 78.1296 98.061 78.3568C98.757 78.5841 99.3773 78.9179 99.9218 79.3583C100.466 79.7939 100.914 80.3289 101.264 80.9634C101.619 81.5931 101.851 82.3128 101.96 83.1225Z" fill="#7B7474"/>
<path d="M743.699 174.091V159.545H749.153C750.271 159.545 751.208 159.739 751.966 160.128C752.728 160.516 753.303 161.061 753.692 161.761C754.085 162.457 754.281 163.269 754.281 164.197C754.281 165.13 754.082 165.94 753.685 166.626C753.292 167.308 752.712 167.836 751.945 168.21C751.178 168.579 750.235 168.764 749.118 168.764H745.233V166.577H748.763C749.416 166.577 749.951 166.487 750.368 166.307C750.785 166.122 751.092 165.855 751.291 165.504C751.495 165.149 751.597 164.713 751.597 164.197C751.597 163.681 751.495 163.241 751.291 162.876C751.088 162.507 750.777 162.228 750.361 162.038C749.944 161.844 749.407 161.747 748.749 161.747H746.334V174.091H743.699ZM751.213 167.5L754.814 174.091H751.874L748.337 167.5H751.213ZM758.177 174.247C757.746 174.247 757.377 174.096 757.069 173.793C756.761 173.489 756.61 173.12 756.614 172.685C756.61 172.258 756.761 171.894 757.069 171.591C757.377 171.288 757.746 171.136 758.177 171.136C758.593 171.136 758.956 171.288 759.263 171.591C759.576 171.894 759.735 172.258 759.739 172.685C759.735 172.973 759.659 173.236 759.512 173.473C759.37 173.71 759.181 173.899 758.944 174.041C758.712 174.178 758.456 174.247 758.177 174.247ZM767.019 174.091V159.545H769.654V166.229H769.832L775.506 159.545H778.724L773.099 166.072L778.773 174.091H775.606L771.266 167.855L769.654 169.758V174.091H767.019ZM780.554 174.091V159.545H790.015V161.754H783.189V165.703H789.524V167.912H783.189V171.882H790.071V174.091H780.554ZM792.703 174.091V159.545H795.338V171.882H801.744V174.091H792.703ZM806.446 174.091H803.633L808.754 159.545H812.007L817.135 174.091H814.322L810.437 162.528H810.323L806.446 174.091ZM806.538 168.388H814.208V170.504H806.538V168.388ZM826.721 163.544C826.655 162.924 826.375 162.441 825.883 162.095C825.395 161.749 824.761 161.577 823.979 161.577C823.43 161.577 822.959 161.659 822.566 161.825C822.173 161.991 821.872 162.216 821.664 162.5C821.456 162.784 821.349 163.108 821.344 163.473C821.344 163.776 821.413 164.039 821.55 164.261C821.692 164.484 821.884 164.673 822.126 164.829C822.367 164.981 822.635 165.109 822.928 165.213C823.222 165.317 823.518 165.405 823.816 165.476L825.18 165.817C825.729 165.945 826.257 166.117 826.763 166.335C827.275 166.553 827.732 166.828 828.134 167.159C828.541 167.49 828.863 167.891 829.1 168.359C829.337 168.828 829.455 169.377 829.455 170.007C829.455 170.859 829.237 171.61 828.802 172.258C828.366 172.902 827.736 173.407 826.913 173.771C826.093 174.131 825.102 174.311 823.937 174.311C822.805 174.311 821.823 174.136 820.989 173.785C820.161 173.435 819.512 172.924 819.043 172.251C818.579 171.579 818.328 170.76 818.29 169.794H820.883C820.921 170.301 821.077 170.722 821.352 171.058C821.626 171.394 821.984 171.645 822.424 171.811C822.869 171.977 823.366 172.06 823.915 172.06C824.488 172.06 824.99 171.974 825.421 171.804C825.857 171.629 826.198 171.387 826.444 171.079C826.69 170.767 826.816 170.402 826.82 169.986C826.816 169.607 826.704 169.294 826.486 169.048C826.269 168.797 825.963 168.589 825.57 168.423C825.182 168.253 824.727 168.101 824.207 167.969L822.552 167.543C821.354 167.235 820.407 166.768 819.711 166.143C819.02 165.514 818.674 164.678 818.674 163.636C818.674 162.779 818.906 162.029 819.37 161.385C819.839 160.741 820.476 160.241 821.28 159.886C822.085 159.526 822.997 159.347 824.015 159.347C825.047 159.347 825.951 159.526 826.728 159.886C827.509 160.241 828.122 160.736 828.567 161.371C829.013 162 829.242 162.725 829.256 163.544H826.721Z" fill="#7B7474"/>
<path d="M1047.24 174.091V159.545H1052.7C1053.81 159.545 1054.75 159.739 1055.51 160.128C1056.27 160.516 1056.85 161.061 1057.24 161.761C1057.63 162.457 1057.83 163.269 1057.83 164.197C1057.83 165.13 1057.63 165.94 1057.23 166.626C1056.84 167.308 1056.26 167.836 1055.49 168.21C1054.72 168.579 1053.78 168.764 1052.66 168.764H1048.78V166.577H1052.31C1052.96 166.577 1053.5 166.487 1053.91 166.307C1054.33 166.122 1054.64 165.855 1054.84 165.504C1055.04 165.149 1055.14 164.713 1055.14 164.197C1055.14 163.681 1055.04 163.241 1054.84 162.876C1054.63 162.507 1054.32 162.228 1053.9 162.038C1053.49 161.844 1052.95 161.747 1052.29 161.747H1049.88V174.091H1047.24ZM1054.76 167.5L1058.36 174.091H1055.42L1051.88 167.5H1054.76ZM1061.72 174.247C1061.29 174.247 1060.92 174.096 1060.61 173.793C1060.31 173.489 1060.15 173.12 1060.16 172.685C1060.15 172.258 1060.31 171.894 1060.61 171.591C1060.92 171.288 1061.29 171.136 1061.72 171.136C1062.14 171.136 1062.5 171.288 1062.81 171.591C1063.12 171.894 1063.28 172.258 1063.28 172.685C1063.28 172.973 1063.2 173.236 1063.06 173.473C1062.91 173.71 1062.72 173.899 1062.49 174.041C1062.26 174.178 1062 174.247 1061.72 174.247ZM1070.56 174.091V159.545H1073.2V166.229H1073.38L1079.05 159.545H1082.27L1076.64 166.072L1082.32 174.091H1079.15L1074.81 167.855L1073.2 169.758V174.091H1070.56ZM1084.1 174.091V159.545H1093.56V161.754H1086.73V165.703H1093.07V167.912H1086.73V171.882H1093.62V174.091H1084.1ZM1096.25 174.091V159.545H1098.88V171.882H1105.29V174.091H1096.25ZM1109.99 174.091H1107.18L1112.3 159.545H1115.55L1120.68 174.091H1117.87L1113.98 162.528H1113.87L1109.99 174.091ZM1110.08 168.388H1117.75V170.504H1110.08V168.388ZM1130.26 163.544C1130.2 162.924 1129.92 162.441 1129.43 162.095C1128.94 161.749 1128.3 161.577 1127.52 161.577C1126.97 161.577 1126.5 161.659 1126.11 161.825C1125.72 161.991 1125.42 162.216 1125.21 162.5C1125 162.784 1124.89 163.108 1124.89 163.473C1124.89 163.776 1124.96 164.039 1125.09 164.261C1125.24 164.484 1125.43 164.673 1125.67 164.829C1125.91 164.981 1126.18 165.109 1126.47 165.213C1126.77 165.317 1127.06 165.405 1127.36 165.476L1128.72 165.817C1129.27 165.945 1129.8 166.117 1130.31 166.335C1130.82 166.553 1131.28 166.828 1131.68 167.159C1132.09 167.49 1132.41 167.891 1132.64 168.359C1132.88 168.828 1133 169.377 1133 170.007C1133 170.859 1132.78 171.61 1132.35 172.258C1131.91 172.902 1131.28 173.407 1130.46 173.771C1129.64 174.131 1128.65 174.311 1127.48 174.311C1126.35 174.311 1125.37 174.136 1124.53 173.785C1123.7 173.435 1123.06 172.924 1122.59 172.251C1122.12 171.579 1121.87 170.76 1121.83 169.794H1124.43C1124.46 170.301 1124.62 170.722 1124.9 171.058C1125.17 171.394 1125.53 171.645 1125.97 171.811C1126.41 171.977 1126.91 172.06 1127.46 172.06C1128.03 172.06 1128.53 171.974 1128.97 171.804C1129.4 171.629 1129.74 171.387 1129.99 171.079C1130.23 170.767 1130.36 170.402 1130.36 169.986C1130.36 169.607 1130.25 169.294 1130.03 169.048C1129.81 168.797 1129.51 168.589 1129.11 168.423C1128.73 168.253 1128.27 168.101 1127.75 167.969L1126.1 167.543C1124.9 167.235 1123.95 166.768 1123.25 166.143C1122.56 165.514 1122.22 164.678 1122.22 163.636C1122.22 162.779 1122.45 162.029 1122.91 161.385C1123.38 160.741 1124.02 160.241 1124.82 159.886C1125.63 159.526 1126.54 159.347 1127.56 159.347C1128.59 159.347 1129.5 159.526 1130.27 159.886C1131.05 160.241 1131.67 160.736 1132.11 161.371C1132.56 162 1132.79 162.725 1132.8 163.544H1130.26Z" fill="#7B7474"/>
<path d="M1084.79 532.144V517.599H1090.25C1091.36 517.599 1092.3 517.793 1093.06 518.181C1093.82 518.569 1094.4 519.114 1094.79 519.814C1095.18 520.511 1095.37 521.323 1095.37 522.251C1095.37 523.183 1095.18 523.993 1094.78 524.68C1094.39 525.361 1093.81 525.889 1093.04 526.263C1092.27 526.633 1091.33 526.817 1090.21 526.817H1086.33V524.63H1089.86C1090.51 524.63 1091.04 524.54 1091.46 524.36C1091.88 524.175 1092.19 523.908 1092.38 523.557C1092.59 523.202 1092.69 522.767 1092.69 522.251C1092.69 521.734 1092.59 521.294 1092.38 520.93C1092.18 520.56 1091.87 520.281 1091.45 520.091C1091.04 519.897 1090.5 519.8 1089.84 519.8H1087.43V532.144H1084.79ZM1092.31 525.553L1095.91 532.144H1092.97L1089.43 525.553H1092.31ZM1099.27 532.3C1098.84 532.3 1098.47 532.149 1098.16 531.846C1097.85 531.543 1097.7 531.173 1097.71 530.738C1097.7 530.312 1097.85 529.947 1098.16 529.644C1098.47 529.341 1098.84 529.189 1099.27 529.189C1099.69 529.189 1100.05 529.341 1100.36 529.644C1100.67 529.947 1100.83 530.312 1100.83 530.738C1100.83 531.027 1100.75 531.289 1100.61 531.526C1100.46 531.763 1100.27 531.952 1100.04 532.094C1099.81 532.232 1099.55 532.3 1099.27 532.3ZM1108.11 532.144V517.599H1113.57C1114.68 517.599 1115.62 517.807 1116.38 518.224C1117.14 518.64 1117.72 519.213 1118.11 519.942C1118.5 520.667 1118.7 521.491 1118.7 522.414C1118.7 523.347 1118.5 524.175 1118.11 524.9C1117.71 525.624 1117.13 526.195 1116.37 526.611C1115.6 527.023 1114.65 527.229 1113.53 527.229H1109.92V525.063H1113.18C1113.83 525.063 1114.37 524.949 1114.78 524.722C1115.2 524.495 1115.51 524.182 1115.71 523.785C1115.91 523.387 1116.01 522.93 1116.01 522.414C1116.01 521.898 1115.91 521.443 1115.71 521.05C1115.51 520.657 1115.2 520.352 1114.77 520.134C1114.36 519.912 1113.82 519.8 1113.16 519.8H1110.75V532.144H1108.11ZM1120.98 532.144V517.599H1130.44V519.807H1123.62V523.756H1129.95V525.965H1123.62V529.935H1130.5V532.144H1120.98ZM1133.13 532.144V517.599H1138.59C1139.7 517.599 1140.64 517.793 1141.4 518.181C1142.16 518.569 1142.74 519.114 1143.13 519.814C1143.52 520.511 1143.71 521.323 1143.71 522.251C1143.71 523.183 1143.52 523.993 1143.12 524.68C1142.73 525.361 1142.15 525.889 1141.38 526.263C1140.61 526.633 1139.67 526.817 1138.55 526.817H1134.67V524.63H1138.2C1138.85 524.63 1139.38 524.54 1139.8 524.36C1140.22 524.175 1140.53 523.908 1140.72 523.557C1140.93 523.202 1141.03 522.767 1141.03 522.251C1141.03 521.734 1140.93 521.294 1140.72 520.93C1140.52 520.56 1140.21 520.281 1139.79 520.091C1139.38 519.897 1138.84 519.8 1138.18 519.8H1135.77V532.144H1133.13ZM1140.65 525.553L1144.25 532.144H1141.31L1137.77 525.553H1140.65ZM1146.14 532.144V517.599H1151.59C1152.71 517.599 1153.65 517.807 1154.41 518.224C1155.17 518.64 1155.74 519.213 1156.13 519.942C1156.53 520.667 1156.72 521.491 1156.72 522.414C1156.72 523.347 1156.53 524.175 1156.13 524.9C1155.74 525.624 1155.16 526.195 1154.39 526.611C1153.63 527.023 1152.68 527.229 1151.56 527.229H1147.94V525.063H1151.2C1151.86 525.063 1152.39 524.949 1152.81 524.722C1153.23 524.495 1153.53 524.182 1153.73 523.785C1153.94 523.387 1154.04 522.93 1154.04 522.414C1154.04 521.898 1153.94 521.443 1153.73 521.05C1153.53 520.657 1153.22 520.352 1152.8 520.134C1152.39 519.912 1151.85 519.8 1151.19 519.8H1148.78V532.144H1146.14ZM1168.18 517.599H1170.82V527.101C1170.82 528.143 1170.57 529.059 1170.08 529.85C1169.59 530.641 1168.9 531.259 1168.02 531.704C1167.13 532.144 1166.1 532.364 1164.91 532.364C1163.72 532.364 1162.69 532.144 1161.8 531.704C1160.92 531.259 1160.23 530.641 1159.74 529.85C1159.26 529.059 1159.01 528.143 1159.01 527.101V517.599H1161.65V526.881C1161.65 527.487 1161.78 528.027 1162.04 528.501C1162.31 528.974 1162.69 529.346 1163.18 529.616C1163.67 529.881 1164.25 530.013 1164.91 530.013C1165.58 530.013 1166.16 529.881 1166.65 529.616C1167.14 529.346 1167.52 528.974 1167.78 528.501C1168.05 528.027 1168.18 527.487 1168.18 526.881V517.599ZM1181.58 521.597C1181.52 520.977 1181.24 520.494 1180.75 520.148C1180.26 519.803 1179.62 519.63 1178.84 519.63C1178.29 519.63 1177.82 519.713 1177.43 519.878C1177.04 520.044 1176.74 520.269 1176.53 520.553C1176.32 520.837 1176.21 521.162 1176.21 521.526C1176.21 521.829 1176.28 522.092 1176.41 522.314C1176.56 522.537 1176.75 522.726 1176.99 522.883C1177.23 523.034 1177.5 523.162 1177.79 523.266C1178.09 523.37 1178.38 523.458 1178.68 523.529L1180.04 523.87C1180.59 523.998 1181.12 524.171 1181.63 524.388C1182.14 524.606 1182.6 524.881 1183 525.212C1183.4 525.544 1183.73 525.944 1183.96 526.413C1184.2 526.881 1184.32 527.431 1184.32 528.06C1184.32 528.913 1184.1 529.663 1183.67 530.312C1183.23 530.956 1182.6 531.46 1181.78 531.824C1180.96 532.184 1179.96 532.364 1178.8 532.364C1177.67 532.364 1176.69 532.189 1175.85 531.839C1175.02 531.488 1174.38 530.977 1173.91 530.305C1173.44 529.632 1173.19 528.813 1173.15 527.847H1175.75C1175.78 528.354 1175.94 528.775 1176.21 529.111C1176.49 529.448 1176.85 529.698 1177.29 529.864C1177.73 530.03 1178.23 530.113 1178.78 530.113C1179.35 530.113 1179.85 530.028 1180.28 529.857C1180.72 529.682 1181.06 529.44 1181.31 529.133C1181.55 528.82 1181.68 528.456 1181.68 528.039C1181.68 527.66 1181.57 527.348 1181.35 527.101C1181.13 526.85 1180.83 526.642 1180.43 526.476C1180.05 526.306 1179.59 526.154 1179.07 526.022L1177.42 525.596C1176.22 525.288 1175.27 524.822 1174.57 524.197C1173.88 523.567 1173.54 522.731 1173.54 521.689C1173.54 520.832 1173.77 520.082 1174.23 519.438C1174.7 518.794 1175.34 518.295 1176.14 517.939C1176.95 517.58 1177.86 517.4 1178.88 517.4C1179.91 517.4 1180.81 517.58 1181.59 517.939C1182.37 518.295 1182.99 518.789 1183.43 519.424C1183.88 520.054 1184.11 520.778 1184.12 521.597H1181.58ZM1186.03 519.807V517.599H1197.63V519.807H1193.14V532.144H1190.52V519.807H1186.03ZM1199.98 532.144H1197.17L1202.29 517.599H1205.54L1210.67 532.144H1207.86L1203.97 520.582H1203.86L1199.98 532.144ZM1200.07 526.441H1207.74V528.557H1200.07V526.441ZM1212.59 532.144V517.599H1215.22V524.282H1215.4L1221.07 517.599H1224.29L1218.67 524.126L1224.34 532.144H1221.17L1216.83 525.908L1215.22 527.812V532.144H1212.59ZM1227.99 532.144H1225.18L1230.3 517.599H1233.55L1238.68 532.144H1235.87L1231.98 520.582H1231.87L1227.99 532.144ZM1228.08 526.441H1235.75V528.557H1228.08V526.441ZM1242.46 532.144H1239.65L1244.77 517.599H1248.02L1253.15 532.144H1250.34L1246.45 520.582H1246.34L1242.46 532.144ZM1242.55 526.441H1250.22V528.557H1242.55V526.441ZM1267.02 517.599V532.144H1264.68L1257.82 522.236H1257.7V532.144H1255.07V517.599H1257.42L1264.27 527.513H1264.4V517.599H1267.02Z" fill="#7B7474"/>
<path d="M1466.05 544.144V529.599H1471.5C1472.62 529.599 1473.56 529.793 1474.32 530.181C1475.08 530.569 1475.65 531.114 1476.04 531.814C1476.43 532.511 1476.63 533.323 1476.63 534.251C1476.63 535.183 1476.43 535.993 1476.03 536.68C1475.64 537.361 1475.06 537.889 1474.29 538.263C1473.53 538.633 1472.58 538.817 1471.47 538.817H1467.58V536.63H1471.11C1471.77 536.63 1472.3 536.54 1472.72 536.36C1473.13 536.175 1473.44 535.908 1473.64 535.557C1473.84 535.202 1473.95 534.767 1473.95 534.251C1473.95 533.734 1473.84 533.294 1473.64 532.93C1473.44 532.56 1473.13 532.281 1472.71 532.091C1472.29 531.897 1471.76 531.8 1471.1 531.8H1468.68V544.144H1466.05ZM1473.56 537.553L1477.16 544.144H1474.22L1470.69 537.553H1473.56ZM1480.53 544.3C1480.1 544.3 1479.73 544.149 1479.42 543.846C1479.11 543.543 1478.96 543.173 1478.96 542.738C1478.96 542.312 1479.11 541.947 1479.42 541.644C1479.73 541.341 1480.1 541.189 1480.53 541.189C1480.94 541.189 1481.31 541.341 1481.61 541.644C1481.93 541.947 1482.08 542.312 1482.09 542.738C1482.08 543.027 1482.01 543.289 1481.86 543.526C1481.72 543.763 1481.53 543.952 1481.29 544.094C1481.06 544.232 1480.81 544.3 1480.53 544.3ZM1489.37 544.144V529.599H1492V541.935H1498.41V544.144H1489.37ZM1503.11 544.144H1500.3L1505.42 529.599H1508.67L1513.8 544.144H1510.99L1507.1 532.582H1506.99L1503.11 544.144ZM1503.2 538.441H1510.87V540.557H1503.2V538.441ZM1515.72 544.144V529.599H1521.28C1522.34 529.599 1523.21 529.764 1523.91 530.096C1524.61 530.422 1525.13 530.87 1525.47 531.438C1525.83 532.006 1526 532.65 1526 533.37C1526 533.962 1525.89 534.468 1525.66 534.89C1525.43 535.306 1525.13 535.645 1524.74 535.905C1524.36 536.166 1523.93 536.353 1523.46 536.466V536.609C1523.97 536.637 1524.47 536.796 1524.94 537.084C1525.42 537.368 1525.81 537.771 1526.11 538.292C1526.42 538.813 1526.57 539.442 1526.57 540.181C1526.57 540.934 1526.39 541.611 1526.02 542.212C1525.66 542.809 1525.11 543.28 1524.37 543.626C1523.64 543.971 1522.72 544.144 1521.6 544.144H1515.72ZM1518.35 541.942H1521.19C1522.14 541.942 1522.83 541.76 1523.25 541.395C1523.68 541.026 1523.89 540.553 1523.89 539.975C1523.89 539.544 1523.78 539.156 1523.57 538.81C1523.36 538.46 1523.06 538.185 1522.66 537.986C1522.27 537.783 1521.8 537.681 1521.26 537.681H1518.35V541.942ZM1518.35 535.785H1520.96C1521.41 535.785 1521.82 535.702 1522.19 535.536C1522.55 535.366 1522.84 535.127 1523.05 534.819C1523.26 534.506 1523.37 534.137 1523.37 533.711C1523.37 533.147 1523.17 532.683 1522.77 532.319C1522.38 531.954 1521.79 531.772 1521.01 531.772H1518.35V535.785ZM1530.33 544.3C1529.9 544.3 1529.53 544.149 1529.22 543.846C1528.92 543.543 1528.76 543.173 1528.77 542.738C1528.76 542.312 1528.92 541.947 1529.22 541.644C1529.53 541.341 1529.9 541.189 1530.33 541.189C1530.75 541.189 1531.11 541.341 1531.42 541.644C1531.73 541.947 1531.89 542.312 1531.89 542.738C1531.89 543.027 1531.81 543.289 1531.67 543.526C1531.52 543.763 1531.33 543.952 1531.1 544.094C1530.87 544.232 1530.61 544.3 1530.33 544.3ZM1539.17 544.144V529.599H1548.49V531.807H1541.81V535.756H1547.85V537.965H1541.81V544.144H1539.17ZM1553.53 529.599V544.144H1550.89V529.599H1553.53ZM1564.29 533.597C1564.22 532.977 1563.94 532.494 1563.45 532.148C1562.96 531.803 1562.33 531.63 1561.54 531.63C1560.99 531.63 1560.52 531.713 1560.13 531.878C1559.74 532.044 1559.44 532.269 1559.23 532.553C1559.02 532.837 1558.91 533.162 1558.91 533.526C1558.91 533.829 1558.98 534.092 1559.11 534.314C1559.26 534.537 1559.45 534.726 1559.69 534.883C1559.93 535.034 1560.2 535.162 1560.49 535.266C1560.79 535.37 1561.08 535.458 1561.38 535.529L1562.74 535.87C1563.29 535.998 1563.82 536.171 1564.33 536.388C1564.84 536.606 1565.3 536.881 1565.7 537.212C1566.11 537.544 1566.43 537.944 1566.66 538.413C1566.9 538.881 1567.02 539.431 1567.02 540.06C1567.02 540.913 1566.8 541.663 1566.37 542.312C1565.93 542.956 1565.3 543.46 1564.48 543.824C1563.66 544.184 1562.67 544.364 1561.5 544.364C1560.37 544.364 1559.39 544.189 1558.55 543.839C1557.73 543.488 1557.08 542.977 1556.61 542.305C1556.14 541.632 1555.89 540.813 1555.85 539.847H1558.45C1558.49 540.354 1558.64 540.775 1558.92 541.111C1559.19 541.448 1559.55 541.698 1559.99 541.864C1560.43 542.03 1560.93 542.113 1561.48 542.113C1562.05 542.113 1562.55 542.028 1562.99 541.857C1563.42 541.682 1563.76 541.44 1564.01 541.133C1564.25 540.82 1564.38 540.456 1564.38 540.039C1564.38 539.66 1564.27 539.348 1564.05 539.101C1563.83 538.85 1563.53 538.642 1563.13 538.476C1562.75 538.306 1562.29 538.154 1561.77 538.022L1560.12 537.596C1558.92 537.288 1557.97 536.822 1557.28 536.197C1556.58 535.567 1556.24 534.731 1556.24 533.689C1556.24 532.832 1556.47 532.082 1556.93 531.438C1557.4 530.794 1558.04 530.295 1558.84 529.939C1559.65 529.58 1560.56 529.4 1561.58 529.4C1562.61 529.4 1563.52 529.58 1564.29 529.939C1565.07 530.295 1565.69 530.789 1566.13 531.424C1566.58 532.054 1566.81 532.778 1566.82 533.597H1564.29ZM1572 529.599V544.144H1569.37V529.599H1572ZM1574.86 544.144V529.599H1577.49V536.282H1577.67L1583.34 529.599H1586.56L1580.94 536.126L1586.61 544.144H1583.44L1579.1 537.908L1577.49 539.812V544.144H1574.86ZM1590.26 544.144H1587.45L1592.57 529.599H1595.82L1600.95 544.144H1598.14L1594.25 532.582H1594.14L1590.26 544.144ZM1590.35 538.441H1598.02V540.557H1590.35V538.441ZM1608.69 528.917L1604 546.332H1601.75L1606.44 528.917H1608.69ZM1610.44 544.144V529.599H1613.08V536.282H1613.26L1618.93 529.599H1622.15L1616.52 536.126L1622.2 544.144H1619.03L1614.69 537.908L1613.08 539.812V544.144H1610.44ZM1626.61 529.599V544.144H1623.98V529.599H1626.61ZM1629.47 529.599H1632.69L1637.01 540.138H1637.18L1641.5 529.599H1644.72V544.144H1642.19V534.151H1642.06L1638.04 544.101H1636.15L1632.13 534.13H1631.99V544.144H1629.47V529.599ZM1650.23 529.599V544.144H1647.59V529.599H1650.23ZM1654.95 544.144H1652.14L1657.26 529.599H1660.51L1665.64 544.144H1662.82L1658.94 532.582H1658.83L1654.95 544.144ZM1655.04 538.441H1662.71V540.557H1655.04V538.441Z" fill="#7B7474"/>
<path d="M1597.77 425.177V410.632H1603.23C1604.35 410.632 1605.28 410.826 1606.04 411.214C1606.8 411.602 1607.38 412.147 1607.77 412.848C1608.16 413.544 1608.36 414.356 1608.36 415.284C1608.36 416.217 1608.16 417.026 1607.76 417.713C1607.37 418.395 1606.79 418.923 1606.02 419.297C1605.25 419.666 1604.31 419.851 1603.19 419.851H1599.31V417.663H1602.84C1603.49 417.663 1604.03 417.573 1604.44 417.393C1604.86 417.208 1605.17 416.941 1605.37 416.591C1605.57 416.235 1605.67 415.8 1605.67 415.284C1605.67 414.768 1605.57 414.327 1605.37 413.963C1605.16 413.593 1604.85 413.314 1604.44 413.125C1604.02 412.931 1603.48 412.833 1602.82 412.833H1600.41V425.177H1597.77ZM1605.29 418.586L1608.89 425.177H1605.95L1602.41 418.586H1605.29ZM1612.25 425.333C1611.82 425.333 1611.45 425.182 1611.15 424.879C1610.84 424.576 1610.69 424.207 1610.69 423.771C1610.69 423.345 1610.84 422.98 1611.15 422.677C1611.45 422.374 1611.82 422.223 1612.25 422.223C1612.67 422.223 1613.03 422.374 1613.34 422.677C1613.65 422.98 1613.81 423.345 1613.82 423.771C1613.81 424.06 1613.73 424.323 1613.59 424.559C1613.45 424.796 1613.26 424.985 1613.02 425.128C1612.79 425.265 1612.53 425.333 1612.25 425.333ZM1634.09 417.905C1634.09 419.472 1633.8 420.814 1633.21 421.932C1632.63 423.044 1631.83 423.896 1630.83 424.488C1629.82 425.08 1628.68 425.376 1627.41 425.376C1626.14 425.376 1624.99 425.08 1623.99 424.488C1622.98 423.892 1622.19 423.037 1621.6 421.924C1621.02 420.807 1620.73 419.467 1620.73 417.905C1620.73 416.337 1621.02 414.997 1621.6 413.885C1622.19 412.767 1622.98 411.913 1623.99 411.321C1624.99 410.729 1626.14 410.433 1627.41 410.433C1628.68 410.433 1629.82 410.729 1630.83 411.321C1631.83 411.913 1632.63 412.767 1633.21 413.885C1633.8 414.997 1634.09 416.337 1634.09 417.905ZM1631.44 417.905C1631.44 416.801 1631.27 415.871 1630.92 415.113C1630.58 414.351 1630.11 413.776 1629.5 413.387C1628.9 412.994 1628.2 412.798 1627.41 412.798C1626.62 412.798 1625.92 412.994 1625.31 413.387C1624.71 413.776 1624.23 414.351 1623.89 415.113C1623.55 415.871 1623.38 416.801 1623.38 417.905C1623.38 419.008 1623.55 419.941 1623.89 420.703C1624.23 421.46 1624.71 422.036 1625.31 422.429C1625.92 422.817 1626.62 423.011 1627.41 423.011C1628.2 423.011 1628.9 422.817 1629.5 422.429C1630.11 422.036 1630.58 421.46 1630.92 420.703C1631.27 419.941 1631.44 419.008 1631.44 417.905ZM1644.49 414.63C1644.42 414.01 1644.14 413.527 1643.65 413.182C1643.16 412.836 1642.53 412.663 1641.75 412.663C1641.2 412.663 1640.73 412.746 1640.33 412.912C1639.94 413.077 1639.64 413.302 1639.43 413.586C1639.22 413.87 1639.12 414.195 1639.11 414.559C1639.11 414.862 1639.18 415.125 1639.32 415.348C1639.46 415.57 1639.65 415.76 1639.89 415.916C1640.13 416.067 1640.4 416.195 1640.7 416.299C1640.99 416.404 1641.29 416.491 1641.58 416.562L1642.95 416.903C1643.5 417.031 1644.02 417.204 1644.53 417.422C1645.04 417.639 1645.5 417.914 1645.9 418.245C1646.31 418.577 1646.63 418.977 1646.87 419.446C1647.1 419.914 1647.22 420.464 1647.22 421.093C1647.22 421.946 1647 422.696 1646.57 423.345C1646.13 423.989 1645.5 424.493 1644.68 424.858C1643.86 425.217 1642.87 425.397 1641.7 425.397C1640.57 425.397 1639.59 425.222 1638.76 424.872C1637.93 424.521 1637.28 424.01 1636.81 423.338C1636.35 422.665 1636.1 421.846 1636.06 420.88H1638.65C1638.69 421.387 1638.84 421.808 1639.12 422.145C1639.39 422.481 1639.75 422.732 1640.19 422.897C1640.64 423.063 1641.13 423.146 1641.68 423.146C1642.26 423.146 1642.76 423.061 1643.19 422.89C1643.62 422.715 1643.97 422.474 1644.21 422.166C1644.46 421.853 1644.58 421.489 1644.59 421.072C1644.58 420.693 1644.47 420.381 1644.25 420.135C1644.04 419.884 1643.73 419.675 1643.34 419.51C1642.95 419.339 1642.5 419.188 1641.97 419.055L1640.32 418.629C1639.12 418.321 1638.17 417.855 1637.48 417.23C1636.79 416.6 1636.44 415.764 1636.44 414.723C1636.44 413.866 1636.67 413.115 1637.14 412.471C1637.61 411.827 1638.24 411.328 1639.05 410.973C1639.85 410.613 1640.76 410.433 1641.78 410.433C1642.81 410.433 1643.72 410.613 1644.5 410.973C1645.28 411.328 1645.89 411.823 1646.34 412.457C1646.78 413.087 1647.01 413.811 1647.02 414.63H1644.49ZM1652.21 410.632V425.177H1649.57V410.632H1652.21ZM1662.96 414.63C1662.9 414.01 1662.62 413.527 1662.13 413.182C1661.64 412.836 1661 412.663 1660.22 412.663C1659.67 412.663 1659.2 412.746 1658.81 412.912C1658.42 413.077 1658.12 413.302 1657.91 413.586C1657.7 413.87 1657.59 414.195 1657.59 414.559C1657.59 414.862 1657.66 415.125 1657.79 415.348C1657.94 415.57 1658.13 415.76 1658.37 415.916C1658.61 416.067 1658.88 416.195 1659.17 416.299C1659.47 416.404 1659.76 416.491 1660.06 416.562L1661.42 416.903C1661.97 417.031 1662.5 417.204 1663.01 417.422C1663.52 417.639 1663.98 417.914 1664.38 418.245C1664.79 418.577 1665.11 418.977 1665.34 419.446C1665.58 419.914 1665.7 420.464 1665.7 421.093C1665.7 421.946 1665.48 422.696 1665.05 423.345C1664.61 423.989 1663.98 424.493 1663.16 424.858C1662.34 425.217 1661.35 425.397 1660.18 425.397C1659.05 425.397 1658.07 425.222 1657.23 424.872C1656.4 424.521 1655.76 424.01 1655.29 423.338C1654.82 422.665 1654.57 421.846 1654.53 420.88H1657.13C1657.16 421.387 1657.32 421.808 1657.6 422.145C1657.87 422.481 1658.23 422.732 1658.67 422.897C1659.11 423.063 1659.61 423.146 1660.16 423.146C1660.73 423.146 1661.23 423.061 1661.67 422.89C1662.1 422.715 1662.44 422.474 1662.69 422.166C1662.93 421.853 1663.06 421.489 1663.06 421.072C1663.06 420.693 1662.95 420.381 1662.73 420.135C1662.51 419.884 1662.21 419.675 1661.81 419.51C1661.43 419.339 1660.97 419.188 1660.45 419.055L1658.8 418.629C1657.6 418.321 1656.65 417.855 1655.96 417.23C1655.26 416.6 1654.92 415.764 1654.92 414.723C1654.92 413.866 1655.15 413.115 1655.61 412.471C1656.08 411.827 1656.72 411.328 1657.52 410.973C1658.33 410.613 1659.24 410.433 1660.26 410.433C1661.29 410.433 1662.2 410.613 1662.97 410.973C1663.75 411.328 1664.37 411.823 1664.81 412.457C1665.26 413.087 1665.49 413.811 1665.5 414.63H1662.96Z" fill="#7B7474"/>
<path d="M1518.26 174.091V159.545H1523.72C1524.84 159.545 1525.77 159.739 1526.53 160.128C1527.29 160.516 1527.87 161.061 1528.26 161.761C1528.65 162.457 1528.85 163.269 1528.85 164.197C1528.85 165.13 1528.65 165.94 1528.25 166.626C1527.86 167.308 1527.28 167.836 1526.51 168.21C1525.74 168.579 1524.8 168.764 1523.68 168.764H1519.8V166.577H1523.33C1523.98 166.577 1524.52 166.487 1524.93 166.307C1525.35 166.122 1525.66 165.855 1525.86 165.504C1526.06 165.149 1526.16 164.713 1526.16 164.197C1526.16 163.681 1526.06 163.241 1525.86 162.876C1525.65 162.507 1525.34 162.228 1524.93 162.038C1524.51 161.844 1523.97 161.747 1523.31 161.747H1520.9V174.091H1518.26ZM1525.78 167.5L1529.38 174.091H1526.44L1522.9 167.5H1525.78ZM1532.74 174.247C1532.31 174.247 1531.94 174.096 1531.63 173.793C1531.33 173.489 1531.17 173.12 1531.18 172.685C1531.17 172.258 1531.33 171.894 1531.63 171.591C1531.94 171.288 1532.31 171.136 1532.74 171.136C1533.16 171.136 1533.52 171.288 1533.83 171.591C1534.14 171.894 1534.3 172.258 1534.3 172.685C1534.3 172.973 1534.22 173.236 1534.08 173.473C1533.94 173.71 1533.75 173.899 1533.51 174.041C1533.28 174.178 1533.02 174.247 1532.74 174.247ZM1541.58 174.091V159.545H1544.22V166.229H1544.4L1550.07 159.545H1553.29L1547.66 166.072L1553.34 174.091H1550.17L1545.83 167.855L1544.22 169.758V174.091H1541.58ZM1555.12 174.091V159.545H1564.58V161.754H1557.75V165.703H1564.09V167.912H1557.75V171.882H1564.64V174.091H1555.12ZM1567.27 174.091V159.545H1569.9V171.882H1576.31V174.091H1567.27ZM1581.01 174.091H1578.2L1583.32 159.545H1586.57L1591.7 174.091H1588.89L1585 162.528H1584.89L1581.01 174.091ZM1581.1 168.388H1588.77V170.504H1581.1V168.388ZM1601.29 163.544C1601.22 162.924 1600.94 162.441 1600.45 162.095C1599.96 161.749 1599.33 161.577 1598.54 161.577C1598 161.577 1597.52 161.659 1597.13 161.825C1596.74 161.991 1596.44 162.216 1596.23 162.5C1596.02 162.784 1595.91 163.108 1595.91 163.473C1595.91 163.776 1595.98 164.039 1596.12 164.261C1596.26 164.484 1596.45 164.673 1596.69 164.829C1596.93 164.981 1597.2 165.109 1597.49 165.213C1597.79 165.317 1598.08 165.405 1598.38 165.476L1599.75 165.817C1600.29 165.945 1600.82 166.117 1601.33 166.335C1601.84 166.553 1602.3 166.828 1602.7 167.159C1603.11 167.49 1603.43 167.891 1603.67 168.359C1603.9 168.828 1604.02 169.377 1604.02 170.007C1604.02 170.859 1603.8 171.61 1603.37 172.258C1602.93 172.902 1602.3 173.407 1601.48 173.771C1600.66 174.131 1599.67 174.311 1598.5 174.311C1597.37 174.311 1596.39 174.136 1595.55 173.785C1594.73 173.435 1594.08 172.924 1593.61 172.251C1593.14 171.579 1592.89 170.76 1592.86 169.794H1595.45C1595.49 170.301 1595.64 170.722 1595.92 171.058C1596.19 171.394 1596.55 171.645 1596.99 171.811C1597.43 171.977 1597.93 172.06 1598.48 172.06C1599.05 172.06 1599.56 171.974 1599.99 171.804C1600.42 171.629 1600.76 171.387 1601.01 171.079C1601.26 170.767 1601.38 170.402 1601.39 169.986C1601.38 169.607 1601.27 169.294 1601.05 169.048C1600.83 168.797 1600.53 168.589 1600.14 168.423C1599.75 168.253 1599.29 168.101 1598.77 167.969L1597.12 167.543C1595.92 167.235 1594.97 166.768 1594.28 166.143C1593.59 165.514 1593.24 164.678 1593.24 163.636C1593.24 162.779 1593.47 162.029 1593.94 161.385C1594.4 160.741 1595.04 160.241 1595.85 159.886C1596.65 159.526 1597.56 159.347 1598.58 159.347C1599.61 159.347 1600.52 159.526 1601.29 159.886C1602.07 160.241 1602.69 160.736 1603.13 161.371C1603.58 162 1603.81 162.725 1603.82 163.544H1601.29Z" fill="#7B7474"/>
<path d="M1821.81 174.091V159.545H1827.26C1828.38 159.545 1829.32 159.739 1830.08 160.128C1830.84 160.516 1831.41 161.061 1831.8 161.761C1832.19 162.457 1832.39 163.269 1832.39 164.197C1832.39 165.13 1832.19 165.94 1831.79 166.626C1831.4 167.308 1830.82 167.836 1830.05 168.21C1829.29 168.579 1828.34 168.764 1827.23 168.764H1823.34V166.577H1826.87C1827.53 166.577 1828.06 166.487 1828.48 166.307C1828.89 166.122 1829.2 165.855 1829.4 165.504C1829.6 165.149 1829.71 164.713 1829.71 164.197C1829.71 163.681 1829.6 163.241 1829.4 162.876C1829.2 162.507 1828.89 162.228 1828.47 162.038C1828.05 161.844 1827.52 161.747 1826.86 161.747H1824.44V174.091H1821.81ZM1829.32 167.5L1832.92 174.091H1829.98L1826.45 167.5H1829.32ZM1836.29 174.247C1835.86 174.247 1835.49 174.096 1835.18 173.793C1834.87 173.489 1834.72 173.12 1834.72 172.685C1834.72 172.258 1834.87 171.894 1835.18 171.591C1835.49 171.288 1835.86 171.136 1836.29 171.136C1836.7 171.136 1837.07 171.288 1837.37 171.591C1837.69 171.894 1837.84 172.258 1837.85 172.685C1837.84 172.973 1837.77 173.236 1837.62 173.473C1837.48 173.71 1837.29 173.899 1837.05 174.041C1836.82 174.178 1836.57 174.247 1836.29 174.247ZM1845.13 174.091V159.545H1847.76V166.229H1847.94L1853.62 159.545H1856.83L1851.21 166.072L1856.88 174.091H1853.72L1849.38 167.855L1847.76 169.758V174.091H1845.13ZM1858.66 174.091V159.545H1868.12V161.754H1861.3V165.703H1867.63V167.912H1861.3V171.882H1868.18V174.091H1858.66ZM1870.81 174.091V159.545H1873.45V171.882H1879.85V174.091H1870.81ZM1884.55 174.091H1881.74L1886.86 159.545H1890.12L1895.24 174.091H1892.43L1888.55 162.528H1888.43L1884.55 174.091ZM1884.65 168.388H1892.32V170.504H1884.65V168.388ZM1904.83 163.544C1904.76 162.924 1904.48 162.441 1903.99 162.095C1903.5 161.749 1902.87 161.577 1902.09 161.577C1901.54 161.577 1901.07 161.659 1900.68 161.825C1900.28 161.991 1899.98 162.216 1899.77 162.5C1899.57 162.784 1899.46 163.108 1899.45 163.473C1899.45 163.776 1899.52 164.039 1899.66 164.261C1899.8 164.484 1899.99 164.673 1900.24 164.829C1900.48 164.981 1900.74 165.109 1901.04 165.213C1901.33 165.317 1901.63 165.405 1901.93 165.476L1903.29 165.817C1903.84 165.945 1904.37 166.117 1904.87 166.335C1905.38 166.553 1905.84 166.828 1906.24 167.159C1906.65 167.49 1906.97 167.891 1907.21 168.359C1907.45 168.828 1907.56 169.377 1907.56 170.007C1907.56 170.859 1907.35 171.61 1906.91 172.258C1906.48 172.902 1905.85 173.407 1905.02 173.771C1904.2 174.131 1903.21 174.311 1902.05 174.311C1900.91 174.311 1899.93 174.136 1899.1 173.785C1898.27 173.435 1897.62 172.924 1897.15 172.251C1896.69 171.579 1896.44 170.76 1896.4 169.794H1898.99C1899.03 170.301 1899.19 170.722 1899.46 171.058C1899.74 171.394 1900.09 171.645 1900.53 171.811C1900.98 171.977 1901.48 172.06 1902.02 172.06C1902.6 172.06 1903.1 171.974 1903.53 171.804C1903.97 171.629 1904.31 171.387 1904.55 171.079C1904.8 170.767 1904.92 170.402 1904.93 169.986C1904.92 169.607 1904.81 169.294 1904.6 169.048C1904.38 168.797 1904.07 168.589 1903.68 168.423C1903.29 168.253 1902.84 168.101 1902.32 167.969L1900.66 167.543C1899.46 167.235 1898.52 166.768 1897.82 166.143C1897.13 165.514 1896.78 164.678 1896.78 163.636C1896.78 162.779 1897.02 162.029 1897.48 161.385C1897.95 160.741 1898.58 160.241 1899.39 159.886C1900.19 159.526 1901.11 159.347 1902.12 159.347C1903.16 159.347 1904.06 159.526 1904.84 159.886C1905.62 160.241 1906.23 160.736 1906.68 161.371C1907.12 162 1907.35 162.725 1907.37 163.544H1904.83Z" fill="#7B7474"/>
<path d="M1238.82 316.457L1238.82 226.878M1238.82 1.44501L1238.82 226.878M1238.82 1.44501L1325.18 1.44501M1238.82 1.44501L940.245 1.44503M1411.53 1.44501L1411.53 226.878M1411.53 1.44501L1325.18 1.44501M1411.53 1.44501L1709.9 1.44499M1411.53 316.457L1411.53 226.878M1411.53 226.878L1325.18 226.878M1238.82 226.878L1325.18 226.878M1325.18 226.878L1325.18 1.44501M1.33446 316.457L1.33446 381.093L940.245 381.093M1.33446 316.457L1.33444 1.44501L83.9065 1.445M1.33446 316.457L64.5576 316.457M102.156 316.457L166.478 316.457M593.249 316.457L166.478 316.457M896.243 316.457L639.516 316.457L639.516 1.44504M1198.28 316.457L940.245 316.457L940.245 1.44503M1453.17 316.457L1709.9 316.457M1966.63 316.457L1709.9 316.457M940.245 1.44503L639.516 1.44504M639.516 1.44504L166.478 1.445M166.478 316.457L166.478 1.445M166.478 1.445L83.9065 1.445M83.9065 1.445L83.9065 286.828M83.9065 286.828L64.5576 286.828M83.9065 286.828L102.156 286.828M1709.9 316.457L1709.9 1.44499M1709.9 1.44499L2011.66 1.44504L2011.66 381.093L1709.9 381.093M940.245 381.093L940.245 666.622L1411.53 666.622M940.245 381.093L1287.68 381.093M1709.9 381.093L1611.51 381.093M1709.9 381.093L1709.9 449.285M1411.53 666.622L1709.9 666.622L1709.9 449.285M1411.53 666.622L1411.53 381.093L1370.85 381.093M1453.17 449.285L1572.96 449.285M1572.96 449.285L1572.96 381.093M1572.96 449.285L1709.9 449.285" stroke="#4C4C4C" stroke-width="2"/>
</svg>
