<svg width="2013" height="669" viewBox="0 0 2013 669" fill="none" xmlns="http://www.w3.org/2000/svg">
<path d="M1286.22 253.911V251.702H1297.83V253.911H1293.33V266.248H1290.72V253.911H1286.22ZM1300.17 266.248H1297.36L1302.48 251.702H1305.73L1310.86 266.248H1308.05L1304.16 254.685H1304.05L1300.17 266.248ZM1300.27 260.544H1307.94V262.661H1300.27V260.544ZM1324.73 251.702V266.248H1322.39L1315.53 256.34H1315.41V266.248H1312.78V251.702H1315.14L1321.98 261.617H1322.11V251.702H1324.73ZM1337.35 256.347C1337.23 255.963 1337.06 255.62 1336.86 255.317C1336.65 255.009 1336.41 254.747 1336.12 254.529C1335.83 254.311 1335.51 254.148 1335.14 254.039C1334.77 253.925 1334.37 253.868 1333.93 253.868C1333.15 253.868 1332.45 254.065 1331.84 254.458C1331.23 254.851 1330.75 255.428 1330.4 256.191C1330.05 256.948 1329.88 257.872 1329.88 258.961C1329.88 260.059 1330.05 260.99 1330.4 261.752C1330.75 262.514 1331.23 263.094 1331.84 263.492C1332.46 263.885 1333.17 264.081 1333.99 264.081C1334.73 264.081 1335.36 263.939 1335.9 263.655C1336.45 263.371 1336.87 262.969 1337.16 262.448C1337.46 261.922 1337.6 261.307 1337.6 260.601L1338.2 260.694H1334.25V258.634H1340.15V260.381C1340.15 261.626 1339.89 262.704 1339.36 263.613C1338.83 264.522 1338.1 265.222 1337.17 265.715C1336.24 266.203 1335.18 266.446 1333.97 266.446C1332.63 266.446 1331.46 266.146 1330.44 265.544C1329.43 264.938 1328.65 264.079 1328.08 262.966C1327.51 261.849 1327.23 260.523 1327.23 258.989C1327.23 257.815 1327.4 256.766 1327.73 255.843C1328.07 254.919 1328.53 254.136 1329.14 253.492C1329.74 252.843 1330.44 252.351 1331.25 252.015C1332.06 251.674 1332.94 251.503 1333.89 251.503C1334.7 251.503 1335.45 251.622 1336.15 251.858C1336.84 252.09 1337.46 252.422 1338 252.853C1338.54 253.284 1338.99 253.795 1339.34 254.387C1339.69 254.979 1339.92 255.632 1340.03 256.347H1337.35ZM1352.44 256.347C1352.33 255.963 1352.16 255.62 1351.95 255.317C1351.75 255.009 1351.5 254.747 1351.22 254.529C1350.93 254.311 1350.6 254.148 1350.24 254.039C1349.87 253.925 1349.46 253.868 1349.03 253.868C1348.25 253.868 1347.55 254.065 1346.94 254.458C1346.33 254.851 1345.85 255.428 1345.5 256.191C1345.15 256.948 1344.98 257.872 1344.98 258.961C1344.98 260.059 1345.15 260.99 1345.5 261.752C1345.84 262.514 1346.32 263.094 1346.94 263.492C1347.56 263.885 1348.27 264.081 1349.08 264.081C1349.82 264.081 1350.46 263.939 1351 263.655C1351.55 263.371 1351.97 262.969 1352.26 262.448C1352.55 261.922 1352.7 261.307 1352.7 260.601L1353.3 260.694H1349.35V258.634H1355.25V260.381C1355.25 261.626 1354.98 262.704 1354.45 263.613C1353.92 264.522 1353.19 265.222 1352.27 265.715C1351.34 266.203 1350.27 266.446 1349.07 266.446C1347.73 266.446 1346.55 266.146 1345.54 265.544C1344.53 264.938 1343.74 264.079 1343.18 262.966C1342.61 261.849 1342.33 260.523 1342.33 258.989C1342.33 257.815 1342.5 256.766 1342.83 255.843C1343.16 254.919 1343.63 254.136 1344.23 253.492C1344.84 252.843 1345.54 252.351 1346.35 252.015C1347.16 251.674 1348.04 251.503 1348.99 251.503C1349.8 251.503 1350.55 251.622 1351.24 251.858C1351.94 252.09 1352.56 252.422 1353.1 252.853C1353.64 253.284 1354.09 253.795 1354.44 254.387C1354.79 254.979 1355.02 255.632 1355.13 256.347H1352.44ZM1359.22 266.248H1356.4L1361.52 251.702H1364.78L1369.91 266.248H1367.09L1363.21 254.685H1363.09L1359.22 266.248ZM1359.31 260.544H1366.98V262.661H1359.31V260.544Z" fill="#7B7474"/>
<path d="M329.313 162.399V147.853H334.768C335.885 147.853 336.823 148.048 337.58 148.436C338.342 148.824 338.918 149.369 339.306 150.069C339.699 150.765 339.895 151.577 339.895 152.505C339.895 153.438 339.697 154.248 339.299 154.934C338.906 155.616 338.326 156.144 337.559 156.518C336.792 156.888 335.85 157.072 334.732 157.072H330.847V154.885H334.377C335.03 154.885 335.565 154.795 335.982 154.615C336.399 154.43 336.707 154.163 336.905 153.812C337.109 153.457 337.211 153.022 337.211 152.505C337.211 151.989 337.109 151.549 336.905 151.184C336.702 150.815 336.392 150.536 335.975 150.346C335.558 150.152 335.021 150.055 334.363 150.055H331.948V162.399H329.313ZM336.827 155.808L340.428 162.399H337.488L333.951 155.808H336.827ZM343.791 162.555C343.36 162.555 342.991 162.404 342.683 162.101C342.375 161.798 342.224 161.428 342.229 160.993C342.224 160.567 342.375 160.202 342.683 159.899C342.991 159.596 343.36 159.444 343.791 159.444C344.208 159.444 344.57 159.596 344.878 159.899C345.19 160.202 345.349 160.567 345.354 160.993C345.349 161.282 345.273 161.544 345.126 161.781C344.984 162.018 344.795 162.207 344.558 162.349C344.326 162.487 344.07 162.555 343.791 162.555ZM352.633 147.853H355.858L360.176 158.393H360.346L364.665 147.853H367.889V162.399H365.361V152.406H365.226L361.206 162.356H359.317L355.297 152.385H355.162V162.399H352.633V147.853ZM379.927 147.853H382.562V157.356C382.562 158.398 382.316 159.314 381.824 160.105C381.336 160.896 380.649 161.514 379.764 161.959C378.879 162.399 377.844 162.619 376.66 162.619C375.472 162.619 374.435 162.399 373.55 161.959C372.664 161.514 371.978 160.896 371.49 160.105C371.002 159.314 370.758 158.398 370.758 157.356V147.853H373.393V157.136C373.393 157.742 373.526 158.282 373.791 158.755C374.061 159.229 374.44 159.601 374.927 159.871C375.415 160.136 375.993 160.268 376.66 160.268C377.328 160.268 377.906 160.136 378.393 159.871C378.886 159.601 379.265 159.229 379.53 158.755C379.795 158.282 379.927 157.742 379.927 157.136V147.853ZM385.426 162.399V147.853H388.061V160.19H394.468V162.399H385.426ZM394.26 150.062V147.853H405.865V150.062H401.369V162.399H398.756V150.062H394.26ZM410.737 147.853V162.399H408.102V147.853H410.737ZM413.59 147.853H416.815L421.133 158.393H421.303L425.622 147.853H428.846V162.399H426.318V152.406H426.183L422.163 162.356H420.274L416.254 152.385H416.119V162.399H413.59V147.853ZM431.715 162.399V147.853H441.176V150.062H434.35V154.011H440.686V156.22H434.35V160.19H441.232V162.399H431.715ZM448.793 162.399H443.864V147.853H448.892C450.336 147.853 451.577 148.145 452.614 148.727C453.656 149.305 454.456 150.136 455.014 151.22C455.573 152.304 455.852 153.602 455.852 155.112C455.852 156.627 455.571 157.929 455.007 159.018C454.449 160.107 453.641 160.943 452.585 161.525C451.534 162.108 450.27 162.399 448.793 162.399ZM446.499 160.119H448.665C449.678 160.119 450.523 159.934 451.201 159.565C451.878 159.191 452.387 158.635 452.727 157.896C453.068 157.153 453.239 156.225 453.239 155.112C453.239 153.999 453.068 153.076 452.727 152.342C452.387 151.603 451.882 151.052 451.215 150.687C450.552 150.318 449.728 150.133 448.743 150.133H446.499V160.119ZM460.991 147.853V162.399H458.356V147.853H460.991ZM465.712 162.399H462.9L468.02 147.853H471.273L476.401 162.399H473.589L469.704 150.836H469.59L465.712 162.399ZM465.805 156.696H473.475V158.812H465.805V156.696Z" fill="#7B7474"/>
<path d="M73.2155 79.9375L69.1104 65.392H71.9442L74.5649 76.081H74.6998L77.4981 65.392H80.0763L82.8817 76.0881H83.0095L85.6302 65.392H88.464L84.3589 79.9375H81.7595L78.8476 69.7315H78.7339L75.8149 79.9375H73.2155ZM101.96 70.2997H99.3039C99.2281 69.8641 99.0885 69.4782 98.8849 69.142C98.6813 68.8011 98.4279 68.5123 98.1249 68.2756C97.8219 68.0388 97.4762 67.8613 97.088 67.7429C96.7045 67.6198 96.2902 67.5582 95.8451 67.5582C95.0544 67.5582 94.3536 67.7571 93.7428 68.1548C93.132 68.5478 92.6538 69.1255 92.3081 69.8878C91.9625 70.6454 91.7897 71.571 91.7897 72.6648C91.7897 73.7775 91.9625 74.715 92.3081 75.4773C92.6585 76.2348 93.1367 76.8078 93.7428 77.196C94.3536 77.5795 95.052 77.7713 95.838 77.7713C96.2736 77.7713 96.6808 77.7145 97.0596 77.6009C97.4431 77.4825 97.7864 77.3097 98.0894 77.0824C98.3972 76.8551 98.6552 76.5758 98.8635 76.2443C99.0766 75.9129 99.2234 75.5341 99.3039 75.108L101.96 75.1222C101.861 75.8134 101.645 76.4621 101.314 77.0682C100.987 77.6742 100.559 78.2093 100.028 78.6733C99.498 79.1326 98.8778 79.4924 98.1675 79.7528C97.4573 80.0085 96.6689 80.1364 95.8025 80.1364C94.5241 80.1364 93.383 79.8404 92.3792 79.2486C91.3754 78.6567 90.5847 77.8021 90.007 76.6847C89.4294 75.5672 89.1405 74.2273 89.1405 72.6648C89.1405 71.0975 89.4317 69.7576 90.0141 68.6449C90.5965 67.5275 91.3896 66.6728 92.3934 66.081C93.3972 65.4891 94.5335 65.1932 95.8025 65.1932C96.6121 65.1932 97.365 65.3068 98.061 65.5341C98.757 65.7614 99.3773 66.0952 99.9218 66.5355C100.466 66.9711 100.914 67.5062 101.264 68.1406C101.619 68.7704 101.851 69.4901 101.96 70.2997Z" fill="#7B7474"/>
<path d="M743.699 162.399V147.853H749.153C750.271 147.853 751.208 148.048 751.966 148.436C752.728 148.824 753.303 149.369 753.692 150.069C754.085 150.765 754.281 151.577 754.281 152.505C754.281 153.438 754.082 154.248 753.685 154.934C753.292 155.616 752.712 156.144 751.945 156.518C751.178 156.888 750.235 157.072 749.118 157.072H745.233V154.885H748.763C749.416 154.885 749.951 154.795 750.368 154.615C750.785 154.43 751.092 154.163 751.291 153.812C751.495 153.457 751.597 153.022 751.597 152.505C751.597 151.989 751.495 151.549 751.291 151.184C751.088 150.815 750.777 150.536 750.361 150.346C749.944 150.152 749.407 150.055 748.749 150.055H746.334V162.399H743.699ZM751.213 155.808L754.814 162.399H751.874L748.337 155.808H751.213ZM758.177 162.555C757.746 162.555 757.377 162.404 757.069 162.101C756.761 161.798 756.61 161.428 756.614 160.993C756.61 160.567 756.761 160.202 757.069 159.899C757.377 159.596 757.746 159.444 758.177 159.444C758.593 159.444 758.956 159.596 759.263 159.899C759.576 160.202 759.735 160.567 759.739 160.993C759.735 161.282 759.659 161.544 759.512 161.781C759.37 162.018 759.181 162.207 758.944 162.349C758.712 162.487 758.456 162.555 758.177 162.555ZM767.019 162.399V147.853H769.654V154.537H769.832L775.506 147.853H778.724L773.099 154.38L778.773 162.399H775.606L771.266 156.163L769.654 158.067V162.399H767.019ZM780.554 162.399V147.853H790.015V150.062H783.189V154.011H789.524V156.22H783.189V160.19H790.071V162.399H780.554ZM792.703 162.399V147.853H795.338V160.19H801.744V162.399H792.703ZM806.446 162.399H803.633L808.754 147.853H812.007L817.135 162.399H814.322L810.437 150.836H810.323L806.446 162.399ZM806.538 156.696H814.208V158.812H806.538V156.696ZM826.721 151.852C826.655 151.232 826.375 150.749 825.883 150.403C825.395 150.058 824.761 149.885 823.979 149.885C823.43 149.885 822.959 149.968 822.566 150.133C822.173 150.299 821.872 150.524 821.664 150.808C821.456 151.092 821.349 151.416 821.344 151.781C821.344 152.084 821.413 152.347 821.55 152.569C821.692 152.792 821.884 152.981 822.126 153.138C822.367 153.289 822.635 153.417 822.928 153.521C823.222 153.625 823.518 153.713 823.816 153.784L825.18 154.125C825.729 154.253 826.257 154.425 826.763 154.643C827.275 154.861 827.732 155.136 828.134 155.467C828.541 155.799 828.863 156.199 829.1 156.667C829.337 157.136 829.455 157.685 829.455 158.315C829.455 159.167 829.237 159.918 828.802 160.567C828.366 161.21 827.736 161.715 826.913 162.079C826.093 162.439 825.102 162.619 823.937 162.619C822.805 162.619 821.823 162.444 820.989 162.094C820.161 161.743 819.512 161.232 819.043 160.559C818.579 159.887 818.328 159.068 818.29 158.102H820.883C820.921 158.609 821.077 159.03 821.352 159.366C821.626 159.702 821.984 159.953 822.424 160.119C822.869 160.285 823.366 160.368 823.915 160.368C824.488 160.368 824.99 160.282 825.421 160.112C825.857 159.937 826.198 159.695 826.444 159.388C826.69 159.075 826.816 158.71 826.82 158.294C826.816 157.915 826.704 157.603 826.486 157.356C826.269 157.105 825.963 156.897 825.57 156.731C825.182 156.561 824.727 156.409 824.207 156.277L822.552 155.851C821.354 155.543 820.407 155.076 819.711 154.451C819.02 153.822 818.674 152.986 818.674 151.944C818.674 151.087 818.906 150.337 819.37 149.693C819.839 149.049 820.476 148.549 821.28 148.194C822.085 147.835 822.997 147.655 824.015 147.655C825.047 147.655 825.951 147.835 826.728 148.194C827.509 148.549 828.122 149.044 828.567 149.679C829.013 150.308 829.242 151.033 829.256 151.852H826.721Z" fill="#7B7474"/>
<path d="M1047.24 162.399V147.853H1052.7C1053.81 147.853 1054.75 148.048 1055.51 148.436C1056.27 148.824 1056.85 149.369 1057.24 150.069C1057.63 150.765 1057.83 151.577 1057.83 152.505C1057.83 153.438 1057.63 154.248 1057.23 154.934C1056.84 155.616 1056.26 156.144 1055.49 156.518C1054.72 156.888 1053.78 157.072 1052.66 157.072H1048.78V154.885H1052.31C1052.96 154.885 1053.5 154.795 1053.91 154.615C1054.33 154.43 1054.64 154.163 1054.84 153.812C1055.04 153.457 1055.14 153.022 1055.14 152.505C1055.14 151.989 1055.04 151.549 1054.84 151.184C1054.63 150.815 1054.32 150.536 1053.9 150.346C1053.49 150.152 1052.95 150.055 1052.29 150.055H1049.88V162.399H1047.24ZM1054.76 155.808L1058.36 162.399H1055.42L1051.88 155.808H1054.76ZM1061.72 162.555C1061.29 162.555 1060.92 162.404 1060.61 162.101C1060.31 161.798 1060.15 161.428 1060.16 160.993C1060.15 160.567 1060.31 160.202 1060.61 159.899C1060.92 159.596 1061.29 159.444 1061.72 159.444C1062.14 159.444 1062.5 159.596 1062.81 159.899C1063.12 160.202 1063.28 160.567 1063.28 160.993C1063.28 161.282 1063.2 161.544 1063.06 161.781C1062.91 162.018 1062.72 162.207 1062.49 162.349C1062.26 162.487 1062 162.555 1061.72 162.555ZM1070.56 162.399V147.853H1073.2V154.537H1073.38L1079.05 147.853H1082.27L1076.64 154.38L1082.32 162.399H1079.15L1074.81 156.163L1073.2 158.067V162.399H1070.56ZM1084.1 162.399V147.853H1093.56V150.062H1086.73V154.011H1093.07V156.22H1086.73V160.19H1093.62V162.399H1084.1ZM1096.25 162.399V147.853H1098.88V160.19H1105.29V162.399H1096.25ZM1109.99 162.399H1107.18L1112.3 147.853H1115.55L1120.68 162.399H1117.87L1113.98 150.836H1113.87L1109.99 162.399ZM1110.08 156.696H1117.75V158.812H1110.08V156.696ZM1130.26 151.852C1130.2 151.232 1129.92 150.749 1129.43 150.403C1128.94 150.058 1128.3 149.885 1127.52 149.885C1126.97 149.885 1126.5 149.968 1126.11 150.133C1125.72 150.299 1125.42 150.524 1125.21 150.808C1125 151.092 1124.89 151.416 1124.89 151.781C1124.89 152.084 1124.96 152.347 1125.09 152.569C1125.24 152.792 1125.43 152.981 1125.67 153.138C1125.91 153.289 1126.18 153.417 1126.47 153.521C1126.77 153.625 1127.06 153.713 1127.36 153.784L1128.72 154.125C1129.27 154.253 1129.8 154.425 1130.31 154.643C1130.82 154.861 1131.28 155.136 1131.68 155.467C1132.09 155.799 1132.41 156.199 1132.64 156.667C1132.88 157.136 1133 157.685 1133 158.315C1133 159.167 1132.78 159.918 1132.35 160.567C1131.91 161.21 1131.28 161.715 1130.46 162.079C1129.64 162.439 1128.65 162.619 1127.48 162.619C1126.35 162.619 1125.37 162.444 1124.53 162.094C1123.7 161.743 1123.06 161.232 1122.59 160.559C1122.12 159.887 1121.87 159.068 1121.83 158.102H1124.43C1124.46 158.609 1124.62 159.03 1124.9 159.366C1125.17 159.702 1125.53 159.953 1125.97 160.119C1126.41 160.285 1126.91 160.368 1127.46 160.368C1128.03 160.368 1128.53 160.282 1128.97 160.112C1129.4 159.937 1129.74 159.695 1129.99 159.388C1130.23 159.075 1130.36 158.71 1130.36 158.294C1130.36 157.915 1130.25 157.603 1130.03 157.356C1129.81 157.105 1129.51 156.897 1129.11 156.731C1128.73 156.561 1128.27 156.409 1127.75 156.277L1126.1 155.851C1124.9 155.543 1123.95 155.076 1123.25 154.451C1122.56 153.822 1122.22 152.986 1122.22 151.944C1122.22 151.087 1122.45 150.337 1122.91 149.693C1123.38 149.049 1124.02 148.549 1124.82 148.194C1125.63 147.835 1126.54 147.655 1127.56 147.655C1128.59 147.655 1129.5 147.835 1130.27 148.194C1131.05 148.549 1131.67 149.044 1132.11 149.679C1132.56 150.308 1132.79 151.033 1132.8 151.852H1130.26Z" fill="#7B7474"/>
<path d="M1302.05 519.075V504.529H1304.68V516.866H1311.09V519.075H1302.05ZM1325.8 511.802C1325.8 513.369 1325.51 514.712 1324.92 515.829C1324.34 516.942 1323.55 517.794 1322.54 518.386C1321.53 518.978 1320.39 519.274 1319.12 519.274C1317.85 519.274 1316.71 518.978 1315.7 518.386C1314.69 517.789 1313.9 516.935 1313.31 515.822C1312.73 514.705 1312.44 513.365 1312.44 511.802C1312.44 510.235 1312.73 508.895 1313.31 507.782C1313.9 506.665 1314.69 505.81 1315.7 505.218C1316.71 504.627 1317.85 504.331 1319.12 504.331C1320.39 504.331 1321.53 504.627 1322.54 505.218C1323.55 505.81 1324.34 506.665 1324.92 507.782C1325.51 508.895 1325.8 510.235 1325.8 511.802ZM1323.16 511.802C1323.16 510.699 1322.98 509.769 1322.64 509.011C1322.3 508.249 1321.82 507.673 1321.22 507.285C1320.61 506.892 1319.91 506.696 1319.12 506.696C1318.33 506.696 1317.63 506.892 1317.03 507.285C1316.42 507.673 1315.94 508.249 1315.6 509.011C1315.26 509.769 1315.09 510.699 1315.09 511.802C1315.09 512.905 1315.26 513.838 1315.6 514.601C1315.94 515.358 1316.42 515.933 1317.03 516.326C1317.63 516.715 1318.33 516.909 1319.12 516.909C1319.91 516.909 1320.61 516.715 1321.22 516.326C1321.82 515.933 1322.3 515.358 1322.64 514.601C1322.98 513.838 1323.16 512.905 1323.16 511.802ZM1328.3 519.075V504.529H1333.86C1334.91 504.529 1335.79 504.695 1336.48 505.027C1337.19 505.353 1337.71 505.801 1338.05 506.369C1338.4 506.937 1338.58 507.581 1338.58 508.301C1338.58 508.893 1338.47 509.399 1338.24 509.821C1338.01 510.237 1337.71 510.576 1337.32 510.836C1336.94 511.097 1336.51 511.284 1336.04 511.397V511.539C1336.55 511.568 1337.05 511.726 1337.52 512.015C1338 512.299 1338.39 512.702 1338.69 513.223C1339 513.744 1339.15 514.373 1339.15 515.112C1339.15 515.865 1338.97 516.542 1338.6 517.143C1338.24 517.74 1337.69 518.211 1336.95 518.556C1336.22 518.902 1335.3 519.075 1334.18 519.075H1328.3ZM1330.93 516.873H1333.76C1334.72 516.873 1335.41 516.691 1335.83 516.326C1336.26 515.957 1336.47 515.484 1336.47 514.906C1336.47 514.475 1336.36 514.087 1336.15 513.741C1335.94 513.391 1335.63 513.116 1335.24 512.917C1334.85 512.714 1334.38 512.612 1333.84 512.612H1330.93V516.873ZM1330.93 510.716H1333.54C1333.99 510.716 1334.4 510.633 1334.77 510.467C1335.13 510.297 1335.42 510.057 1335.63 509.75C1335.84 509.437 1335.94 509.068 1335.94 508.642C1335.94 508.078 1335.75 507.614 1335.35 507.25C1334.96 506.885 1334.37 506.703 1333.59 506.703H1330.93V510.716ZM1341.44 519.075V504.529H1347.01C1348.06 504.529 1348.93 504.695 1349.63 505.027C1350.33 505.353 1350.85 505.801 1351.2 506.369C1351.55 506.937 1351.72 507.581 1351.72 508.301C1351.72 508.893 1351.61 509.399 1351.38 509.821C1351.16 510.237 1350.85 510.576 1350.47 510.836C1350.08 511.097 1349.65 511.284 1349.18 511.397V511.539C1349.7 511.568 1350.19 511.726 1350.67 512.015C1351.14 512.299 1351.53 512.702 1351.84 513.223C1352.14 513.744 1352.29 514.373 1352.29 515.112C1352.29 515.865 1352.11 516.542 1351.75 517.143C1351.38 517.74 1350.83 518.211 1350.1 518.556C1349.36 518.902 1348.44 519.075 1347.33 519.075H1341.44ZM1344.07 516.873H1346.91C1347.87 516.873 1348.55 516.691 1348.98 516.326C1349.4 515.957 1349.61 515.484 1349.61 514.906C1349.61 514.475 1349.51 514.087 1349.3 513.741C1349.08 513.391 1348.78 513.116 1348.39 512.917C1347.99 512.714 1347.52 512.612 1346.98 512.612H1344.07V516.873ZM1344.07 510.716H1346.68C1347.14 510.716 1347.55 510.633 1347.91 510.467C1348.27 510.297 1348.56 510.057 1348.77 509.75C1348.98 509.437 1349.09 509.068 1349.09 508.642C1349.09 508.078 1348.89 507.614 1348.49 507.25C1348.1 506.885 1347.51 506.703 1346.74 506.703H1344.07V510.716ZM1353.59 504.529H1356.57L1360.12 510.964H1360.27L1363.82 504.529H1366.8L1361.51 513.649V519.075H1358.88V513.649L1353.59 504.529ZM1373.63 519.075V504.529H1376.26V516.866H1382.67V519.075H1373.63ZM1382.46 506.738V504.529H1394.07V506.738H1389.57V519.075H1386.96V506.738H1382.46ZM1397.09 519.231C1396.66 519.231 1396.29 519.08 1395.98 518.777C1395.67 518.474 1395.52 518.104 1395.53 517.669C1395.52 517.243 1395.67 516.878 1395.98 516.575C1396.29 516.272 1396.66 516.12 1397.09 516.12C1397.51 516.12 1397.87 516.272 1398.18 516.575C1398.49 516.878 1398.65 517.243 1398.65 517.669C1398.65 517.958 1398.57 518.22 1398.43 518.457C1398.28 518.694 1398.09 518.883 1397.86 519.025C1397.62 519.163 1397.37 519.231 1397.09 519.231ZM1405.79 519.075V517.172L1410.84 512.221C1411.32 511.734 1411.73 511.3 1412.05 510.922C1412.37 510.543 1412.61 510.176 1412.77 509.821C1412.93 509.466 1413.01 509.087 1413.01 508.684C1413.01 508.225 1412.91 507.832 1412.7 507.505C1412.49 507.174 1412.21 506.918 1411.84 506.738C1411.48 506.558 1411.06 506.468 1410.6 506.468C1410.12 506.468 1409.7 506.568 1409.34 506.767C1408.98 506.961 1408.7 507.238 1408.5 507.598C1408.31 507.958 1408.21 508.386 1408.21 508.883H1405.7C1405.7 507.96 1405.92 507.157 1406.34 506.476C1406.76 505.794 1407.34 505.266 1408.08 504.892C1408.82 504.518 1409.67 504.331 1410.63 504.331C1411.61 504.331 1412.47 504.513 1413.2 504.878C1413.94 505.242 1414.52 505.742 1414.92 506.376C1415.34 507.011 1415.54 507.735 1415.54 508.549C1415.54 509.094 1415.44 509.629 1415.23 510.154C1415.02 510.68 1414.65 511.262 1414.13 511.902C1413.61 512.541 1412.88 513.315 1411.93 514.224L1409.43 516.774V516.873H1415.76V519.075H1405.79Z" fill="#7B7474"/>
<path d="M1518.26 162.399V147.853H1523.72C1524.84 147.853 1525.77 148.048 1526.53 148.436C1527.29 148.824 1527.87 149.369 1528.26 150.069C1528.65 150.765 1528.85 151.577 1528.85 152.505C1528.85 153.438 1528.65 154.248 1528.25 154.934C1527.86 155.616 1527.28 156.144 1526.51 156.518C1525.74 156.888 1524.8 157.072 1523.68 157.072H1519.8V154.885H1523.33C1523.98 154.885 1524.52 154.795 1524.93 154.615C1525.35 154.43 1525.66 154.163 1525.86 153.812C1526.06 153.457 1526.16 153.022 1526.16 152.505C1526.16 151.989 1526.06 151.549 1525.86 151.184C1525.65 150.815 1525.34 150.536 1524.93 150.346C1524.51 150.152 1523.97 150.055 1523.31 150.055H1520.9V162.399H1518.26ZM1525.78 155.808L1529.38 162.399H1526.44L1522.9 155.808H1525.78ZM1532.74 162.555C1532.31 162.555 1531.94 162.404 1531.63 162.101C1531.33 161.798 1531.17 161.428 1531.18 160.993C1531.17 160.567 1531.33 160.202 1531.63 159.899C1531.94 159.596 1532.31 159.444 1532.74 159.444C1533.16 159.444 1533.52 159.596 1533.83 159.899C1534.14 160.202 1534.3 160.567 1534.3 160.993C1534.3 161.282 1534.22 161.544 1534.08 161.781C1533.94 162.018 1533.75 162.207 1533.51 162.349C1533.28 162.487 1533.02 162.555 1532.74 162.555ZM1541.58 162.399V147.853H1544.22V154.537H1544.4L1550.07 147.853H1553.29L1547.66 154.38L1553.34 162.399H1550.17L1545.83 156.163L1544.22 158.067V162.399H1541.58ZM1555.12 162.399V147.853H1564.58V150.062H1557.75V154.011H1564.09V156.22H1557.75V160.19H1564.64V162.399H1555.12ZM1567.27 162.399V147.853H1569.9V160.19H1576.31V162.399H1567.27ZM1581.01 162.399H1578.2L1583.32 147.853H1586.57L1591.7 162.399H1588.89L1585 150.836H1584.89L1581.01 162.399ZM1581.1 156.696H1588.77V158.812H1581.1V156.696ZM1601.29 151.852C1601.22 151.232 1600.94 150.749 1600.45 150.403C1599.96 150.058 1599.33 149.885 1598.54 149.885C1598 149.885 1597.52 149.968 1597.13 150.133C1596.74 150.299 1596.44 150.524 1596.23 150.808C1596.02 151.092 1595.91 151.416 1595.91 151.781C1595.91 152.084 1595.98 152.347 1596.12 152.569C1596.26 152.792 1596.45 152.981 1596.69 153.138C1596.93 153.289 1597.2 153.417 1597.49 153.521C1597.79 153.625 1598.08 153.713 1598.38 153.784L1599.75 154.125C1600.29 154.253 1600.82 154.425 1601.33 154.643C1601.84 154.861 1602.3 155.136 1602.7 155.467C1603.11 155.799 1603.43 156.199 1603.67 156.667C1603.9 157.136 1604.02 157.685 1604.02 158.315C1604.02 159.167 1603.8 159.918 1603.37 160.567C1602.93 161.21 1602.3 161.715 1601.48 162.079C1600.66 162.439 1599.67 162.619 1598.5 162.619C1597.37 162.619 1596.39 162.444 1595.55 162.094C1594.73 161.743 1594.08 161.232 1593.61 160.559C1593.14 159.887 1592.89 159.068 1592.86 158.102H1595.45C1595.49 158.609 1595.64 159.03 1595.92 159.366C1596.19 159.702 1596.55 159.953 1596.99 160.119C1597.43 160.285 1597.93 160.368 1598.48 160.368C1599.05 160.368 1599.56 160.282 1599.99 160.112C1600.42 159.937 1600.76 159.695 1601.01 159.388C1601.26 159.075 1601.38 158.71 1601.39 158.294C1601.38 157.915 1601.27 157.603 1601.05 157.356C1600.83 157.105 1600.53 156.897 1600.14 156.731C1599.75 156.561 1599.29 156.409 1598.77 156.277L1597.12 155.851C1595.92 155.543 1594.97 155.076 1594.28 154.451C1593.59 153.822 1593.24 152.986 1593.24 151.944C1593.24 151.087 1593.47 150.337 1593.94 149.693C1594.4 149.049 1595.04 148.549 1595.85 148.194C1596.65 147.835 1597.56 147.655 1598.58 147.655C1599.61 147.655 1600.52 147.835 1601.29 148.194C1602.07 148.549 1602.69 149.044 1603.13 149.679C1603.58 150.308 1603.81 151.033 1603.82 151.852H1601.29Z" fill="#7B7474"/>
<path d="M1821.81 162.399V147.853H1827.26C1828.38 147.853 1829.32 148.048 1830.08 148.436C1830.84 148.824 1831.41 149.369 1831.8 150.069C1832.19 150.765 1832.39 151.577 1832.39 152.505C1832.39 153.438 1832.19 154.248 1831.79 154.934C1831.4 155.616 1830.82 156.144 1830.05 156.518C1829.29 156.888 1828.34 157.072 1827.23 157.072H1823.34V154.885H1826.87C1827.53 154.885 1828.06 154.795 1828.48 154.615C1828.89 154.43 1829.2 154.163 1829.4 153.812C1829.6 153.457 1829.71 153.022 1829.71 152.505C1829.71 151.989 1829.6 151.549 1829.4 151.184C1829.2 150.815 1828.89 150.536 1828.47 150.346C1828.05 150.152 1827.52 150.055 1826.86 150.055H1824.44V162.399H1821.81ZM1829.32 155.808L1832.92 162.399H1829.98L1826.45 155.808H1829.32ZM1836.29 162.555C1835.86 162.555 1835.49 162.404 1835.18 162.101C1834.87 161.798 1834.72 161.428 1834.72 160.993C1834.72 160.567 1834.87 160.202 1835.18 159.899C1835.49 159.596 1835.86 159.444 1836.29 159.444C1836.7 159.444 1837.07 159.596 1837.37 159.899C1837.69 160.202 1837.84 160.567 1837.85 160.993C1837.84 161.282 1837.77 161.544 1837.62 161.781C1837.48 162.018 1837.29 162.207 1837.05 162.349C1836.82 162.487 1836.57 162.555 1836.29 162.555ZM1845.13 162.399V147.853H1847.76V154.537H1847.94L1853.62 147.853H1856.83L1851.21 154.38L1856.88 162.399H1853.72L1849.38 156.163L1847.76 158.067V162.399H1845.13ZM1858.66 162.399V147.853H1868.12V150.062H1861.3V154.011H1867.63V156.22H1861.3V160.19H1868.18V162.399H1858.66ZM1870.81 162.399V147.853H1873.45V160.19H1879.85V162.399H1870.81ZM1884.55 162.399H1881.74L1886.86 147.853H1890.12L1895.24 162.399H1892.43L1888.55 150.836H1888.43L1884.55 162.399ZM1884.65 156.696H1892.32V158.812H1884.65V156.696ZM1904.83 151.852C1904.76 151.232 1904.48 150.749 1903.99 150.403C1903.5 150.058 1902.87 149.885 1902.09 149.885C1901.54 149.885 1901.07 149.968 1900.68 150.133C1900.28 150.299 1899.98 150.524 1899.77 150.808C1899.57 151.092 1899.46 151.416 1899.45 151.781C1899.45 152.084 1899.52 152.347 1899.66 152.569C1899.8 152.792 1899.99 152.981 1900.24 153.138C1900.48 153.289 1900.74 153.417 1901.04 153.521C1901.33 153.625 1901.63 153.713 1901.93 153.784L1903.29 154.125C1903.84 154.253 1904.37 154.425 1904.87 154.643C1905.38 154.861 1905.84 155.136 1906.24 155.467C1906.65 155.799 1906.97 156.199 1907.21 156.667C1907.45 157.136 1907.56 157.685 1907.56 158.315C1907.56 159.167 1907.35 159.918 1906.91 160.567C1906.48 161.21 1905.85 161.715 1905.02 162.079C1904.2 162.439 1903.21 162.619 1902.05 162.619C1900.91 162.619 1899.93 162.444 1899.1 162.094C1898.27 161.743 1897.62 161.232 1897.15 160.559C1896.69 159.887 1896.44 159.068 1896.4 158.102H1898.99C1899.03 158.609 1899.19 159.03 1899.46 159.366C1899.74 159.702 1900.09 159.953 1900.53 160.119C1900.98 160.285 1901.48 160.368 1902.02 160.368C1902.6 160.368 1903.1 160.282 1903.53 160.112C1903.97 159.937 1904.31 159.695 1904.55 159.388C1904.8 159.075 1904.92 158.71 1904.93 158.294C1904.92 157.915 1904.81 157.603 1904.6 157.356C1904.38 157.105 1904.07 156.897 1903.68 156.731C1903.29 156.561 1902.84 156.409 1902.32 156.277L1900.66 155.851C1899.46 155.543 1898.52 155.076 1897.82 154.451C1897.13 153.822 1896.78 152.986 1896.78 151.944C1896.78 151.087 1897.02 150.337 1897.48 149.693C1897.95 149.049 1898.58 148.549 1899.39 148.194C1900.19 147.835 1901.11 147.655 1902.12 147.655C1903.16 147.655 1904.06 147.835 1904.84 148.194C1905.62 148.549 1906.23 149.044 1906.68 149.679C1907.12 150.308 1907.35 151.033 1907.37 151.852H1904.83Z" fill="#7B7474"/>
<path d="M1238.82 316.947L1238.82 227.368M1238.82 1.93476L1238.82 227.368M1238.82 1.93476L1325.18 1.93476M1238.82 1.93476L940.245 1.93477M1411.53 1.93475L1411.53 227.368M1411.53 1.93475L1325.18 1.93476M1411.53 1.93475L1709.9 1.93474M1411.53 316.947L1411.53 227.368M1411.53 227.368L1325.18 227.368M1238.82 227.368L1325.18 227.368M1325.18 227.368L1325.18 1.93476M1.33446 316.947L1.33446 381.582L940.245 381.582L940.245 667.112L1709.9 667.112L1709.9 381.582L2011.66 381.582L2011.66 1.93479L1709.9 1.93474M1.33446 316.947L1.33444 1.93475L83.9065 1.93475M1.33446 316.947L64.5576 316.947M102.156 316.947L166.478 316.947M593.249 316.947L166.478 316.947M896.243 316.947L639.516 316.947L639.516 1.93479M1198.28 316.947L940.245 316.947L940.245 1.93477M1453.17 316.947L1709.9 316.947M1966.63 316.947L1709.9 316.947M940.245 1.93477L639.516 1.93479M639.516 1.93479L166.478 1.93475M166.478 316.947L166.478 1.93475M166.478 1.93475L83.9065 1.93475M83.9065 1.93475L83.9065 287.318M83.9065 287.318L64.5576 287.318M83.9065 287.318L102.156 287.318M1709.9 316.947L1709.9 1.93474" stroke="#4C4C4C" stroke-width="2"/>
</svg>
