<svg width="2013" height="383" viewBox="0 0 2013 383" fill="none" xmlns="http://www.w3.org/2000/svg">
<path d="M1286.22 251.358V249.149H1297.83V251.358H1293.33V263.694H1290.72V251.358H1286.22ZM1300.17 263.694H1297.36L1302.48 249.149H1305.73L1310.86 263.694H1308.05L1304.16 252.132H1304.05L1300.17 263.694ZM1300.27 257.991H1307.94V260.108H1300.27V257.991ZM1324.73 249.149V263.694H1322.39L1315.53 253.787H1315.41V263.694H1312.78V249.149H1315.14L1321.98 259.064H1322.11V249.149H1324.73ZM1337.35 253.794C1337.23 253.41 1337.06 253.067 1336.86 252.764C1336.65 252.456 1336.41 252.193 1336.12 251.976C1335.83 251.758 1335.51 251.594 1335.14 251.486C1334.77 251.372 1334.37 251.315 1333.93 251.315C1333.15 251.315 1332.45 251.512 1331.84 251.905C1331.23 252.298 1330.75 252.875 1330.4 253.638C1330.05 254.395 1329.88 255.318 1329.88 256.407C1329.88 257.506 1330.05 258.436 1330.4 259.199C1330.75 259.961 1331.23 260.541 1331.84 260.939C1332.46 261.332 1333.17 261.528 1333.99 261.528C1334.73 261.528 1335.36 261.386 1335.9 261.102C1336.45 260.818 1336.87 260.415 1337.16 259.895C1337.46 259.369 1337.6 258.754 1337.6 258.048L1338.2 258.14H1334.25V256.081H1340.15V257.828C1340.15 259.073 1339.89 260.15 1339.36 261.059C1338.83 261.968 1338.1 262.669 1337.17 263.162C1336.24 263.649 1335.18 263.893 1333.97 263.893C1332.63 263.893 1331.46 263.593 1330.44 262.991C1329.43 262.385 1328.65 261.526 1328.08 260.413C1327.51 259.296 1327.23 257.97 1327.23 256.436C1327.23 255.262 1327.4 254.213 1327.73 253.29C1328.07 252.366 1328.53 251.583 1329.14 250.939C1329.74 250.29 1330.44 249.798 1331.25 249.461C1332.06 249.12 1332.94 248.95 1333.89 248.95C1334.7 248.95 1335.45 249.068 1336.15 249.305C1336.84 249.537 1337.46 249.869 1338 250.299C1338.54 250.73 1338.99 251.242 1339.34 251.834C1339.69 252.425 1339.92 253.079 1340.03 253.794H1337.35ZM1352.44 253.794C1352.33 253.41 1352.16 253.067 1351.95 252.764C1351.75 252.456 1351.5 252.193 1351.22 251.976C1350.93 251.758 1350.6 251.594 1350.24 251.486C1349.87 251.372 1349.46 251.315 1349.03 251.315C1348.25 251.315 1347.55 251.512 1346.94 251.905C1346.33 252.298 1345.85 252.875 1345.5 253.638C1345.15 254.395 1344.98 255.318 1344.98 256.407C1344.98 257.506 1345.15 258.436 1345.5 259.199C1345.84 259.961 1346.32 260.541 1346.94 260.939C1347.56 261.332 1348.27 261.528 1349.08 261.528C1349.82 261.528 1350.46 261.386 1351 261.102C1351.55 260.818 1351.97 260.415 1352.26 259.895C1352.55 259.369 1352.7 258.754 1352.7 258.048L1353.3 258.14H1349.35V256.081H1355.25V257.828C1355.25 259.073 1354.98 260.15 1354.45 261.059C1353.92 261.968 1353.19 262.669 1352.27 263.162C1351.34 263.649 1350.27 263.893 1349.07 263.893C1347.73 263.893 1346.55 263.593 1345.54 262.991C1344.53 262.385 1343.74 261.526 1343.18 260.413C1342.61 259.296 1342.33 257.97 1342.33 256.436C1342.33 255.262 1342.5 254.213 1342.83 253.29C1343.16 252.366 1343.63 251.583 1344.23 250.939C1344.84 250.29 1345.54 249.798 1346.35 249.461C1347.16 249.12 1348.04 248.95 1348.99 248.95C1349.8 248.95 1350.55 249.068 1351.24 249.305C1351.94 249.537 1352.56 249.869 1353.1 250.299C1353.64 250.73 1354.09 251.242 1354.44 251.834C1354.79 252.425 1355.02 253.079 1355.13 253.794H1352.44ZM1359.22 263.694H1356.4L1361.52 249.149H1364.78L1369.91 263.694H1367.09L1363.21 252.132H1363.09L1359.22 263.694ZM1359.31 257.991H1366.98V260.108H1359.31V257.991Z" fill="#7B7474"/>
<path d="M345.43 162.236V147.69H350.884C352.002 147.69 352.939 147.885 353.697 148.273C354.459 148.661 355.034 149.206 355.423 149.906C355.816 150.602 356.012 151.414 356.012 152.342C356.012 153.275 355.813 154.085 355.416 154.771C355.023 155.453 354.443 155.981 353.676 156.355C352.908 156.724 351.966 156.909 350.849 156.909H346.964V154.722H350.494C351.147 154.722 351.682 154.632 352.099 154.452C352.515 154.267 352.823 154 353.022 153.649C353.226 153.294 353.328 152.858 353.328 152.342C353.328 151.826 353.226 151.386 353.022 151.021C352.819 150.652 352.508 150.373 352.092 150.183C351.675 149.989 351.138 149.892 350.479 149.892H348.065V162.236H345.43ZM352.944 155.645L356.545 162.236H353.604L350.068 155.645H352.944ZM359.908 162.392C359.477 162.392 359.108 162.241 358.8 161.938C358.492 161.635 358.341 161.265 358.345 160.83C358.341 160.403 358.492 160.039 358.8 159.736C359.108 159.433 359.477 159.281 359.908 159.281C360.324 159.281 360.687 159.433 360.994 159.736C361.307 160.039 361.466 160.403 361.47 160.83C361.466 161.118 361.39 161.381 361.243 161.618C361.101 161.855 360.912 162.044 360.675 162.186C360.443 162.323 360.187 162.392 359.908 162.392ZM368.75 147.69H371.975L376.293 158.23H376.463L380.781 147.69H384.006V162.236H381.477V152.243H381.342L377.323 162.193H375.433L371.413 152.222H371.278V162.236H368.75V147.69ZM396.044 147.69H398.679V157.193C398.679 158.235 398.433 159.151 397.94 159.942C397.453 160.733 396.766 161.35 395.881 161.795C394.995 162.236 393.961 162.456 392.777 162.456C391.589 162.456 390.552 162.236 389.666 161.795C388.781 161.35 388.094 160.733 387.607 159.942C387.119 159.151 386.875 158.235 386.875 157.193V147.69H389.51V156.973C389.51 157.579 389.643 158.119 389.908 158.592C390.178 159.066 390.556 159.438 391.044 159.707C391.532 159.973 392.109 160.105 392.777 160.105C393.445 160.105 394.022 159.973 394.51 159.707C395.002 159.438 395.381 159.066 395.646 158.592C395.912 158.119 396.044 157.579 396.044 156.973V147.69ZM409.448 151.689C409.382 151.069 409.102 150.586 408.61 150.24C408.122 149.894 407.488 149.722 406.706 149.722C406.157 149.722 405.686 149.804 405.293 149.97C404.9 150.136 404.599 150.361 404.391 150.645C404.183 150.929 404.076 151.253 404.071 151.618C404.071 151.921 404.14 152.184 404.277 152.406C404.419 152.629 404.611 152.818 404.853 152.974C405.094 153.126 405.362 153.254 405.655 153.358C405.949 153.462 406.245 153.55 406.543 153.621L407.907 153.962C408.456 154.09 408.984 154.262 409.491 154.48C410.002 154.698 410.459 154.973 410.861 155.304C411.268 155.635 411.59 156.036 411.827 156.504C412.064 156.973 412.182 157.522 412.182 158.152C412.182 159.004 411.964 159.755 411.529 160.403C411.093 161.047 410.464 161.552 409.64 161.916C408.821 162.276 407.829 162.456 406.664 162.456C405.532 162.456 404.55 162.281 403.716 161.93C402.888 161.58 402.239 161.069 401.77 160.396C401.306 159.724 401.055 158.905 401.017 157.939H403.61C403.648 158.446 403.804 158.867 404.079 159.203C404.353 159.539 404.711 159.79 405.151 159.956C405.596 160.122 406.093 160.205 406.642 160.205C407.215 160.205 407.717 160.119 408.148 159.949C408.584 159.774 408.925 159.532 409.171 159.224C409.417 158.912 409.543 158.547 409.547 158.131C409.543 157.752 409.431 157.439 409.214 157.193C408.996 156.942 408.69 156.734 408.297 156.568C407.909 156.398 407.455 156.246 406.934 156.114L405.279 155.688C404.081 155.38 403.134 154.913 402.438 154.288C401.747 153.659 401.401 152.823 401.401 151.781C401.401 150.924 401.633 150.174 402.097 149.53C402.566 148.886 403.203 148.386 404.008 148.031C404.812 147.671 405.724 147.492 406.742 147.492C407.774 147.492 408.678 147.671 409.455 148.031C410.236 148.386 410.849 148.881 411.294 149.516C411.74 150.145 411.969 150.87 411.983 151.689H409.448ZM417.166 147.69V162.236H414.531V147.69H417.166ZM420.02 162.236V147.69H422.655V154.374H422.832L428.507 147.69H431.724L426.099 154.217L431.774 162.236H428.606L424.267 156L422.655 157.903V162.236H420.02Z" fill="#7B7474"/>
<path d="M73.2155 86.2178L69.1104 71.6723H71.9442L74.5649 82.3612H74.6998L77.4981 71.6723H80.0763L82.8817 82.3683H83.0095L85.6302 71.6723H88.464L84.3589 86.2178H81.7595L78.8476 76.0118H78.7339L75.8149 86.2178H73.2155ZM101.96 76.58H99.3039C99.2281 76.1444 99.0885 75.7585 98.8849 75.4223C98.6813 75.0814 98.4279 74.7926 98.1249 74.5558C97.8219 74.3191 97.4762 74.1415 97.088 74.0232C96.7045 73.9001 96.2902 73.8385 95.8451 73.8385C95.0544 73.8385 94.3536 74.0374 93.7428 74.4351C93.132 74.8281 92.6538 75.4057 92.3081 76.1681C91.9625 76.9256 91.7897 77.8513 91.7897 78.945C91.7897 80.0577 91.9625 80.9952 92.3081 81.7575C92.6585 82.5151 93.1367 83.088 93.7428 83.4763C94.3536 83.8598 95.052 84.0516 95.838 84.0516C96.2736 84.0516 96.6808 83.9948 97.0596 83.8811C97.4431 83.7628 97.7864 83.5899 98.0894 83.3627C98.3972 83.1354 98.6552 82.856 98.8635 82.5246C99.0766 82.1932 99.2234 81.8144 99.3039 81.3882L101.96 81.4024C101.861 82.0937 101.645 82.7424 101.314 83.3485C100.987 83.9545 100.559 84.4896 100.028 84.9536C99.498 85.4128 98.8778 85.7727 98.1675 86.0331C97.4573 86.2888 96.6689 86.4166 95.8025 86.4166C94.5241 86.4166 93.383 86.1207 92.3792 85.5289C91.3754 84.937 90.5847 84.0824 90.007 82.9649C89.4294 81.8475 89.1405 80.5075 89.1405 78.945C89.1405 77.3778 89.4317 76.0378 90.0141 74.9252C90.5965 73.8077 91.3896 72.9531 92.3934 72.3612C93.3972 71.7694 94.5335 71.4735 95.8025 71.4735C96.6121 71.4735 97.365 71.5871 98.061 71.8144C98.757 72.0416 99.3773 72.3754 99.9218 72.8158C100.466 73.2514 100.914 73.7864 101.264 74.4209C101.619 75.0506 101.851 75.7703 101.96 76.58Z" fill="#7B7474"/>
<path d="M743.699 162.236V147.69H749.153C750.271 147.69 751.208 147.885 751.966 148.273C752.728 148.661 753.303 149.206 753.692 149.906C754.085 150.602 754.281 151.414 754.281 152.342C754.281 153.275 754.082 154.085 753.685 154.771C753.292 155.453 752.712 155.981 751.945 156.355C751.178 156.724 750.235 156.909 749.118 156.909H745.233V154.722H748.763C749.416 154.722 749.951 154.632 750.368 154.452C750.785 154.267 751.092 154 751.291 153.649C751.495 153.294 751.597 152.858 751.597 152.342C751.597 151.826 751.495 151.386 751.291 151.021C751.088 150.652 750.777 150.373 750.361 150.183C749.944 149.989 749.407 149.892 748.749 149.892H746.334V162.236H743.699ZM751.213 155.645L754.814 162.236H751.874L748.337 155.645H751.213ZM758.177 162.392C757.746 162.392 757.377 162.241 757.069 161.938C756.761 161.635 756.61 161.265 756.614 160.83C756.61 160.403 756.761 160.039 757.069 159.736C757.377 159.433 757.746 159.281 758.177 159.281C758.593 159.281 758.956 159.433 759.263 159.736C759.576 160.039 759.735 160.403 759.739 160.83C759.735 161.118 759.659 161.381 759.512 161.618C759.37 161.855 759.181 162.044 758.944 162.186C758.712 162.323 758.456 162.392 758.177 162.392ZM767.019 162.236V147.69H769.654V154.374H769.832L775.506 147.69H778.724L773.099 154.217L778.773 162.236H775.606L771.266 156L769.654 157.903V162.236H767.019ZM780.554 162.236V147.69H790.015V149.899H783.189V153.848H789.524V156.057H783.189V160.027H790.071V162.236H780.554ZM792.703 162.236V147.69H795.338V160.027H801.744V162.236H792.703ZM806.446 162.236H803.633L808.754 147.69H812.007L817.135 162.236H814.322L810.437 150.673H810.323L806.446 162.236ZM806.538 156.533H814.208V158.649H806.538V156.533ZM826.721 151.689C826.655 151.069 826.375 150.586 825.883 150.24C825.395 149.894 824.761 149.722 823.979 149.722C823.43 149.722 822.959 149.804 822.566 149.97C822.173 150.136 821.872 150.361 821.664 150.645C821.456 150.929 821.349 151.253 821.344 151.618C821.344 151.921 821.413 152.184 821.55 152.406C821.692 152.629 821.884 152.818 822.126 152.974C822.367 153.126 822.635 153.254 822.928 153.358C823.222 153.462 823.518 153.55 823.816 153.621L825.18 153.962C825.729 154.09 826.257 154.262 826.763 154.48C827.275 154.698 827.732 154.973 828.134 155.304C828.541 155.635 828.863 156.036 829.1 156.504C829.337 156.973 829.455 157.522 829.455 158.152C829.455 159.004 829.237 159.755 828.802 160.403C828.366 161.047 827.736 161.552 826.913 161.916C826.093 162.276 825.102 162.456 823.937 162.456C822.805 162.456 821.823 162.281 820.989 161.93C820.161 161.58 819.512 161.069 819.043 160.396C818.579 159.724 818.328 158.905 818.29 157.939H820.883C820.921 158.446 821.077 158.867 821.352 159.203C821.626 159.539 821.984 159.79 822.424 159.956C822.869 160.122 823.366 160.205 823.915 160.205C824.488 160.205 824.99 160.119 825.421 159.949C825.857 159.774 826.198 159.532 826.444 159.224C826.69 158.912 826.816 158.547 826.82 158.131C826.816 157.752 826.704 157.439 826.486 157.193C826.269 156.942 825.963 156.734 825.57 156.568C825.182 156.398 824.727 156.246 824.207 156.114L822.552 155.688C821.354 155.38 820.407 154.913 819.711 154.288C819.02 153.659 818.674 152.823 818.674 151.781C818.674 150.924 818.906 150.174 819.37 149.53C819.839 148.886 820.476 148.386 821.28 148.031C822.085 147.671 822.997 147.492 824.015 147.492C825.047 147.492 825.951 147.671 826.728 148.031C827.509 148.386 828.122 148.881 828.567 149.516C829.013 150.145 829.242 150.87 829.256 151.689H826.721Z" fill="#7B7474"/>
<path d="M1047.24 162.236V147.69H1052.7C1053.81 147.69 1054.75 147.885 1055.51 148.273C1056.27 148.661 1056.85 149.206 1057.24 149.906C1057.63 150.602 1057.83 151.414 1057.83 152.342C1057.83 153.275 1057.63 154.085 1057.23 154.771C1056.84 155.453 1056.26 155.981 1055.49 156.355C1054.72 156.724 1053.78 156.909 1052.66 156.909H1048.78V154.722H1052.31C1052.96 154.722 1053.5 154.632 1053.91 154.452C1054.33 154.267 1054.64 154 1054.84 153.649C1055.04 153.294 1055.14 152.858 1055.14 152.342C1055.14 151.826 1055.04 151.386 1054.84 151.021C1054.63 150.652 1054.32 150.373 1053.9 150.183C1053.49 149.989 1052.95 149.892 1052.29 149.892H1049.88V162.236H1047.24ZM1054.76 155.645L1058.36 162.236H1055.42L1051.88 155.645H1054.76ZM1061.72 162.392C1061.29 162.392 1060.92 162.241 1060.61 161.938C1060.31 161.635 1060.15 161.265 1060.16 160.83C1060.15 160.403 1060.31 160.039 1060.61 159.736C1060.92 159.433 1061.29 159.281 1061.72 159.281C1062.14 159.281 1062.5 159.433 1062.81 159.736C1063.12 160.039 1063.28 160.403 1063.28 160.83C1063.28 161.118 1063.2 161.381 1063.06 161.618C1062.91 161.855 1062.72 162.044 1062.49 162.186C1062.26 162.323 1062 162.392 1061.72 162.392ZM1070.56 162.236V147.69H1073.2V154.374H1073.38L1079.05 147.69H1082.27L1076.64 154.217L1082.32 162.236H1079.15L1074.81 156L1073.2 157.903V162.236H1070.56ZM1084.1 162.236V147.69H1093.56V149.899H1086.73V153.848H1093.07V156.057H1086.73V160.027H1093.62V162.236H1084.1ZM1096.25 162.236V147.69H1098.88V160.027H1105.29V162.236H1096.25ZM1109.99 162.236H1107.18L1112.3 147.69H1115.55L1120.68 162.236H1117.87L1113.98 150.673H1113.87L1109.99 162.236ZM1110.08 156.533H1117.75V158.649H1110.08V156.533ZM1130.26 151.689C1130.2 151.069 1129.92 150.586 1129.43 150.24C1128.94 149.894 1128.3 149.722 1127.52 149.722C1126.97 149.722 1126.5 149.804 1126.11 149.97C1125.72 150.136 1125.42 150.361 1125.21 150.645C1125 150.929 1124.89 151.253 1124.89 151.618C1124.89 151.921 1124.96 152.184 1125.09 152.406C1125.24 152.629 1125.43 152.818 1125.67 152.974C1125.91 153.126 1126.18 153.254 1126.47 153.358C1126.77 153.462 1127.06 153.55 1127.36 153.621L1128.72 153.962C1129.27 154.09 1129.8 154.262 1130.31 154.48C1130.82 154.698 1131.28 154.973 1131.68 155.304C1132.09 155.635 1132.41 156.036 1132.64 156.504C1132.88 156.973 1133 157.522 1133 158.152C1133 159.004 1132.78 159.755 1132.35 160.403C1131.91 161.047 1131.28 161.552 1130.46 161.916C1129.64 162.276 1128.65 162.456 1127.48 162.456C1126.35 162.456 1125.37 162.281 1124.53 161.93C1123.7 161.58 1123.06 161.069 1122.59 160.396C1122.12 159.724 1121.87 158.905 1121.83 157.939H1124.43C1124.46 158.446 1124.62 158.867 1124.9 159.203C1125.17 159.539 1125.53 159.79 1125.97 159.956C1126.41 160.122 1126.91 160.205 1127.46 160.205C1128.03 160.205 1128.53 160.119 1128.97 159.949C1129.4 159.774 1129.74 159.532 1129.99 159.224C1130.23 158.912 1130.36 158.547 1130.36 158.131C1130.36 157.752 1130.25 157.439 1130.03 157.193C1129.81 156.942 1129.51 156.734 1129.11 156.568C1128.73 156.398 1128.27 156.246 1127.75 156.114L1126.1 155.688C1124.9 155.38 1123.95 154.913 1123.25 154.288C1122.56 153.659 1122.22 152.823 1122.22 151.781C1122.22 150.924 1122.45 150.174 1122.91 149.53C1123.38 148.886 1124.02 148.386 1124.82 148.031C1125.63 147.671 1126.54 147.492 1127.56 147.492C1128.59 147.492 1129.5 147.671 1130.27 148.031C1131.05 148.386 1131.67 148.881 1132.11 149.516C1132.56 150.145 1132.79 150.87 1132.8 151.689H1130.26Z" fill="#7B7474"/>
<path d="M1518.26 162.236V147.69H1523.72C1524.84 147.69 1525.77 147.885 1526.53 148.273C1527.29 148.661 1527.87 149.206 1528.26 149.906C1528.65 150.602 1528.85 151.414 1528.85 152.342C1528.85 153.275 1528.65 154.085 1528.25 154.771C1527.86 155.453 1527.28 155.981 1526.51 156.355C1525.74 156.724 1524.8 156.909 1523.68 156.909H1519.8V154.722H1523.33C1523.98 154.722 1524.52 154.632 1524.93 154.452C1525.35 154.267 1525.66 154 1525.86 153.649C1526.06 153.294 1526.16 152.858 1526.16 152.342C1526.16 151.826 1526.06 151.386 1525.86 151.021C1525.65 150.652 1525.34 150.373 1524.93 150.183C1524.51 149.989 1523.97 149.892 1523.31 149.892H1520.9V162.236H1518.26ZM1525.78 155.645L1529.38 162.236H1526.44L1522.9 155.645H1525.78ZM1532.74 162.392C1532.31 162.392 1531.94 162.241 1531.63 161.938C1531.33 161.635 1531.17 161.265 1531.18 160.83C1531.17 160.403 1531.33 160.039 1531.63 159.736C1531.94 159.433 1532.31 159.281 1532.74 159.281C1533.16 159.281 1533.52 159.433 1533.83 159.736C1534.14 160.039 1534.3 160.403 1534.3 160.83C1534.3 161.118 1534.22 161.381 1534.08 161.618C1533.94 161.855 1533.75 162.044 1533.51 162.186C1533.28 162.323 1533.02 162.392 1532.74 162.392ZM1541.58 162.236V147.69H1544.22V154.374H1544.4L1550.07 147.69H1553.29L1547.66 154.217L1553.34 162.236H1550.17L1545.83 156L1544.22 157.903V162.236H1541.58ZM1555.12 162.236V147.69H1564.58V149.899H1557.75V153.848H1564.09V156.057H1557.75V160.027H1564.64V162.236H1555.12ZM1567.27 162.236V147.69H1569.9V160.027H1576.31V162.236H1567.27ZM1581.01 162.236H1578.2L1583.32 147.69H1586.57L1591.7 162.236H1588.89L1585 150.673H1584.89L1581.01 162.236ZM1581.1 156.533H1588.77V158.649H1581.1V156.533ZM1601.29 151.689C1601.22 151.069 1600.94 150.586 1600.45 150.24C1599.96 149.894 1599.33 149.722 1598.54 149.722C1598 149.722 1597.52 149.804 1597.13 149.97C1596.74 150.136 1596.44 150.361 1596.23 150.645C1596.02 150.929 1595.91 151.253 1595.91 151.618C1595.91 151.921 1595.98 152.184 1596.12 152.406C1596.26 152.629 1596.45 152.818 1596.69 152.974C1596.93 153.126 1597.2 153.254 1597.49 153.358C1597.79 153.462 1598.08 153.55 1598.38 153.621L1599.75 153.962C1600.29 154.09 1600.82 154.262 1601.33 154.48C1601.84 154.698 1602.3 154.973 1602.7 155.304C1603.11 155.635 1603.43 156.036 1603.67 156.504C1603.9 156.973 1604.02 157.522 1604.02 158.152C1604.02 159.004 1603.8 159.755 1603.37 160.403C1602.93 161.047 1602.3 161.552 1601.48 161.916C1600.66 162.276 1599.67 162.456 1598.5 162.456C1597.37 162.456 1596.39 162.281 1595.55 161.93C1594.73 161.58 1594.08 161.069 1593.61 160.396C1593.14 159.724 1592.89 158.905 1592.86 157.939H1595.45C1595.49 158.446 1595.64 158.867 1595.92 159.203C1596.19 159.539 1596.55 159.79 1596.99 159.956C1597.43 160.122 1597.93 160.205 1598.48 160.205C1599.05 160.205 1599.56 160.119 1599.99 159.949C1600.42 159.774 1600.76 159.532 1601.01 159.224C1601.26 158.912 1601.38 158.547 1601.39 158.131C1601.38 157.752 1601.27 157.439 1601.05 157.193C1600.83 156.942 1600.53 156.734 1600.14 156.568C1599.75 156.398 1599.29 156.246 1598.77 156.114L1597.12 155.688C1595.92 155.38 1594.97 154.913 1594.28 154.288C1593.59 153.659 1593.24 152.823 1593.24 151.781C1593.24 150.924 1593.47 150.174 1593.94 149.53C1594.4 148.886 1595.04 148.386 1595.85 148.031C1596.65 147.671 1597.56 147.492 1598.58 147.492C1599.61 147.492 1600.52 147.671 1601.29 148.031C1602.07 148.386 1602.69 148.881 1603.13 149.516C1603.58 150.145 1603.81 150.87 1603.82 151.689H1601.29Z" fill="#7B7474"/>
<path d="M1821.81 162.236V147.69H1827.26C1828.38 147.69 1829.32 147.885 1830.08 148.273C1830.84 148.661 1831.41 149.206 1831.8 149.906C1832.19 150.602 1832.39 151.414 1832.39 152.342C1832.39 153.275 1832.19 154.085 1831.79 154.771C1831.4 155.453 1830.82 155.981 1830.05 156.355C1829.29 156.724 1828.34 156.909 1827.23 156.909H1823.34V154.722H1826.87C1827.53 154.722 1828.06 154.632 1828.48 154.452C1828.89 154.267 1829.2 154 1829.4 153.649C1829.6 153.294 1829.71 152.858 1829.71 152.342C1829.71 151.826 1829.6 151.386 1829.4 151.021C1829.2 150.652 1828.89 150.373 1828.47 150.183C1828.05 149.989 1827.52 149.892 1826.86 149.892H1824.44V162.236H1821.81ZM1829.32 155.645L1832.92 162.236H1829.98L1826.45 155.645H1829.32ZM1836.29 162.392C1835.86 162.392 1835.49 162.241 1835.18 161.938C1834.87 161.635 1834.72 161.265 1834.72 160.83C1834.72 160.403 1834.87 160.039 1835.18 159.736C1835.49 159.433 1835.86 159.281 1836.29 159.281C1836.7 159.281 1837.07 159.433 1837.37 159.736C1837.69 160.039 1837.84 160.403 1837.85 160.83C1837.84 161.118 1837.77 161.381 1837.62 161.618C1837.48 161.855 1837.29 162.044 1837.05 162.186C1836.82 162.323 1836.57 162.392 1836.29 162.392ZM1845.13 162.236V147.69H1847.76V154.374H1847.94L1853.62 147.69H1856.83L1851.21 154.217L1856.88 162.236H1853.72L1849.38 156L1847.76 157.903V162.236H1845.13ZM1858.66 162.236V147.69H1868.12V149.899H1861.3V153.848H1867.63V156.057H1861.3V160.027H1868.18V162.236H1858.66ZM1870.81 162.236V147.69H1873.45V160.027H1879.85V162.236H1870.81ZM1884.55 162.236H1881.74L1886.86 147.69H1890.12L1895.24 162.236H1892.43L1888.55 150.673H1888.43L1884.55 162.236ZM1884.65 156.533H1892.32V158.649H1884.65V156.533ZM1904.83 151.689C1904.76 151.069 1904.48 150.586 1903.99 150.24C1903.5 149.894 1902.87 149.722 1902.09 149.722C1901.54 149.722 1901.07 149.804 1900.68 149.97C1900.28 150.136 1899.98 150.361 1899.77 150.645C1899.57 150.929 1899.46 151.253 1899.45 151.618C1899.45 151.921 1899.52 152.184 1899.66 152.406C1899.8 152.629 1899.99 152.818 1900.24 152.974C1900.48 153.126 1900.74 153.254 1901.04 153.358C1901.33 153.462 1901.63 153.55 1901.93 153.621L1903.29 153.962C1903.84 154.09 1904.37 154.262 1904.87 154.48C1905.38 154.698 1905.84 154.973 1906.24 155.304C1906.65 155.635 1906.97 156.036 1907.21 156.504C1907.45 156.973 1907.56 157.522 1907.56 158.152C1907.56 159.004 1907.35 159.755 1906.91 160.403C1906.48 161.047 1905.85 161.552 1905.02 161.916C1904.2 162.276 1903.21 162.456 1902.05 162.456C1900.91 162.456 1899.93 162.281 1899.1 161.93C1898.27 161.58 1897.62 161.069 1897.15 160.396C1896.69 159.724 1896.44 158.905 1896.4 157.939H1898.99C1899.03 158.446 1899.19 158.867 1899.46 159.203C1899.74 159.539 1900.09 159.79 1900.53 159.956C1900.98 160.122 1901.48 160.205 1902.02 160.205C1902.6 160.205 1903.1 160.119 1903.53 159.949C1903.97 159.774 1904.31 159.532 1904.55 159.224C1904.8 158.912 1904.92 158.547 1904.93 158.131C1904.92 157.752 1904.81 157.439 1904.6 157.193C1904.38 156.942 1904.07 156.734 1903.68 156.568C1903.29 156.398 1902.84 156.246 1902.32 156.114L1900.66 155.688C1899.46 155.38 1898.52 154.913 1897.82 154.288C1897.13 153.659 1896.78 152.823 1896.78 151.781C1896.78 150.924 1897.02 150.174 1897.48 149.53C1897.95 148.886 1898.58 148.386 1899.39 148.031C1900.19 147.671 1901.11 147.492 1902.12 147.492C1903.16 147.492 1904.06 147.671 1904.84 148.031C1905.62 148.386 1906.23 148.881 1906.68 149.516C1907.12 150.145 1907.35 150.87 1907.37 151.689H1904.83Z" fill="#7B7474"/>
<path d="M1238.82 316.785L1238.82 227.206M1238.82 1.77222L1238.82 227.206M1238.82 1.77222L1325.18 1.77222M1238.82 1.77222L940.245 1.77224M1411.53 1.77222L1411.53 227.206M1411.53 1.77222L1325.18 1.77222M1411.53 1.77222L1709.9 1.77223M1411.53 316.785L1411.53 227.206M1411.53 227.206L1325.18 227.206M1238.82 227.206L1325.18 227.206M1325.18 227.206L1325.18 1.77222M1.33447 316.785L1.33447 381.42L2011.66 381.42L2011.66 1.77225L1709.9 1.77223M1.33447 316.785L1.33446 1.77222L83.9065 1.77221M1.33447 316.785L64.5576 316.785M102.156 316.785L166.478 316.785M593.249 316.785L166.478 316.785M896.243 316.785L639.516 316.785L639.516 1.77222M1198.28 316.785L940.245 316.785L940.245 1.77224M1453.17 316.785L1709.9 316.785M1966.63 316.785L1709.9 316.785M940.245 1.77224L639.516 1.77222M639.516 1.77222L166.478 1.77221M166.478 316.785L166.478 1.77221M166.478 1.77221L83.9065 1.77221M83.9065 1.77221L83.9065 287.155M83.9065 287.155L64.5576 287.155M83.9065 287.155L102.156 287.155M1709.9 316.785L1709.9 1.77223" stroke="#4C4C4C" stroke-width="2"/>
</svg>
