<svg width="2013" height="420" viewBox="0 0 2013 420" fill="none" xmlns="http://www.w3.org/2000/svg">
<path d="M571.657 194.841H568.844L573.965 180.295H577.218L582.345 194.841H579.533L575.648 183.278H575.534L571.657 194.841ZM571.749 189.138H579.419V191.254H571.749V189.138ZM593.43 180.295H596.065V189.798C596.065 190.84 595.819 191.756 595.327 192.547C594.839 193.338 594.152 193.955 593.267 194.4C592.382 194.841 591.347 195.061 590.163 195.061C588.975 195.061 587.938 194.841 587.053 194.4C586.167 193.955 585.481 193.338 584.993 192.547C584.505 191.756 584.261 190.84 584.261 189.798V180.295H586.896V189.578C586.896 190.184 587.029 190.724 587.294 191.197C587.564 191.671 587.943 192.043 588.43 192.312C588.918 192.578 589.496 192.71 590.163 192.71C590.831 192.71 591.409 192.578 591.896 192.312C592.389 192.043 592.767 191.671 593.033 191.197C593.298 190.724 593.43 190.184 593.43 189.578V180.295ZM598.929 194.841V180.295H601.564V192.632H607.97V194.841H598.929ZM612.672 194.841H609.86L614.98 180.295H618.233L623.361 194.841H620.549L616.664 183.278H616.55L612.672 194.841ZM612.765 189.138H620.435V191.254H612.765V189.138Z" fill="#7B7474"/>
<path d="M1286.22 250.318V248.109H1297.83V250.318H1293.33V262.654H1290.72V250.318H1286.22ZM1300.17 262.654H1297.36L1302.48 248.109H1305.73L1310.86 262.654H1308.05L1304.16 251.092H1304.05L1300.17 262.654ZM1300.27 256.951H1307.94V259.068H1300.27V256.951ZM1324.73 248.109V262.654H1322.39L1315.53 252.747H1315.41V262.654H1312.78V248.109H1315.14L1321.98 258.024H1322.11V248.109H1324.73ZM1337.35 252.754C1337.23 252.37 1337.06 252.027 1336.86 251.724C1336.65 251.416 1336.41 251.153 1336.12 250.936C1335.83 250.718 1335.51 250.554 1335.14 250.445C1334.77 250.332 1334.37 250.275 1333.93 250.275C1333.15 250.275 1332.45 250.472 1331.84 250.865C1331.23 251.258 1330.75 251.835 1330.4 252.597C1330.05 253.355 1329.88 254.278 1329.88 255.367C1329.88 256.466 1330.05 257.396 1330.4 258.159C1330.75 258.921 1331.23 259.501 1331.84 259.899C1332.46 260.292 1333.17 260.488 1333.99 260.488C1334.73 260.488 1335.36 260.346 1335.9 260.062C1336.45 259.778 1336.87 259.375 1337.16 258.855C1337.46 258.329 1337.6 257.713 1337.6 257.008L1338.2 257.1H1334.25V255.041H1340.15V256.788C1340.15 258.033 1339.89 259.11 1339.36 260.019C1338.83 260.928 1338.1 261.629 1337.17 262.122C1336.24 262.609 1335.18 262.853 1333.97 262.853C1332.63 262.853 1331.46 262.552 1330.44 261.951C1329.43 261.345 1328.65 260.486 1328.08 259.373C1327.51 258.256 1327.23 256.93 1327.23 255.396C1327.23 254.222 1327.4 253.173 1327.73 252.249C1328.07 251.326 1328.53 250.543 1329.14 249.899C1329.74 249.25 1330.44 248.758 1331.25 248.421C1332.06 248.08 1332.94 247.91 1333.89 247.91C1334.7 247.91 1335.45 248.028 1336.15 248.265C1336.84 248.497 1337.46 248.829 1338 249.259C1338.54 249.69 1338.99 250.202 1339.34 250.794C1339.69 251.385 1339.92 252.039 1340.03 252.754H1337.35ZM1352.44 252.754C1352.33 252.37 1352.16 252.027 1351.95 251.724C1351.75 251.416 1351.5 251.153 1351.22 250.936C1350.93 250.718 1350.6 250.554 1350.24 250.445C1349.87 250.332 1349.46 250.275 1349.03 250.275C1348.25 250.275 1347.55 250.472 1346.94 250.865C1346.33 251.258 1345.85 251.835 1345.5 252.597C1345.15 253.355 1344.98 254.278 1344.98 255.367C1344.98 256.466 1345.15 257.396 1345.5 258.159C1345.84 258.921 1346.32 259.501 1346.94 259.899C1347.56 260.292 1348.27 260.488 1349.08 260.488C1349.82 260.488 1350.46 260.346 1351 260.062C1351.55 259.778 1351.97 259.375 1352.26 258.855C1352.55 258.329 1352.7 257.713 1352.7 257.008L1353.3 257.1H1349.35V255.041H1355.25V256.788C1355.25 258.033 1354.98 259.11 1354.45 260.019C1353.92 260.928 1353.19 261.629 1352.27 262.122C1351.34 262.609 1350.27 262.853 1349.07 262.853C1347.73 262.853 1346.55 262.552 1345.54 261.951C1344.53 261.345 1343.74 260.486 1343.18 259.373C1342.61 258.256 1342.33 256.93 1342.33 255.396C1342.33 254.222 1342.5 253.173 1342.83 252.249C1343.16 251.326 1343.63 250.543 1344.23 249.899C1344.84 249.25 1345.54 248.758 1346.35 248.421C1347.16 248.08 1348.04 247.91 1348.99 247.91C1349.8 247.91 1350.55 248.028 1351.24 248.265C1351.94 248.497 1352.56 248.829 1353.1 249.259C1353.64 249.69 1354.09 250.202 1354.44 250.794C1354.79 251.385 1355.02 252.039 1355.13 252.754H1352.44ZM1359.22 262.654H1356.4L1361.52 248.109H1364.78L1369.91 262.654H1367.09L1363.21 251.092H1363.09L1359.22 262.654ZM1359.31 256.951H1366.98V259.068H1359.31V256.951Z" fill="#7B7474"/>
<path d="M30.6544 339.297V324.751H36.1089C37.2264 324.751 38.1639 324.946 38.9214 325.334C39.6837 325.722 40.259 326.267 40.6473 326.967C41.0403 327.663 41.2368 328.475 41.2368 329.403C41.2368 330.336 41.0379 331.146 40.6402 331.832C40.2472 332.514 39.6672 333.042 38.9001 333.416C38.1331 333.786 37.1908 333.97 36.0734 333.97H32.1885V331.783H35.7183C36.3717 331.783 36.9068 331.693 37.3234 331.513C37.7401 331.328 38.0479 331.061 38.2467 330.71C38.4503 330.355 38.5521 329.92 38.5521 329.403C38.5521 328.887 38.4503 328.447 38.2467 328.082C38.0431 327.713 37.733 327.434 37.3163 327.244C36.8997 327.05 36.3622 326.953 35.7041 326.953H33.2893V339.297H30.6544ZM38.1686 332.706L41.7694 339.297H38.8291L35.2922 332.706H38.1686ZM45.1324 339.453C44.7015 339.453 44.3322 339.302 44.0244 338.999C43.7166 338.696 43.5651 338.326 43.5699 337.891C43.5651 337.464 43.7166 337.1 44.0244 336.797C44.3322 336.494 44.7015 336.342 45.1324 336.342C45.549 336.342 45.9113 336.494 46.219 336.797C46.5315 337.1 46.6901 337.464 46.6949 337.891C46.6901 338.179 46.6144 338.442 46.4676 338.679C46.3256 338.916 46.1362 339.105 45.8994 339.247C45.6674 339.384 45.4117 339.453 45.1324 339.453ZM55.8426 339.297H53.0301L58.1508 324.751H61.4037L66.5315 339.297H63.719L59.8341 327.734H59.7204L55.8426 339.297ZM55.9349 333.594H63.6054V335.71H55.9349V333.594ZM71.0823 324.751V339.297H68.4474V324.751H71.0823ZM73.9356 339.297V324.751H79.3902C80.5076 324.751 81.4451 324.946 82.2027 325.334C82.965 325.722 83.5403 326.267 83.9285 326.967C84.3215 327.663 84.518 328.475 84.518 329.403C84.518 330.336 84.3192 331.146 83.9214 331.832C83.5284 332.514 82.9484 333.042 82.1814 333.416C81.4143 333.786 80.4721 333.97 79.3547 333.97H75.4697V331.783H78.9996C79.653 331.783 80.188 331.693 80.6047 331.513C81.0213 331.328 81.3291 331.061 81.528 330.71C81.7316 330.355 81.8334 329.92 81.8334 329.403C81.8334 328.887 81.7316 328.447 81.528 328.082C81.3244 327.713 81.0142 327.434 80.5976 327.244C80.1809 327.05 79.6435 326.953 78.9854 326.953H76.5706V339.297H73.9356ZM81.4498 332.706L85.0507 339.297H82.1104L78.5734 332.706H81.4498Z" fill="#7B7474"/>
<path d="M1630.37 199.841V185.295H1635.83C1636.94 185.295 1637.88 185.489 1638.64 185.878C1639.4 186.266 1639.98 186.811 1640.36 187.511C1640.76 188.207 1640.95 189.019 1640.95 189.947C1640.95 190.88 1640.75 191.69 1640.36 192.376C1639.96 193.058 1639.38 193.586 1638.62 193.96C1637.85 194.329 1636.91 194.514 1635.79 194.514H1631.91V192.327H1635.44C1636.09 192.327 1636.62 192.237 1637.04 192.057C1637.46 191.872 1637.76 191.605 1637.96 191.254C1638.17 190.899 1638.27 190.463 1638.27 189.947C1638.27 189.431 1638.17 188.991 1637.96 188.626C1637.76 188.257 1637.45 187.978 1637.03 187.788C1636.62 187.594 1636.08 187.497 1635.42 187.497H1633.01V199.841H1630.37ZM1637.89 193.25L1641.49 199.841H1638.55L1635.01 193.25H1637.89ZM1644.85 199.997C1644.42 199.997 1644.05 199.846 1643.74 199.543C1643.43 199.239 1643.28 198.87 1643.29 198.435C1643.28 198.008 1643.43 197.644 1643.74 197.341C1644.05 197.038 1644.42 196.886 1644.85 196.886C1645.27 196.886 1645.63 197.038 1645.94 197.341C1646.25 197.644 1646.41 198.008 1646.41 198.435C1646.41 198.723 1646.33 198.986 1646.18 199.223C1646.04 199.46 1645.85 199.649 1645.62 199.791C1645.38 199.928 1645.13 199.997 1644.85 199.997ZM1653.69 199.841V185.295H1659.15C1660.26 185.295 1661.2 185.504 1661.96 185.92C1662.72 186.337 1663.3 186.91 1663.68 187.639C1664.08 188.364 1664.27 189.187 1664.27 190.111C1664.27 191.043 1664.08 191.872 1663.68 192.597C1663.29 193.321 1662.71 193.891 1661.94 194.308C1661.18 194.72 1660.23 194.926 1659.11 194.926H1655.5V192.76H1658.76C1659.41 192.76 1659.94 192.646 1660.36 192.419C1660.78 192.192 1661.08 191.879 1661.28 191.481C1661.49 191.084 1661.59 190.627 1661.59 190.111C1661.59 189.595 1661.49 189.14 1661.28 188.747C1661.08 188.354 1660.77 188.049 1660.35 187.831C1659.94 187.608 1659.4 187.497 1658.74 187.497H1656.33V199.841H1653.69ZM1666.56 199.841V185.295H1672.02C1673.13 185.295 1674.07 185.489 1674.83 185.878C1675.59 186.266 1676.17 186.811 1676.56 187.511C1676.95 188.207 1677.14 189.019 1677.14 189.947C1677.14 190.88 1676.95 191.69 1676.55 192.376C1676.16 193.058 1675.58 193.586 1674.81 193.96C1674.04 194.329 1673.1 194.514 1671.98 194.514H1668.1V192.327H1671.63C1672.28 192.327 1672.81 192.237 1673.23 192.057C1673.65 191.872 1673.96 191.605 1674.15 191.254C1674.36 190.899 1674.46 190.463 1674.46 189.947C1674.46 189.431 1674.36 188.991 1674.15 188.626C1673.95 188.257 1673.64 187.978 1673.22 187.788C1672.81 187.594 1672.27 187.497 1671.61 187.497H1669.2V199.841H1666.56ZM1674.08 193.25L1677.68 199.841H1674.74L1671.2 193.25H1674.08ZM1681.44 199.841H1678.63L1683.75 185.295H1687L1692.13 199.841H1689.31L1685.43 188.278H1685.32L1681.44 199.841ZM1681.53 194.138H1689.2V196.254H1681.53V194.138ZM1694.04 199.841V185.295H1696.68V191.979H1696.86L1702.53 185.295H1705.75L1700.12 191.822L1705.8 199.841H1702.63L1698.29 193.605L1696.68 195.508V199.841H1694.04ZM1706.94 187.504V185.295H1718.54V187.504H1714.05V199.841H1711.43V187.504H1706.94ZM1720.78 199.841V185.295H1730.24V187.504H1723.42V191.453H1729.75V193.662H1723.42V197.632H1730.3V199.841H1720.78ZM1732.93 199.841V185.295H1735.56V191.979H1735.74L1741.42 185.295H1744.63L1739.01 191.822L1744.68 199.841H1741.52L1737.18 193.605L1735.56 195.508V199.841H1732.93ZM1757.16 185.295H1759.78V195.523C1759.77 196.46 1759.57 197.267 1759.18 197.945C1758.79 198.617 1758.24 199.135 1757.53 199.5C1756.83 199.86 1756.02 200.04 1755.08 200.04C1754.23 200.04 1753.46 199.888 1752.78 199.585C1752.11 199.277 1751.57 198.823 1751.17 198.222C1750.77 197.62 1750.57 196.872 1750.57 195.977H1753.19C1753.2 196.37 1753.28 196.709 1753.45 196.993C1753.62 197.277 1753.85 197.495 1754.15 197.646C1754.45 197.798 1754.79 197.873 1755.18 197.873C1755.6 197.873 1755.96 197.786 1756.26 197.611C1756.55 197.431 1756.77 197.166 1756.92 196.815C1757.08 196.465 1757.16 196.034 1757.16 195.523V185.295ZM1764.5 199.841H1761.69L1766.81 185.295H1770.07L1775.19 199.841H1772.38L1768.5 188.278H1768.38L1764.5 199.841ZM1764.6 194.138H1772.27V196.254H1764.6V194.138ZM1777.11 199.841V185.295H1782.56C1783.68 185.295 1784.62 185.489 1785.38 185.878C1786.14 186.266 1786.71 186.811 1787.1 187.511C1787.5 188.207 1787.69 189.019 1787.69 189.947C1787.69 190.88 1787.49 191.69 1787.1 192.376C1786.7 193.058 1786.12 193.586 1785.36 193.96C1784.59 194.329 1783.65 194.514 1782.53 194.514H1778.64V192.327H1782.17C1782.83 192.327 1783.36 192.237 1783.78 192.057C1784.2 191.872 1784.5 191.605 1784.7 191.254C1784.91 190.899 1785.01 190.463 1785.01 189.947C1785.01 189.431 1784.91 188.991 1784.7 188.626C1784.5 188.257 1784.19 187.978 1783.77 187.788C1783.35 187.594 1782.82 187.497 1782.16 187.497H1779.74V199.841H1777.11ZM1784.62 193.25L1788.22 199.841H1785.28L1781.75 193.25H1784.62ZM1792.75 185.295V199.841H1790.12V185.295H1792.75ZM1807.56 185.295V199.841H1805.21L1798.36 189.933H1798.24V199.841H1795.61V185.295H1797.96L1804.81 195.21H1804.94V185.295H1807.56ZM1820.17 189.94C1820.06 189.557 1819.89 189.213 1819.68 188.91C1819.48 188.603 1819.23 188.34 1818.95 188.122C1818.66 187.904 1818.33 187.741 1817.97 187.632C1817.6 187.518 1817.19 187.462 1816.76 187.462C1815.98 187.462 1815.28 187.658 1814.67 188.051C1814.06 188.444 1813.58 189.022 1813.23 189.784C1812.88 190.542 1812.71 191.465 1812.71 192.554C1812.71 193.652 1812.88 194.583 1813.23 195.345C1813.57 196.107 1814.05 196.687 1814.67 197.085C1815.29 197.478 1816 197.675 1816.81 197.675C1817.55 197.675 1818.19 197.533 1818.73 197.248C1819.28 196.964 1819.7 196.562 1819.99 196.041C1820.28 195.516 1820.43 194.9 1820.43 194.195L1821.03 194.287H1817.08V192.227H1822.98V193.974C1822.98 195.22 1822.71 196.297 1822.18 197.206C1821.65 198.115 1820.92 198.816 1820 199.308C1819.07 199.796 1818 200.04 1816.8 200.04C1815.46 200.04 1814.28 199.739 1813.27 199.138C1812.26 198.532 1811.47 197.672 1810.91 196.56C1810.34 195.442 1810.06 194.116 1810.06 192.582C1810.06 191.408 1810.23 190.359 1810.56 189.436C1810.89 188.513 1811.36 187.729 1811.96 187.085C1812.57 186.436 1813.27 185.944 1814.08 185.608C1814.89 185.267 1815.77 185.097 1816.72 185.097C1817.53 185.097 1818.28 185.215 1818.97 185.452C1819.67 185.684 1820.29 186.015 1820.83 186.446C1821.37 186.877 1821.82 187.388 1822.17 187.98C1822.52 188.572 1822.75 189.225 1822.86 189.94H1820.17ZM1826.95 199.841H1824.13L1829.25 185.295H1832.51L1837.64 199.841H1834.82L1830.94 188.278H1830.82L1826.95 199.841ZM1827.04 194.138H1834.71V196.254H1827.04V194.138ZM1851.5 185.295V199.841H1849.16L1842.31 189.933H1842.19V199.841H1839.55V185.295H1841.91L1848.76 195.21H1848.88V185.295H1851.5Z" fill="#7B7474"/>
<path d="M1238.82 381.264V418.257H1411.53V381.264H2011.66V1.61646L1411.53 1.61646M1238.82 381.264H1369.43M1238.82 381.264H188.101M1238.82 1.61646L1.33447 1.61646L1.33449 286.399M1238.82 1.61646V227.05M1238.82 1.61646L1325.18 1.61646M1411.53 1.61646V227.05M1411.53 1.61646L1325.18 1.61646M1411.53 227.05V323.629M1411.53 227.05H1325.18M1238.82 323.629V227.05M1238.82 227.05H1325.18M1325.18 227.05L1325.18 1.61646M1.33449 286.399L1.33449 381.264H112.485M1.33449 286.399H38.0693M74.6771 286.399H112.485L112.485 381.264M112.485 381.264H188.101M149.093 326.007H188.101V381.264" stroke="#4C4C4C" stroke-width="2"/>
</svg>
